<mxfile host="app.diagrams.net" modified="2024-07-10T15:14:38.857Z" agent="Mozilla/5.0 (Windows NT 10.0; Win64; x64; rv:128.0) Gecko/20100101 Firefox/128.0" etag="Ke4UpHhuOjPEd86Na6VV" version="24.6.4" type="device">
  <diagram id="C5RBs43oDa-KdzZeNtuy" name="Page-1">
    <mxGraphModel dx="7112" dy="2029" grid="1" gridSize="10" guides="1" tooltips="1" connect="1" arrows="1" fold="1" page="1" pageScale="1" pageWidth="827" pageHeight="1169" math="0" shadow="0">
      <root>
        <mxCell id="WIyWlLk6GJQsqaUBKTNV-0" />
        <mxCell id="WIyWlLk6GJQsqaUBKTNV-1" parent="WIyWlLk6GJQsqaUBKTNV-0" />
        <mxCell id="NW10qsWNtvqKA9GrzfMX-203" value="src" style="shape=folder;fontStyle=1;spacingTop=-5;tabWidth=30;tabHeight=19;tabPosition=left;html=1;whiteSpace=wrap;align=left;verticalAlign=top;" parent="WIyWlLk6GJQsqaUBKTNV-1" vertex="1">
          <mxGeometry x="-4680" y="-810" width="3950" height="3310" as="geometry" />
        </mxCell>
        <mxCell id="NW10qsWNtvqKA9GrzfMX-0" value="&lt;div&gt;controller&lt;/div&gt;&lt;div&gt;&lt;br&gt;&lt;/div&gt;" style="shape=folder;fontStyle=1;spacingTop=-5;tabWidth=60;tabHeight=20;tabPosition=left;html=1;whiteSpace=wrap;align=left;verticalAlign=top;" parent="WIyWlLk6GJQsqaUBKTNV-1" vertex="1">
          <mxGeometry x="-4620" y="1350" width="1770" height="1120" as="geometry" />
        </mxCell>
        <mxCell id="NW10qsWNtvqKA9GrzfMX-202" value="" style="group" parent="WIyWlLk6GJQsqaUBKTNV-1" vertex="1" connectable="0">
          <mxGeometry x="-4590" y="-740" width="3810" height="1990" as="geometry" />
        </mxCell>
        <mxCell id="NW10qsWNtvqKA9GrzfMX-5" value="&lt;div&gt;model&lt;/div&gt;&lt;div&gt;&lt;br&gt;&lt;/div&gt;" style="shape=folder;fontStyle=1;spacingTop=-5;tabWidth=40;tabHeight=20;tabPosition=left;html=1;whiteSpace=wrap;container=0;verticalAlign=top;spacing=2;align=left;" parent="NW10qsWNtvqKA9GrzfMX-202" vertex="1">
          <mxGeometry width="3810" height="1990" as="geometry" />
        </mxCell>
        <mxCell id="NW10qsWNtvqKA9GrzfMX-65" value="event" style="shape=folder;fontStyle=1;spacingTop=-5;tabWidth=40;tabHeight=24;tabPosition=left;html=1;whiteSpace=wrap;align=left;verticalAlign=top;" parent="NW10qsWNtvqKA9GrzfMX-202" vertex="1">
          <mxGeometry x="60" y="90" width="2670" height="1851" as="geometry" />
        </mxCell>
        <mxCell id="NW10qsWNtvqKA9GrzfMX-123" value="list" style="shape=folder;fontStyle=1;spacingTop=-5;tabWidth=30;tabHeight=20;tabPosition=left;html=1;whiteSpace=wrap;align=left;verticalAlign=top;container=0;" parent="NW10qsWNtvqKA9GrzfMX-202" vertex="1">
          <mxGeometry x="100" y="171" width="1300" height="1689" as="geometry" />
        </mxCell>
        <mxCell id="NW10qsWNtvqKA9GrzfMX-140" value="" style="group" parent="NW10qsWNtvqKA9GrzfMX-202" vertex="1" connectable="0">
          <mxGeometry x="1500" y="190" width="1180" height="920" as="geometry" />
        </mxCell>
        <mxCell id="NW10qsWNtvqKA9GrzfMX-121" value="collection" style="shape=folder;fontStyle=1;spacingTop=-5;tabWidth=60;tabHeight=20;tabPosition=left;html=1;whiteSpace=wrap;align=left;verticalAlign=top;" parent="NW10qsWNtvqKA9GrzfMX-140" vertex="1">
          <mxGeometry width="1180" height="920" as="geometry" />
        </mxCell>
        <mxCell id="NW10qsWNtvqKA9GrzfMX-128" value="&lt;div&gt;«interface»&lt;/div&gt;&lt;div&gt;ParticipantCollection&lt;br&gt;&lt;/div&gt;" style="swimlane;fontStyle=1;align=center;verticalAlign=top;childLayout=stackLayout;horizontal=1;startSize=40;horizontalStack=0;resizeParent=1;resizeParentMax=0;resizeLast=0;collapsible=1;marginBottom=0;whiteSpace=wrap;html=1;" parent="NW10qsWNtvqKA9GrzfMX-140" vertex="1">
          <mxGeometry x="450" y="51.13636363636363" width="320" height="490" as="geometry" />
        </mxCell>
        <mxCell id="NW10qsWNtvqKA9GrzfMX-130" value="" style="line;strokeWidth=1;fillColor=none;align=left;verticalAlign=middle;spacingTop=-1;spacingLeft=3;spacingRight=3;rotatable=0;labelPosition=right;points=[];portConstraint=eastwest;strokeColor=inherit;" parent="NW10qsWNtvqKA9GrzfMX-128" vertex="1">
          <mxGeometry y="40" width="320" height="8.181818181818182" as="geometry" />
        </mxCell>
        <mxCell id="NW10qsWNtvqKA9GrzfMX-131" value="&lt;div&gt;&lt;i&gt;getIdentNumber(): IdentNumber&lt;/i&gt;&lt;/div&gt;&lt;div&gt;&lt;i&gt;getParticipants(): List&amp;lt;Participant&amp;gt;&lt;/i&gt;&lt;/div&gt;&lt;div&gt;&lt;i&gt;getKitchne(): Kitchen&lt;/i&gt;&lt;/div&gt;&lt;div&gt;&lt;i&gt;evaluate(): double&lt;/i&gt;&lt;/div&gt;&lt;div&gt;&lt;i&gt;getAgeDifference(): int&lt;/i&gt;&lt;/div&gt;&lt;div&gt;&lt;i&gt;getCourse(): Course&lt;/i&gt;&lt;/div&gt;&lt;div&gt;&lt;i&gt;add(Participant): boolean&lt;/i&gt;&lt;/div&gt;&lt;div&gt;&lt;i&gt;remove(Object): boolean&lt;/i&gt;&lt;/div&gt;&lt;div&gt;+ size(): int&lt;/div&gt;&lt;div&gt;+ isEmpty(): boolean&lt;/div&gt;&lt;div&gt;+ contains(Object): boolean&lt;/div&gt;&lt;div&gt;+ iterator(): Iterator&amp;lt;Participant&amp;gt;&lt;/div&gt;&lt;div&gt;+ toArray(): Object[]&lt;/div&gt;&lt;div&gt;+ toArray&amp;lt;T&amp;gt;(T[]): T[]&lt;/div&gt;&lt;div&gt;+ containsAll(Collection&amp;lt;?&amp;gt;): boolean&lt;/div&gt;&lt;div&gt;&lt;i&gt;+ addAll(Collection&amp;lt;? extends Participant&amp;gt;): boolean&lt;/i&gt;&lt;/div&gt;&lt;div&gt;&lt;i&gt;+ addAll(int, Collection&amp;lt;? extends Participant&amp;gt;): boolean&lt;/i&gt;&lt;/div&gt;&lt;div&gt;&lt;i&gt;+ removeAll(Collection&amp;lt;?&amp;gt;): boolean&lt;/i&gt;&lt;/div&gt;&lt;div&gt;&lt;i&gt;+ retainAll(Collection&amp;lt;?&amp;gt;): boolean&lt;/i&gt;&lt;/div&gt;&lt;div&gt;&lt;i&gt;+ clear(): void&lt;/i&gt;&lt;/div&gt;&lt;div&gt;+ get(int): Participant&lt;/div&gt;&lt;div&gt;&lt;i&gt;+ set(int, Participant): Participant&lt;/i&gt;&lt;/div&gt;&lt;div&gt;&lt;i&gt;+ add(int, Participant): add&lt;/i&gt;&lt;/div&gt;&lt;div&gt;&lt;i&gt;+ remove(int): Participant&lt;/i&gt;&lt;/div&gt;&lt;div&gt;&lt;i&gt;+ indexOf(Object): int&lt;/i&gt;&lt;/div&gt;&lt;div&gt;&lt;i&gt;+ lastIndexOf(Object): int&lt;/i&gt;&lt;/div&gt;&lt;div&gt;+ listIterator(): ListIterator&amp;lt;Participant&amp;gt;&lt;/div&gt;&lt;div&gt;+ listIterator(int): ListIterator&amp;lt;Participant&amp;gt;&lt;/div&gt;&lt;div&gt;+ subList(int, int): List&amp;lt;Participant&amp;gt;&lt;br&gt;&lt;/div&gt;" style="text;strokeColor=none;fillColor=none;align=left;verticalAlign=top;spacingLeft=4;spacingRight=4;overflow=hidden;rotatable=0;points=[[0,0.5],[1,0.5]];portConstraint=eastwest;whiteSpace=wrap;html=1;" parent="NW10qsWNtvqKA9GrzfMX-128" vertex="1">
          <mxGeometry y="48.18181818181818" width="320" height="441.8181818181818" as="geometry" />
        </mxCell>
        <mxCell id="NW10qsWNtvqKA9GrzfMX-132" value="Pair" style="swimlane;fontStyle=1;align=center;verticalAlign=top;childLayout=stackLayout;horizontal=1;startSize=26;horizontalStack=0;resizeParent=1;resizeParentMax=0;resizeLast=0;collapsible=1;marginBottom=0;whiteSpace=wrap;html=1;" parent="NW10qsWNtvqKA9GrzfMX-140" vertex="1">
          <mxGeometry x="40" y="51.13636363636363" width="373" height="860.0036363636364" as="geometry" />
        </mxCell>
        <mxCell id="NW10qsWNtvqKA9GrzfMX-133" value="&lt;div&gt;- id: int {read only}&lt;/div&gt;&lt;div&gt;- participants: Participant[] {read only}&lt;/div&gt;&lt;div&gt;- kitchen: Kitchen&lt;/div&gt;&lt;div&gt;- kitchenOf: boolean&lt;/div&gt;&lt;div&gt;- course: Course&lt;/div&gt;&lt;div&gt;- groups: Group[]&lt;/div&gt;&lt;div&gt;- foodType: FoodType&lt;/div&gt;&lt;div&gt;- starterNumber: int&lt;/div&gt;&lt;div&gt;- mainNumber: int&lt;/div&gt;&lt;div&gt;- dessertNumber: int&lt;/div&gt;&lt;div&gt;- signedUpTogether: boolean {read only}&lt;/div&gt;&lt;div&gt;&lt;u&gt;- inputData: InputData {read only}&lt;/u&gt;&lt;br&gt;&lt;/div&gt;" style="text;strokeColor=none;fillColor=none;align=left;verticalAlign=top;spacingLeft=4;spacingRight=4;overflow=hidden;rotatable=0;points=[[0,0.5],[1,0.5]];portConstraint=eastwest;whiteSpace=wrap;html=1;" parent="NW10qsWNtvqKA9GrzfMX-132" vertex="1">
          <mxGeometry y="26" width="373" height="188.1818181818182" as="geometry" />
        </mxCell>
        <mxCell id="NW10qsWNtvqKA9GrzfMX-134" value="" style="line;strokeWidth=1;fillColor=none;align=left;verticalAlign=middle;spacingTop=-1;spacingLeft=3;spacingRight=3;rotatable=0;labelPosition=right;points=[];portConstraint=eastwest;strokeColor=inherit;" parent="NW10qsWNtvqKA9GrzfMX-132" vertex="1">
          <mxGeometry y="214.1818181818182" width="373" height="8.181818181818182" as="geometry" />
        </mxCell>
        <mxCell id="NW10qsWNtvqKA9GrzfMX-135" value="&lt;div&gt;+ Pair(Participant, Participant, int)&lt;/div&gt;&lt;div&gt;+ Pair( Participant, Participant, boolean, int)&lt;/div&gt;&lt;div&gt;+ Pair(Pair)&lt;br&gt;&lt;/div&gt;&lt;div&gt;- autoAssignFoodType(): FoodType&lt;/div&gt;&lt;div&gt;- hasOnlyCarni(List&amp;lt;FoodType&amp;gt;): boolean&lt;/div&gt;&lt;div&gt;&lt;i&gt;+ getIdentNumber(): IdentNumber&lt;/i&gt;&lt;/div&gt;&lt;div&gt;+ getParticipants(): List&amp;lt;Participant&amp;gt;&lt;/div&gt;&lt;div&gt;+ getKitchen(): Kitchen&lt;/div&gt;&lt;div&gt;&lt;i&gt;+ evaluate(): double&lt;/i&gt;&lt;/div&gt;&lt;div&gt;+ getAgeDifference(): int&lt;/div&gt;&lt;div&gt;+ getCourse(): Course&lt;/div&gt;&lt;div&gt;+ getId(): int&lt;br&gt;&lt;/div&gt;&lt;div&gt;+ getGroups(): List&amp;lt;Group&amp;gt;&lt;/div&gt;&lt;div&gt;+ setKitchen(Kitchen): void&lt;/div&gt;&lt;div&gt;+ setCourse(Course): void&lt;/div&gt;&lt;div&gt;+ setGroups(Group[]): void&lt;/div&gt;&lt;div&gt;+ clearGroups(): void&lt;/div&gt;&lt;div&gt;- autoAssignKitchen(): Kitchen&lt;/div&gt;&lt;div&gt;+ replaceParticipant(Participant, Participant): void&lt;/div&gt;&lt;div&gt;- contains(Participant): boolean&lt;/div&gt;&lt;div&gt;&lt;i&gt;+ add(Participant): boolean&lt;/i&gt;&lt;/div&gt;&lt;div&gt;&lt;i&gt;+remove(Object): boolean&lt;/i&gt;&lt;/div&gt;&lt;div&gt;&lt;i&gt;+ set(index, Participant): Participant&lt;/i&gt;&lt;/div&gt;&lt;div&gt;+ hashCode(): int&lt;/div&gt;&lt;div&gt;+ equals(Object): boolean&lt;/div&gt;&lt;div&gt;+ toString(): String&lt;br&gt;&lt;/div&gt;&lt;div&gt;+ asOutputString(): String&lt;/div&gt;&lt;div&gt;+ getPreferenceDeviation(): int&lt;/div&gt;&lt;div&gt;+ getGenderDeviation(): double&lt;/div&gt;&lt;div&gt;+ getDistance(): double&lt;/div&gt;&lt;div&gt;+ hasKitchen(): boolean&lt;/div&gt;&lt;div&gt;+ getFoodType(): FoodType&lt;/div&gt;&lt;div&gt;+ getAverageAgeRange():double&lt;/div&gt;&lt;div&gt;+ setStarterNumber(int): void&lt;/div&gt;&lt;div&gt;+ getStarterNumber(): int&lt;/div&gt;&lt;div&gt;+ getMainNumber(): int&lt;/div&gt;&lt;div&gt;+ getDessertNumber(): int&lt;/div&gt;&lt;div&gt;+ setMainNumber(int): void&lt;/div&gt;&lt;div&gt;+ setDessertNumber(int): void&lt;/div&gt;&lt;div&gt;+ getIdAsObservable(): ObservableValue&amp;lt;Integer&amp;gt;&lt;/div&gt;&lt;div&gt;+ getSignedUpTogetherAsObservable(): ObservableValue&amp;lt;Boolean&amp;gt;&lt;/div&gt;&lt;div&gt;+ getOtherParticipant(Participant): Participant&lt;/div&gt;&lt;div&gt;+ isGroupsEmpty(): boolean&lt;br&gt;&lt;/div&gt;" style="text;strokeColor=none;fillColor=none;align=left;verticalAlign=top;spacingLeft=4;spacingRight=4;overflow=hidden;rotatable=0;points=[[0,0.5],[1,0.5]];portConstraint=eastwest;whiteSpace=wrap;html=1;" parent="NW10qsWNtvqKA9GrzfMX-132" vertex="1">
          <mxGeometry y="222.36363636363637" width="373" height="637.64" as="geometry" />
        </mxCell>
        <mxCell id="NW10qsWNtvqKA9GrzfMX-136" value="Group" style="swimlane;fontStyle=1;align=center;verticalAlign=top;childLayout=stackLayout;horizontal=1;startSize=26;horizontalStack=0;resizeParent=1;resizeParentMax=0;resizeLast=0;collapsible=1;marginBottom=0;whiteSpace=wrap;html=1;" parent="NW10qsWNtvqKA9GrzfMX-140" vertex="1">
          <mxGeometry x="820" y="51.13636363636363" width="335" height="450.00272727272727" as="geometry" />
        </mxCell>
        <mxCell id="NW10qsWNtvqKA9GrzfMX-137" value="&lt;div&gt;- pairs: Pair[] {read only}&lt;/div&gt;&lt;div&gt;- kitchen: Kitchen&lt;/div&gt;&lt;div&gt;- course: Course&lt;/div&gt;&lt;div&gt;- id: int&lt;/div&gt;&lt;div&gt;&lt;u&gt;+ COUNTER: int&lt;/u&gt;&lt;/div&gt;&lt;div&gt;- cookIndex: int&lt;br&gt;&lt;/div&gt;" style="text;strokeColor=none;fillColor=none;align=left;verticalAlign=top;spacingLeft=4;spacingRight=4;overflow=hidden;rotatable=0;points=[[0,0.5],[1,0.5]];portConstraint=eastwest;whiteSpace=wrap;html=1;" parent="NW10qsWNtvqKA9GrzfMX-136" vertex="1">
          <mxGeometry y="26" width="335" height="116.5909090909091" as="geometry" />
        </mxCell>
        <mxCell id="NW10qsWNtvqKA9GrzfMX-138" value="" style="line;strokeWidth=1;fillColor=none;align=left;verticalAlign=middle;spacingTop=-1;spacingLeft=3;spacingRight=3;rotatable=0;labelPosition=right;points=[];portConstraint=eastwest;strokeColor=inherit;" parent="NW10qsWNtvqKA9GrzfMX-136" vertex="1">
          <mxGeometry y="142.5909090909091" width="335" height="8.181818181818182" as="geometry" />
        </mxCell>
        <mxCell id="NW10qsWNtvqKA9GrzfMX-139" value="&lt;div&gt;+ Group(Pair, Pair, Pair, Course, Kitchen)&lt;br&gt;&lt;/div&gt;&lt;div&gt;+ Group(Group)&lt;br&gt;&lt;/div&gt;&lt;div&gt;- setPairIds(): void&lt;/div&gt;&lt;div&gt;- getKitchenOwner(Kitchen): int&lt;/div&gt;&lt;div&gt;&lt;i&gt;+ getIdentNumber(): IdentNumber&lt;/i&gt;&lt;/div&gt;&lt;div&gt;+ getParticipants(): List&amp;lt;Participant&amp;gt;&lt;/div&gt;&lt;div&gt;+ getKitchen(): Kitchen&lt;/div&gt;&lt;div&gt;+ evaluate(): double&lt;/div&gt;&lt;div&gt;&lt;i&gt;+ getAgeDifference(): int&lt;/i&gt;&lt;/div&gt;&lt;div&gt;+ getCourse(): Course&lt;/div&gt;&lt;div&gt;&lt;i&gt;+ add(Participant): boolean&lt;/i&gt;&lt;/div&gt;&lt;div&gt;&lt;i&gt;+ remove(Object): boolean&lt;/i&gt;&lt;/div&gt;&lt;div&gt;+ asOutputString(): String&lt;/div&gt;&lt;div&gt;+ getPairs(): Pair[]&lt;/div&gt;&lt;div&gt;+ getId(): int&lt;/div&gt;&lt;div&gt;+ getIdAsObservable: ObservableValue&amp;lt;Integer&amp;gt;&lt;/div&gt;&lt;div&gt;+ getCookPairIdAsObservable(): ObservableValue&amp;lt;Integer&amp;gt;&lt;/div&gt;&lt;div&gt;+ hashCode(): int&lt;/div&gt;&lt;div&gt;+ equals(Object): boolean&lt;/div&gt;&lt;div&gt;+ toString(): String&lt;br&gt;&lt;/div&gt;" style="text;strokeColor=none;fillColor=none;align=left;verticalAlign=top;spacingLeft=4;spacingRight=4;overflow=hidden;rotatable=0;points=[[0,0.5],[1,0.5]];portConstraint=eastwest;whiteSpace=wrap;html=1;" parent="NW10qsWNtvqKA9GrzfMX-136" vertex="1">
          <mxGeometry y="150.77272727272728" width="335" height="299.23" as="geometry" />
        </mxCell>
        <mxCell id="9cCDUhdidDNCYwHO_KRY-18" value="" style="endArrow=block;dashed=1;endFill=0;endSize=12;html=1;rounded=0;exitX=1;exitY=0.5;exitDx=0;exitDy=0;entryX=0.004;entryY=0.164;entryDx=0;entryDy=0;entryPerimeter=0;" edge="1" parent="NW10qsWNtvqKA9GrzfMX-140" source="NW10qsWNtvqKA9GrzfMX-133" target="NW10qsWNtvqKA9GrzfMX-131">
          <mxGeometry width="160" relative="1" as="geometry">
            <mxPoint x="330" y="300" as="sourcePoint" />
            <mxPoint x="490" y="300" as="targetPoint" />
          </mxGeometry>
        </mxCell>
        <mxCell id="9cCDUhdidDNCYwHO_KRY-19" value="" style="endArrow=block;dashed=1;endFill=0;endSize=12;html=1;rounded=0;exitX=0;exitY=0.5;exitDx=0;exitDy=0;entryX=1.007;entryY=0.079;entryDx=0;entryDy=0;entryPerimeter=0;" edge="1" parent="NW10qsWNtvqKA9GrzfMX-140" source="NW10qsWNtvqKA9GrzfMX-137" target="NW10qsWNtvqKA9GrzfMX-131">
          <mxGeometry width="160" relative="1" as="geometry">
            <mxPoint x="330" y="270" as="sourcePoint" />
            <mxPoint x="490" y="270" as="targetPoint" />
          </mxGeometry>
        </mxCell>
        <mxCell id="9cCDUhdidDNCYwHO_KRY-142" value="0.. n" style="text;html=1;align=center;verticalAlign=middle;whiteSpace=wrap;rounded=0;" vertex="1" parent="NW10qsWNtvqKA9GrzfMX-140">
          <mxGeometry x="530" y="21.139999999999986" width="60" height="30" as="geometry" />
        </mxCell>
        <mxCell id="NW10qsWNtvqKA9GrzfMX-87" value="" style="group" parent="NW10qsWNtvqKA9GrzfMX-202" vertex="1" connectable="0">
          <mxGeometry x="2770" y="710" width="730" height="230" as="geometry" />
        </mxCell>
        <mxCell id="NW10qsWNtvqKA9GrzfMX-63" value="kitchen" style="shape=folder;fontStyle=1;spacingTop=-5;tabWidth=50;tabHeight=22;tabPosition=left;html=1;whiteSpace=wrap;align=left;verticalAlign=top;" parent="NW10qsWNtvqKA9GrzfMX-87" vertex="1">
          <mxGeometry width="730" height="230" as="geometry" />
        </mxCell>
        <mxCell id="NW10qsWNtvqKA9GrzfMX-71" value="&lt;div&gt;«record»&lt;/div&gt;&lt;div&gt;Kitchen&lt;br&gt;&lt;/div&gt;" style="swimlane;fontStyle=1;align=center;verticalAlign=top;childLayout=stackLayout;horizontal=1;startSize=39;horizontalStack=0;resizeParent=1;resizeParentMax=0;resizeLast=0;collapsible=1;marginBottom=0;whiteSpace=wrap;html=1;" parent="NW10qsWNtvqKA9GrzfMX-87" vertex="1">
          <mxGeometry x="22.10526315789474" y="44" width="276.3157894736842" height="172.1" as="geometry" />
        </mxCell>
        <mxCell id="NW10qsWNtvqKA9GrzfMX-72" value="&lt;div&gt;- location: Location {read only}&lt;br&gt;&lt;/div&gt;&lt;div&gt;- story: int {read only}&lt;br&gt;&lt;/div&gt;" style="text;strokeColor=none;fillColor=none;align=left;verticalAlign=top;spacingLeft=4;spacingRight=4;overflow=hidden;rotatable=0;points=[[0,0.5],[1,0.5]];portConstraint=eastwest;whiteSpace=wrap;html=1;" parent="NW10qsWNtvqKA9GrzfMX-71" vertex="1">
          <mxGeometry y="39" width="276.3157894736842" height="45.1" as="geometry" />
        </mxCell>
        <mxCell id="NW10qsWNtvqKA9GrzfMX-73" value="" style="line;strokeWidth=1;fillColor=none;align=left;verticalAlign=middle;spacingTop=-1;spacingLeft=3;spacingRight=3;rotatable=0;labelPosition=right;points=[];portConstraint=eastwest;strokeColor=inherit;" parent="NW10qsWNtvqKA9GrzfMX-71" vertex="1">
          <mxGeometry y="84.1" width="276.3157894736842" height="8.8" as="geometry" />
        </mxCell>
        <mxCell id="NW10qsWNtvqKA9GrzfMX-74" value="&lt;div&gt;+ Kitchen(Location, int)&lt;br&gt;&lt;/div&gt;&lt;div&gt;+ asOutputString(): String&lt;/div&gt;&lt;div&gt;+ compareTo(Kitchen): double&lt;br&gt;&lt;/div&gt;&lt;div&gt;+ equals(Object): boolean&lt;br&gt;&lt;/div&gt;" style="text;strokeColor=none;fillColor=none;align=left;verticalAlign=top;spacingLeft=4;spacingRight=4;overflow=hidden;rotatable=0;points=[[0,0.5],[1,0.5]];portConstraint=eastwest;whiteSpace=wrap;html=1;" parent="NW10qsWNtvqKA9GrzfMX-71" vertex="1">
          <mxGeometry y="92.89999999999999" width="276.3157894736842" height="79.2" as="geometry" />
        </mxCell>
        <mxCell id="NW10qsWNtvqKA9GrzfMX-83" value="«enum»&lt;br&gt;KitchenAvalability" style="swimlane;fontStyle=1;align=center;verticalAlign=top;childLayout=stackLayout;horizontal=1;startSize=40;horizontalStack=0;resizeParent=1;resizeParentMax=0;resizeLast=0;collapsible=1;marginBottom=0;whiteSpace=wrap;html=1;" parent="NW10qsWNtvqKA9GrzfMX-87" vertex="1">
          <mxGeometry x="331.58" y="44" width="328.42" height="160" as="geometry" />
        </mxCell>
        <mxCell id="NW10qsWNtvqKA9GrzfMX-84" value="&lt;div&gt;YES,&lt;/div&gt;&lt;div&gt;MAYBE,&lt;/div&gt;&lt;div&gt;NO&lt;br&gt;&lt;/div&gt;" style="text;strokeColor=none;fillColor=none;align=left;verticalAlign=top;spacingLeft=4;spacingRight=4;overflow=hidden;rotatable=0;points=[[0,0.5],[1,0.5]];portConstraint=eastwest;whiteSpace=wrap;html=1;" parent="NW10qsWNtvqKA9GrzfMX-83" vertex="1">
          <mxGeometry y="40" width="328.42" height="55.00000000000001" as="geometry" />
        </mxCell>
        <mxCell id="NW10qsWNtvqKA9GrzfMX-85" value="" style="line;strokeWidth=1;fillColor=none;align=left;verticalAlign=middle;spacingTop=-1;spacingLeft=3;spacingRight=3;rotatable=0;labelPosition=right;points=[];portConstraint=eastwest;strokeColor=inherit;" parent="NW10qsWNtvqKA9GrzfMX-83" vertex="1">
          <mxGeometry y="95" width="328.42" height="8.8" as="geometry" />
        </mxCell>
        <mxCell id="NW10qsWNtvqKA9GrzfMX-86" value="&lt;div&gt;&lt;u&gt;+ getAvailability(String): KitchenAvailability&lt;/u&gt;&lt;br&gt;&lt;/div&gt;&lt;div&gt;+ toString(): String&lt;/div&gt;&lt;div&gt;+ asObservable():ObservableValue&amp;lt;String&amp;gt;&lt;br&gt;&lt;/div&gt;" style="text;strokeColor=none;fillColor=none;align=left;verticalAlign=top;spacingLeft=4;spacingRight=4;overflow=hidden;rotatable=0;points=[[0,0.5],[1,0.5]];portConstraint=eastwest;whiteSpace=wrap;html=1;" parent="NW10qsWNtvqKA9GrzfMX-83" vertex="1">
          <mxGeometry y="103.8" width="328.42" height="56.2" as="geometry" />
        </mxCell>
        <mxCell id="9cCDUhdidDNCYwHO_KRY-82" value="1" style="text;html=1;align=center;verticalAlign=middle;whiteSpace=wrap;rounded=0;" vertex="1" parent="NW10qsWNtvqKA9GrzfMX-87">
          <mxGeometry x="486.3157894736843" y="21" width="66.31578947368422" height="30" as="geometry" />
        </mxCell>
        <mxCell id="NW10qsWNtvqKA9GrzfMX-154" value="" style="group" parent="NW10qsWNtvqKA9GrzfMX-202" vertex="1" connectable="0">
          <mxGeometry x="2770" y="80" width="1020" height="574" as="geometry" />
        </mxCell>
        <mxCell id="NW10qsWNtvqKA9GrzfMX-66" value="person" style="shape=folder;fontStyle=1;spacingTop=-5;tabWidth=50;tabHeight=20;tabPosition=left;html=1;whiteSpace=wrap;align=left;verticalAlign=top;" parent="NW10qsWNtvqKA9GrzfMX-154" vertex="1">
          <mxGeometry width="1020" height="574" as="geometry" />
        </mxCell>
        <mxCell id="NW10qsWNtvqKA9GrzfMX-92" value="&lt;div&gt;«enum»&lt;/div&gt;&lt;div&gt;FoodType&lt;br&gt;&lt;/div&gt;" style="swimlane;fontStyle=1;align=center;verticalAlign=top;childLayout=stackLayout;horizontal=1;startSize=36;horizontalStack=0;resizeParent=1;resizeParentMax=0;resizeLast=0;collapsible=1;marginBottom=0;whiteSpace=wrap;html=1;" parent="NW10qsWNtvqKA9GrzfMX-154" vertex="1">
          <mxGeometry x="730" y="336" width="274.62" height="190" as="geometry" />
        </mxCell>
        <mxCell id="NW10qsWNtvqKA9GrzfMX-93" value="&lt;div&gt;MEAT,&lt;/div&gt;&lt;div&gt;NONE,&lt;/div&gt;&lt;div&gt;VEGGIE,&lt;/div&gt;&lt;div&gt;VEGAN&lt;br&gt;&lt;/div&gt;" style="text;strokeColor=none;fillColor=none;align=left;verticalAlign=top;spacingLeft=4;spacingRight=4;overflow=hidden;rotatable=0;points=[[0,0.5],[1,0.5]];portConstraint=eastwest;whiteSpace=wrap;html=1;" parent="NW10qsWNtvqKA9GrzfMX-92" vertex="1">
          <mxGeometry y="36" width="274.62" height="64" as="geometry" />
        </mxCell>
        <mxCell id="NW10qsWNtvqKA9GrzfMX-94" value="" style="line;strokeWidth=1;fillColor=none;align=left;verticalAlign=middle;spacingTop=-1;spacingLeft=3;spacingRight=3;rotatable=0;labelPosition=right;points=[];portConstraint=eastwest;strokeColor=inherit;" parent="NW10qsWNtvqKA9GrzfMX-92" vertex="1">
          <mxGeometry y="100" width="274.62" height="8" as="geometry" />
        </mxCell>
        <mxCell id="NW10qsWNtvqKA9GrzfMX-95" value="&lt;div&gt;+ herbiFromValue(int): FoodType&lt;/div&gt;&lt;div&gt;+ toString(): String&lt;/div&gt;&lt;div&gt;+ getValue(): int&lt;/div&gt;&lt;div&gt;+ getOtherName(): String&lt;/div&gt;&lt;div&gt;+ asObservable(): ObservableValue&amp;lt;String&amp;gt;&lt;br&gt;&lt;/div&gt;" style="text;strokeColor=none;fillColor=none;align=left;verticalAlign=top;spacingLeft=4;spacingRight=4;overflow=hidden;rotatable=0;points=[[0,0.5],[1,0.5]];portConstraint=eastwest;whiteSpace=wrap;html=1;" parent="NW10qsWNtvqKA9GrzfMX-92" vertex="1">
          <mxGeometry y="108" width="274.62" height="82" as="geometry" />
        </mxCell>
        <mxCell id="NW10qsWNtvqKA9GrzfMX-96" value="&lt;div&gt;«enum»&lt;/div&gt;&lt;div&gt;Gender&lt;/div&gt;" style="swimlane;fontStyle=1;align=center;verticalAlign=top;childLayout=stackLayout;horizontal=1;startSize=42;horizontalStack=0;resizeParent=1;resizeParentMax=0;resizeLast=0;collapsible=1;marginBottom=0;whiteSpace=wrap;html=1;" parent="NW10qsWNtvqKA9GrzfMX-154" vertex="1">
          <mxGeometry x="394.67336683417085" y="274" width="261.4070351758794" height="140" as="geometry" />
        </mxCell>
        <mxCell id="NW10qsWNtvqKA9GrzfMX-97" value="&lt;div&gt;MALE,&lt;/div&gt;&lt;div&gt;FEMALE,&lt;/div&gt;&lt;div&gt;OTHER&lt;br&gt;&lt;/div&gt;" style="text;strokeColor=none;fillColor=none;align=left;verticalAlign=top;spacingLeft=4;spacingRight=4;overflow=hidden;rotatable=0;points=[[0,0.5],[1,0.5]];portConstraint=eastwest;whiteSpace=wrap;html=1;" parent="NW10qsWNtvqKA9GrzfMX-96" vertex="1">
          <mxGeometry y="42" width="261.4070351758794" height="48" as="geometry" />
        </mxCell>
        <mxCell id="NW10qsWNtvqKA9GrzfMX-98" value="" style="line;strokeWidth=1;fillColor=none;align=left;verticalAlign=middle;spacingTop=-1;spacingLeft=3;spacingRight=3;rotatable=0;labelPosition=right;points=[];portConstraint=eastwest;strokeColor=inherit;" parent="NW10qsWNtvqKA9GrzfMX-96" vertex="1">
          <mxGeometry y="90" width="261.4070351758794" height="8" as="geometry" />
        </mxCell>
        <mxCell id="NW10qsWNtvqKA9GrzfMX-99" value="&lt;div&gt;+ toString(): String&lt;/div&gt;&lt;div&gt;+ asObservable(): ObservableValue&amp;lt;String&amp;gt;&lt;br&gt;&lt;/div&gt;" style="text;strokeColor=none;fillColor=none;align=left;verticalAlign=top;spacingLeft=4;spacingRight=4;overflow=hidden;rotatable=0;points=[[0,0.5],[1,0.5]];portConstraint=eastwest;whiteSpace=wrap;html=1;" parent="NW10qsWNtvqKA9GrzfMX-96" vertex="1">
          <mxGeometry y="98" width="261.4070351758794" height="42" as="geometry" />
        </mxCell>
        <mxCell id="NW10qsWNtvqKA9GrzfMX-100" value="&lt;div&gt;«record»&lt;/div&gt;&lt;div&gt;Name&lt;br&gt;&lt;/div&gt;" style="swimlane;fontStyle=1;align=center;verticalAlign=top;childLayout=stackLayout;horizontal=1;startSize=39;horizontalStack=0;resizeParent=1;resizeParentMax=0;resizeLast=0;collapsible=1;marginBottom=0;whiteSpace=wrap;html=1;" parent="NW10qsWNtvqKA9GrzfMX-154" vertex="1">
          <mxGeometry x="394.67336683417085" y="56" width="307.53768844221105" height="190" as="geometry" />
        </mxCell>
        <mxCell id="NW10qsWNtvqKA9GrzfMX-101" value="&lt;div&gt;- firstName: String {read only}&lt;br&gt;&lt;/div&gt;&lt;div&gt;- lastName: String {read only}&lt;br&gt;&lt;/div&gt;" style="text;strokeColor=none;fillColor=none;align=left;verticalAlign=top;spacingLeft=4;spacingRight=4;overflow=hidden;rotatable=0;points=[[0,0.5],[1,0.5]];portConstraint=eastwest;whiteSpace=wrap;html=1;" parent="NW10qsWNtvqKA9GrzfMX-100" vertex="1">
          <mxGeometry y="39" width="307.53768844221105" height="41" as="geometry" />
        </mxCell>
        <mxCell id="NW10qsWNtvqKA9GrzfMX-102" value="" style="line;strokeWidth=1;fillColor=none;align=left;verticalAlign=middle;spacingTop=-1;spacingLeft=3;spacingRight=3;rotatable=0;labelPosition=right;points=[];portConstraint=eastwest;strokeColor=inherit;" parent="NW10qsWNtvqKA9GrzfMX-100" vertex="1">
          <mxGeometry y="80" width="307.53768844221105" height="8" as="geometry" />
        </mxCell>
        <mxCell id="NW10qsWNtvqKA9GrzfMX-103" value="&lt;div&gt;+ Name(String, String)&lt;br&gt;&lt;/div&gt;&lt;div&gt;+ equals(Object): boolean&lt;/div&gt;&lt;div&gt;+ hashCode(): int&lt;/div&gt;&lt;div&gt;+ toString(): String&lt;/div&gt;&lt;div&gt;+ asOutputString(): String&lt;/div&gt;&lt;div&gt;+ asObservable(): ObservableValue&amp;lt;String&amp;gt;&lt;br&gt;&lt;/div&gt;" style="text;strokeColor=none;fillColor=none;align=left;verticalAlign=top;spacingLeft=4;spacingRight=4;overflow=hidden;rotatable=0;points=[[0,0.5],[1,0.5]];portConstraint=eastwest;whiteSpace=wrap;html=1;" parent="NW10qsWNtvqKA9GrzfMX-100" vertex="1">
          <mxGeometry y="88" width="307.53768844221105" height="102" as="geometry" />
        </mxCell>
        <mxCell id="NW10qsWNtvqKA9GrzfMX-104" value="Participant" style="swimlane;fontStyle=1;align=center;verticalAlign=top;childLayout=stackLayout;horizontal=1;startSize=26;horizontalStack=0;resizeParent=1;resizeParentMax=0;resizeLast=0;collapsible=1;marginBottom=0;whiteSpace=wrap;html=1;" parent="NW10qsWNtvqKA9GrzfMX-154" vertex="1">
          <mxGeometry x="41.00502512562814" y="50" width="317.7889447236181" height="520" as="geometry" />
        </mxCell>
        <mxCell id="NW10qsWNtvqKA9GrzfMX-105" value="&lt;div&gt;- id: String {read only}&lt;/div&gt;&lt;div&gt;- name: Name {read only}&lt;/div&gt;&lt;div&gt;- foodType: FoodType {read only}&lt;/div&gt;&lt;div&gt;- age: byte {read only}&lt;/div&gt;&lt;div&gt;- ageRange: AgeRange {read only}&lt;/div&gt;&lt;div&gt;- gender: Gender {read only}&lt;/div&gt;&lt;div&gt;- hasKitchen: KitchenAvailability&lt;/div&gt;&lt;div&gt;- kitchen: Kitchen&lt;/div&gt;&lt;div&gt;- pair: Pair&lt;/div&gt;&lt;div&gt;- groups: Group[]&lt;br&gt;&lt;/div&gt;" style="text;strokeColor=none;fillColor=none;align=left;verticalAlign=top;spacingLeft=4;spacingRight=4;overflow=hidden;rotatable=0;points=[[0,0.5],[1,0.5]];portConstraint=eastwest;whiteSpace=wrap;html=1;" parent="NW10qsWNtvqKA9GrzfMX-104" vertex="1">
          <mxGeometry y="26" width="317.7889447236181" height="154" as="geometry" />
        </mxCell>
        <mxCell id="9cCDUhdidDNCYwHO_KRY-86" value="is in" style="endArrow=open;html=1;endSize=12;startArrow=diamondThin;startSize=14;startFill=0;edgeStyle=orthogonalEdgeStyle;rounded=0;entryX=1;entryY=0.5;entryDx=0;entryDy=0;" edge="1" parent="NW10qsWNtvqKA9GrzfMX-104" target="NW10qsWNtvqKA9GrzfMX-137">
          <mxGeometry relative="1" as="geometry">
            <mxPoint y="140" as="sourcePoint" />
            <mxPoint x="164.02010050251255" y="140" as="targetPoint" />
          </mxGeometry>
        </mxCell>
        <mxCell id="9cCDUhdidDNCYwHO_KRY-87" value="6" style="edgeLabel;resizable=0;html=1;align=left;verticalAlign=top;" connectable="0" vertex="1" parent="9cCDUhdidDNCYwHO_KRY-86">
          <mxGeometry x="-1" relative="1" as="geometry">
            <mxPoint x="-30" as="offset" />
          </mxGeometry>
        </mxCell>
        <mxCell id="9cCDUhdidDNCYwHO_KRY-88" value="1" style="edgeLabel;resizable=0;html=1;align=right;verticalAlign=top;" connectable="0" vertex="1" parent="9cCDUhdidDNCYwHO_KRY-86">
          <mxGeometry x="1" relative="1" as="geometry">
            <mxPoint x="15" y="5" as="offset" />
          </mxGeometry>
        </mxCell>
        <mxCell id="NW10qsWNtvqKA9GrzfMX-106" value="" style="line;strokeWidth=1;fillColor=none;align=left;verticalAlign=middle;spacingTop=-1;spacingLeft=3;spacingRight=3;rotatable=0;labelPosition=right;points=[];portConstraint=eastwest;strokeColor=inherit;" parent="NW10qsWNtvqKA9GrzfMX-104" vertex="1">
          <mxGeometry y="180" width="317.7889447236181" height="8" as="geometry" />
        </mxCell>
        <mxCell id="NW10qsWNtvqKA9GrzfMX-107" value="&lt;div&gt;+ Participant(String, Name, FoodType, byte, Gender, KitchenAvailability, int, double, double)&lt;/div&gt;&lt;div&gt;+ Participant(String, Name, FoodType, byte, Gender)&lt;/div&gt;&lt;div&gt;+Participant(String, Name, FoodType, byte, Gender)&lt;br&gt;&lt;/div&gt;&lt;div&gt;+ hashCode(): int&lt;/div&gt;&lt;div&gt;+ equals(Object): boolean&lt;/div&gt;&lt;div&gt;+ toString(): String&lt;/div&gt;&lt;div&gt;- compareTo(Participant): double&lt;/div&gt;&lt;div&gt;+ getAge(): byte&lt;/div&gt;&lt;div&gt;+ getAgeRange(): AgeRange&lt;/div&gt;&lt;div&gt;+ getId(): String&lt;/div&gt;&lt;div&gt;+ getIdAsObservable(): ObservableValue&amp;lt;String&amp;gt;&lt;br&gt;&lt;/div&gt;&lt;div&gt;+ getName(): Name&lt;/div&gt;&lt;div&gt;+ getFoodType(): FoodType&lt;/div&gt;&lt;div&gt;+ getGender(): Gender&lt;/div&gt;&lt;div&gt;+ isHasKitchen(): KitchenAvailability&lt;/div&gt;&lt;div&gt;+ getKitchen(): Kitchen&lt;/div&gt;&lt;div&gt;+ getPair(): Pair&lt;/div&gt;&lt;div&gt;+ setPair(Pair): void&lt;/div&gt;&lt;div&gt;+ setGroups(Group[]): void&lt;/div&gt;&lt;div&gt;+ setNoKitchen(): void&lt;/div&gt;&lt;div&gt;+ clearPair(): void&lt;br&gt;&lt;/div&gt;" style="text;strokeColor=none;fillColor=none;align=left;verticalAlign=top;spacingLeft=4;spacingRight=4;overflow=hidden;rotatable=0;points=[[0,0.5],[1,0.5]];portConstraint=eastwest;whiteSpace=wrap;html=1;" parent="NW10qsWNtvqKA9GrzfMX-104" vertex="1">
          <mxGeometry y="188" width="317.7889447236181" height="332" as="geometry" />
        </mxCell>
        <mxCell id="9cCDUhdidDNCYwHO_KRY-117" value="has" style="endArrow=open;html=1;endSize=12;startArrow=diamondThin;startSize=14;startFill=0;edgeStyle=orthogonalEdgeStyle;rounded=0;entryX=0.5;entryY=0;entryDx=0;entryDy=0;" edge="1" parent="NW10qsWNtvqKA9GrzfMX-104" target="NW10qsWNtvqKA9GrzfMX-71">
          <mxGeometry relative="1" as="geometry">
            <mxPoint x="124.04020100502512" y="520" as="sourcePoint" />
            <mxPoint x="287.035175879397" y="510" as="targetPoint" />
          </mxGeometry>
        </mxCell>
        <mxCell id="9cCDUhdidDNCYwHO_KRY-118" value="1..n" style="edgeLabel;resizable=0;html=1;align=left;verticalAlign=top;" connectable="0" vertex="1" parent="9cCDUhdidDNCYwHO_KRY-117">
          <mxGeometry x="-1" relative="1" as="geometry">
            <mxPoint x="5" y="10" as="offset" />
          </mxGeometry>
        </mxCell>
        <mxCell id="9cCDUhdidDNCYwHO_KRY-119" value="1" style="edgeLabel;resizable=0;html=1;align=right;verticalAlign=top;" connectable="0" vertex="1" parent="9cCDUhdidDNCYwHO_KRY-117">
          <mxGeometry x="1" relative="1" as="geometry">
            <mxPoint x="21" y="-24" as="offset" />
          </mxGeometry>
        </mxCell>
        <mxCell id="NW10qsWNtvqKA9GrzfMX-88" value="&lt;div&gt;«enum»&lt;/div&gt;&lt;div&gt;AgeRange&lt;/div&gt;" style="swimlane;fontStyle=1;align=center;verticalAlign=top;childLayout=stackLayout;horizontal=1;startSize=38;horizontalStack=0;resizeParent=1;resizeParentMax=0;resizeLast=0;collapsible=1;marginBottom=0;whiteSpace=wrap;html=1;" parent="NW10qsWNtvqKA9GrzfMX-154" vertex="1">
          <mxGeometry x="743.21608040201" y="56" width="261.4070351758794" height="240" as="geometry" />
        </mxCell>
        <mxCell id="NW10qsWNtvqKA9GrzfMX-89" value="&lt;div&gt;ZERO,&lt;/div&gt;&lt;div&gt;ONE,&lt;/div&gt;&lt;div&gt;TWO,&lt;/div&gt;&lt;div&gt;THREE,&lt;/div&gt;&lt;div&gt;FOUR,&lt;/div&gt;&lt;div&gt;FIVE,&lt;/div&gt;&lt;div&gt;SIX,&lt;/div&gt;&lt;div&gt;SEVEN,&lt;br&gt;&lt;/div&gt;&lt;div&gt;EIGHT&lt;br&gt;&lt;/div&gt;" style="text;strokeColor=none;fillColor=none;align=left;verticalAlign=top;spacingLeft=4;spacingRight=4;overflow=hidden;rotatable=0;points=[[0,0.5],[1,0.5]];portConstraint=eastwest;whiteSpace=wrap;html=1;" parent="NW10qsWNtvqKA9GrzfMX-88" vertex="1">
          <mxGeometry y="38" width="261.4070351758794" height="142" as="geometry" />
        </mxCell>
        <mxCell id="NW10qsWNtvqKA9GrzfMX-90" value="" style="line;strokeWidth=1;fillColor=none;align=left;verticalAlign=middle;spacingTop=-1;spacingLeft=3;spacingRight=3;rotatable=0;labelPosition=right;points=[];portConstraint=eastwest;strokeColor=inherit;" parent="NW10qsWNtvqKA9GrzfMX-88" vertex="1">
          <mxGeometry y="180" width="261.4070351758794" height="8" as="geometry" />
        </mxCell>
        <mxCell id="NW10qsWNtvqKA9GrzfMX-91" value="&lt;div&gt;&lt;u&gt;+ getAgeRange(int): AgeRange&lt;/u&gt;&lt;/div&gt;&lt;div&gt;+ getAgeDifference(AgeRange): int&lt;br&gt;&lt;/div&gt;&lt;div&gt;+ toString(): String&lt;br&gt;&lt;/div&gt;" style="text;strokeColor=none;fillColor=none;align=left;verticalAlign=top;spacingLeft=4;spacingRight=4;overflow=hidden;rotatable=0;points=[[0,0.5],[1,0.5]];portConstraint=eastwest;whiteSpace=wrap;html=1;" parent="NW10qsWNtvqKA9GrzfMX-88" vertex="1">
          <mxGeometry y="188" width="261.4070351758794" height="52" as="geometry" />
        </mxCell>
        <mxCell id="9cCDUhdidDNCYwHO_KRY-90" value="is in" style="endArrow=open;html=1;endSize=12;startArrow=diamondThin;startSize=14;startFill=0;edgeStyle=orthogonalEdgeStyle;rounded=0;entryX=0.5;entryY=0;entryDx=0;entryDy=0;" edge="1" parent="NW10qsWNtvqKA9GrzfMX-154">
          <mxGeometry relative="1" as="geometry">
            <mxPoint x="41.00502512562814" y="91" as="sourcePoint" />
            <mxPoint x="-1038.964824120603" y="161.1363636363635" as="targetPoint" />
          </mxGeometry>
        </mxCell>
        <mxCell id="9cCDUhdidDNCYwHO_KRY-91" value="2" style="edgeLabel;resizable=0;html=1;align=left;verticalAlign=top;" connectable="0" vertex="1" parent="9cCDUhdidDNCYwHO_KRY-90">
          <mxGeometry x="-1" relative="1" as="geometry">
            <mxPoint x="-20" y="-1" as="offset" />
          </mxGeometry>
        </mxCell>
        <mxCell id="9cCDUhdidDNCYwHO_KRY-92" value="1" style="edgeLabel;resizable=0;html=1;align=right;verticalAlign=top;" connectable="0" vertex="1" parent="9cCDUhdidDNCYwHO_KRY-90">
          <mxGeometry x="1" relative="1" as="geometry">
            <mxPoint x="24" y="-71" as="offset" />
          </mxGeometry>
        </mxCell>
        <mxCell id="9cCDUhdidDNCYwHO_KRY-113" value="has" style="endArrow=open;html=1;endSize=12;startArrow=diamondThin;startSize=14;startFill=0;edgeStyle=orthogonalEdgeStyle;rounded=0;exitX=0.998;exitY=0.659;exitDx=0;exitDy=0;exitPerimeter=0;entryX=0;entryY=0.5;entryDx=0;entryDy=0;" edge="1" parent="NW10qsWNtvqKA9GrzfMX-154" source="NW10qsWNtvqKA9GrzfMX-107" target="NW10qsWNtvqKA9GrzfMX-101">
          <mxGeometry relative="1" as="geometry">
            <mxPoint x="348.5427135678392" y="450" as="sourcePoint" />
            <mxPoint x="512.5628140703518" y="450" as="targetPoint" />
          </mxGeometry>
        </mxCell>
        <mxCell id="9cCDUhdidDNCYwHO_KRY-114" value="1" style="edgeLabel;resizable=0;html=1;align=left;verticalAlign=top;" connectable="0" vertex="1" parent="9cCDUhdidDNCYwHO_KRY-113">
          <mxGeometry x="-1" relative="1" as="geometry" />
        </mxCell>
        <mxCell id="9cCDUhdidDNCYwHO_KRY-115" value="1" style="edgeLabel;resizable=0;html=1;align=right;verticalAlign=top;" connectable="0" vertex="1" parent="9cCDUhdidDNCYwHO_KRY-113">
          <mxGeometry x="1" relative="1" as="geometry" />
        </mxCell>
        <mxCell id="9cCDUhdidDNCYwHO_KRY-122" value="1" style="endArrow=open;html=1;endSize=12;startArrow=diamondThin;startSize=14;startFill=1;edgeStyle=orthogonalEdgeStyle;align=left;verticalAlign=bottom;rounded=0;entryX=0.59;entryY=0.96;entryDx=0;entryDy=0;entryPerimeter=0;" edge="1" parent="NW10qsWNtvqKA9GrzfMX-154" source="NW10qsWNtvqKA9GrzfMX-107" target="NW10qsWNtvqKA9GrzfMX-99">
          <mxGeometry x="-0.8588" relative="1" as="geometry">
            <mxPoint x="379.2964824120603" y="510" as="sourcePoint" />
            <mxPoint x="512.5628140703518" y="510" as="targetPoint" />
            <Array as="points">
              <mxPoint x="548.4422110552764" y="510" />
            </Array>
            <mxPoint as="offset" />
          </mxGeometry>
        </mxCell>
        <mxCell id="9cCDUhdidDNCYwHO_KRY-124" value="" style="endArrow=open;endFill=1;endSize=12;html=1;rounded=0;entryX=0;entryY=0.5;entryDx=0;entryDy=0;" edge="1" parent="NW10qsWNtvqKA9GrzfMX-154" target="NW10qsWNtvqKA9GrzfMX-93">
          <mxGeometry width="160" relative="1" as="geometry">
            <mxPoint x="543.3165829145729" y="510" as="sourcePoint" />
            <mxPoint x="707.3366834170854" y="510" as="targetPoint" />
            <Array as="points">
              <mxPoint x="697.0854271356784" y="510" />
              <mxPoint x="697.0854271356784" y="460" />
              <mxPoint x="697.0854271356784" y="404" />
            </Array>
          </mxGeometry>
        </mxCell>
        <mxCell id="9cCDUhdidDNCYwHO_KRY-126" value="" style="endArrow=open;endFill=1;endSize=12;html=1;rounded=0;entryX=0.493;entryY=1.021;entryDx=0;entryDy=0;entryPerimeter=0;" edge="1" parent="NW10qsWNtvqKA9GrzfMX-154" target="NW10qsWNtvqKA9GrzfMX-91">
          <mxGeometry width="160" relative="1" as="geometry">
            <mxPoint x="697.0854271356784" y="410" as="sourcePoint" />
            <mxPoint x="871.356783919598" y="320" as="targetPoint" />
            <Array as="points">
              <mxPoint x="697.0854271356784" y="320" />
              <mxPoint x="727.8391959798995" y="320" />
              <mxPoint x="871.356783919598" y="320" />
            </Array>
          </mxGeometry>
        </mxCell>
        <mxCell id="NW10qsWNtvqKA9GrzfMX-120" value="" style="group" parent="NW10qsWNtvqKA9GrzfMX-202" vertex="1" connectable="0">
          <mxGeometry x="2770" y="1020" width="660" height="366.4516129032258" as="geometry" />
        </mxCell>
        <mxCell id="NW10qsWNtvqKA9GrzfMX-64" value="processing" style="shape=folder;fontStyle=1;spacingTop=-5;tabWidth=70;tabHeight=20;tabPosition=left;html=1;whiteSpace=wrap;align=left;verticalAlign=top;" parent="NW10qsWNtvqKA9GrzfMX-120" vertex="1">
          <mxGeometry width="660" height="360" as="geometry" />
        </mxCell>
        <mxCell id="NW10qsWNtvqKA9GrzfMX-110" value="states" style="shape=folder;fontStyle=1;spacingTop=-5;tabWidth=40;tabHeight=19;tabPosition=left;html=1;whiteSpace=wrap;align=left;verticalAlign=top;" parent="NW10qsWNtvqKA9GrzfMX-120" vertex="1">
          <mxGeometry x="20" y="30.00161290322585" width="280" height="320" as="geometry" />
        </mxCell>
        <mxCell id="NW10qsWNtvqKA9GrzfMX-116" value="CancellationHandler" style="swimlane;fontStyle=1;align=center;verticalAlign=top;childLayout=stackLayout;horizontal=1;startSize=26;horizontalStack=0;resizeParent=1;resizeParentMax=0;resizeLast=0;collapsible=1;marginBottom=0;whiteSpace=wrap;html=1;" parent="NW10qsWNtvqKA9GrzfMX-120" vertex="1">
          <mxGeometry x="330" y="69.67741935483872" width="300" height="228.06451612903226" as="geometry" />
        </mxCell>
        <mxCell id="NW10qsWNtvqKA9GrzfMX-117" value="&lt;div&gt;- pairList: PairList {read only}&lt;/div&gt;&lt;div&gt;- groupList: GroupList {read only}&lt;/div&gt;&lt;div&gt;- participantSuccessors: List&amp;lt;Participant&amp;gt; {read only}&lt;br&gt;&lt;/div&gt;" style="text;strokeColor=none;fillColor=none;align=left;verticalAlign=top;spacingLeft=4;spacingRight=4;overflow=hidden;rotatable=0;points=[[0,0.5],[1,0.5]];portConstraint=eastwest;whiteSpace=wrap;html=1;" parent="NW10qsWNtvqKA9GrzfMX-116" vertex="1">
          <mxGeometry y="26" width="300" height="62.70967741935484" as="geometry" />
        </mxCell>
        <mxCell id="NW10qsWNtvqKA9GrzfMX-118" value="" style="line;strokeWidth=1;fillColor=none;align=left;verticalAlign=middle;spacingTop=-1;spacingLeft=3;spacingRight=3;rotatable=0;labelPosition=right;points=[];portConstraint=eastwest;strokeColor=inherit;" parent="NW10qsWNtvqKA9GrzfMX-116" vertex="1">
          <mxGeometry y="88.70967741935485" width="300" height="9.290322580645162" as="geometry" />
        </mxCell>
        <mxCell id="NW10qsWNtvqKA9GrzfMX-119" value="&lt;div&gt;+ CancellationHandler(PairList, GroupList)&lt;br&gt;&lt;/div&gt;&lt;div&gt;+ handleCancellation(List&amp;lt;Participant&amp;gt;): void&lt;/div&gt;&lt;div&gt;- handelFullPairCancellation(Pair): void&lt;/div&gt;&lt;div&gt;- handlePartialPairCancellatio(Pair, Participant): void&lt;/div&gt;&lt;div&gt;- handleSingleCancellation(Participant): void&lt;/div&gt;&lt;div&gt;+ pairSuccessorParticipants(): void&lt;/div&gt;&lt;div&gt;+ updateGroups(): void&lt;br&gt;&lt;/div&gt;" style="text;strokeColor=none;fillColor=none;align=left;verticalAlign=top;spacingLeft=4;spacingRight=4;overflow=hidden;rotatable=0;points=[[0,0.5],[1,0.5]];portConstraint=eastwest;whiteSpace=wrap;html=1;" parent="NW10qsWNtvqKA9GrzfMX-116" vertex="1">
          <mxGeometry y="98.00000000000001" width="300" height="130.06451612903226" as="geometry" />
        </mxCell>
        <mxCell id="NW10qsWNtvqKA9GrzfMX-115" value="" style="group" parent="NW10qsWNtvqKA9GrzfMX-120" vertex="1" connectable="0">
          <mxGeometry x="20" y="30.00161290322581" width="280" height="320" as="geometry" />
        </mxCell>
        <mxCell id="NW10qsWNtvqKA9GrzfMX-111" value="State" style="swimlane;fontStyle=1;align=center;verticalAlign=top;childLayout=stackLayout;horizontal=1;startSize=26;horizontalStack=0;resizeParent=1;resizeParentMax=0;resizeLast=0;collapsible=1;marginBottom=0;whiteSpace=wrap;html=1;" parent="NW10qsWNtvqKA9GrzfMX-115" vertex="1">
          <mxGeometry x="20" y="45.29032258064517" width="240" height="251.29032258064518" as="geometry" />
        </mxCell>
        <mxCell id="NW10qsWNtvqKA9GrzfMX-112" value="&lt;div&gt;- prev: State&lt;/div&gt;&lt;div&gt;- pairList: PairList&lt;/div&gt;&lt;div&gt;- groupList: GroupList&lt;br&gt;&lt;/div&gt;&lt;div&gt;&lt;u&gt;- mainState: State&lt;/u&gt;&lt;br&gt;&lt;/div&gt;" style="text;strokeColor=none;fillColor=none;align=left;verticalAlign=top;spacingLeft=4;spacingRight=4;overflow=hidden;rotatable=0;points=[[0,0.5],[1,0.5]];portConstraint=eastwest;whiteSpace=wrap;html=1;" parent="NW10qsWNtvqKA9GrzfMX-111" vertex="1">
          <mxGeometry y="26" width="240" height="74.3225806451613" as="geometry" />
        </mxCell>
        <mxCell id="NW10qsWNtvqKA9GrzfMX-113" value="" style="line;strokeWidth=1;fillColor=none;align=left;verticalAlign=middle;spacingTop=-1;spacingLeft=3;spacingRight=3;rotatable=0;labelPosition=right;points=[];portConstraint=eastwest;strokeColor=inherit;" parent="NW10qsWNtvqKA9GrzfMX-111" vertex="1">
          <mxGeometry y="100.3225806451613" width="240" height="9.290322580645162" as="geometry" />
        </mxCell>
        <mxCell id="NW10qsWNtvqKA9GrzfMX-114" value="&lt;div&gt;- State()&lt;/div&gt;&lt;div&gt;- State(State)&lt;br&gt;&lt;/div&gt;&lt;div&gt;&lt;u&gt;+ getInstance(): State&lt;/u&gt;&lt;/div&gt;&lt;div&gt;+ updateState(PairList, GroupList): void&lt;br&gt;&lt;/div&gt;&lt;div&gt;+ revertState(): State&lt;/div&gt;&lt;div&gt;+ getPairList(): PairList&lt;/div&gt;&lt;div&gt;+ getGroupList(): GroupList&lt;/div&gt;&lt;div&gt;+ getPrev(): State&lt;br&gt;&lt;/div&gt;" style="text;strokeColor=none;fillColor=none;align=left;verticalAlign=top;spacingLeft=4;spacingRight=4;overflow=hidden;rotatable=0;points=[[0,0.5],[1,0.5]];portConstraint=eastwest;whiteSpace=wrap;html=1;" parent="NW10qsWNtvqKA9GrzfMX-111" vertex="1">
          <mxGeometry y="109.61290322580646" width="240" height="141.67741935483872" as="geometry" />
        </mxCell>
        <mxCell id="9cCDUhdidDNCYwHO_KRY-45" value="Use" style="endArrow=open;endSize=12;dashed=1;html=1;rounded=0;exitX=0.931;exitY=0.013;exitDx=0;exitDy=0;exitPerimeter=0;entryX=0;entryY=0;entryDx=0;entryDy=20;entryPerimeter=0;" edge="1" parent="NW10qsWNtvqKA9GrzfMX-202" source="NW10qsWNtvqKA9GrzfMX-65" target="NW10qsWNtvqKA9GrzfMX-66">
          <mxGeometry width="160" relative="1" as="geometry">
            <mxPoint x="2660" y="280" as="sourcePoint" />
            <mxPoint x="2820" y="280" as="targetPoint" />
            <Array as="points">
              <mxPoint x="2546" y="100" />
            </Array>
          </mxGeometry>
        </mxCell>
        <mxCell id="9cCDUhdidDNCYwHO_KRY-57" value="Use" style="endArrow=open;endSize=12;dashed=1;html=1;rounded=0;entryX=0;entryY=0;entryDx=2670;entryDy=1386.75;entryPerimeter=0;exitX=0.142;exitY=1.003;exitDx=0;exitDy=0;exitPerimeter=0;" edge="1" parent="NW10qsWNtvqKA9GrzfMX-202" source="NW10qsWNtvqKA9GrzfMX-64" target="NW10qsWNtvqKA9GrzfMX-65">
          <mxGeometry width="160" relative="1" as="geometry">
            <mxPoint x="2770" y="1144" as="sourcePoint" />
            <mxPoint x="2730" y="1150" as="targetPoint" />
            <Array as="points">
              <mxPoint x="2864" y="1487" />
            </Array>
          </mxGeometry>
        </mxCell>
        <mxCell id="9cCDUhdidDNCYwHO_KRY-60" value="Use" style="endArrow=open;endSize=12;dashed=1;html=1;rounded=0;exitX=0;exitY=0;exitDx=660;exitDy=190;exitPerimeter=0;entryX=0.75;entryY=1;entryDx=0;entryDy=0;entryPerimeter=0;" edge="1" parent="NW10qsWNtvqKA9GrzfMX-202" source="NW10qsWNtvqKA9GrzfMX-64" target="NW10qsWNtvqKA9GrzfMX-66">
          <mxGeometry width="160" relative="1" as="geometry">
            <mxPoint x="3420" y="1180" as="sourcePoint" />
            <mxPoint x="3580" y="1180" as="targetPoint" />
            <Array as="points">
              <mxPoint x="3520" y="1210" />
            </Array>
          </mxGeometry>
        </mxCell>
        <mxCell id="9cCDUhdidDNCYwHO_KRY-72" value="1" style="endArrow=open;html=1;endSize=12;startArrow=diamondThin;startSize=14;startFill=1;edgeStyle=orthogonalEdgeStyle;align=left;verticalAlign=bottom;rounded=0;exitX=0.512;exitY=1.062;exitDx=0;exitDy=0;exitPerimeter=0;entryX=1;entryY=0.5;entryDx=0;entryDy=0;" edge="1" parent="NW10qsWNtvqKA9GrzfMX-202" source="NW10qsWNtvqKA9GrzfMX-74" target="NW10qsWNtvqKA9GrzfMX-184">
          <mxGeometry x="-0.9172" y="2" relative="1" as="geometry">
            <mxPoint x="2990" y="970" as="sourcePoint" />
            <mxPoint x="3150" y="970" as="targetPoint" />
            <Array as="points">
              <mxPoint x="2918" y="970" />
              <mxPoint x="2710" y="970" />
              <mxPoint x="2710" y="1259" />
            </Array>
            <mxPoint as="offset" />
          </mxGeometry>
        </mxCell>
        <mxCell id="9cCDUhdidDNCYwHO_KRY-109" value="has" style="edgeLabel;html=1;align=center;verticalAlign=middle;resizable=0;points=[];" vertex="1" connectable="0" parent="9cCDUhdidDNCYwHO_KRY-72">
          <mxGeometry x="0.3133" y="5" relative="1" as="geometry">
            <mxPoint as="offset" />
          </mxGeometry>
        </mxCell>
        <mxCell id="9cCDUhdidDNCYwHO_KRY-76" value="1" style="endArrow=open;html=1;endSize=12;startArrow=diamondThin;startSize=14;startFill=1;edgeStyle=orthogonalEdgeStyle;align=left;verticalAlign=bottom;rounded=0;exitX=0.715;exitY=0.998;exitDx=0;exitDy=0;exitPerimeter=0;entryX=0;entryY=0.5;entryDx=0;entryDy=0;" edge="1" parent="NW10qsWNtvqKA9GrzfMX-202" source="NW10qsWNtvqKA9GrzfMX-131" target="NW10qsWNtvqKA9GrzfMX-72">
          <mxGeometry x="-0.9146" y="11" relative="1" as="geometry">
            <mxPoint x="2170" y="720" as="sourcePoint" />
            <mxPoint x="2330" y="720" as="targetPoint" />
            <mxPoint as="offset" />
          </mxGeometry>
        </mxCell>
        <mxCell id="9cCDUhdidDNCYwHO_KRY-112" value="has" style="edgeLabel;html=1;align=center;verticalAlign=middle;resizable=0;points=[];" vertex="1" connectable="0" parent="9cCDUhdidDNCYwHO_KRY-76">
          <mxGeometry x="0.2072" y="-1" relative="1" as="geometry">
            <mxPoint as="offset" />
          </mxGeometry>
        </mxCell>
        <mxCell id="9cCDUhdidDNCYwHO_KRY-77" value="Use" style="endArrow=open;endSize=12;dashed=1;html=1;rounded=0;entryX=0;entryY=0;entryDx=0;entryDy=22;entryPerimeter=0;exitX=1.003;exitY=0.591;exitDx=0;exitDy=0;exitPerimeter=0;" edge="1" parent="NW10qsWNtvqKA9GrzfMX-202" source="NW10qsWNtvqKA9GrzfMX-121" target="NW10qsWNtvqKA9GrzfMX-63">
          <mxGeometry width="160" relative="1" as="geometry">
            <mxPoint x="2670" y="750" as="sourcePoint" />
            <mxPoint x="2830" y="750" as="targetPoint" />
          </mxGeometry>
        </mxCell>
        <mxCell id="9cCDUhdidDNCYwHO_KRY-80" value="" style="endArrow=open;html=1;endSize=12;startArrow=diamondThin;startSize=14;startFill=1;edgeStyle=orthogonalEdgeStyle;align=left;verticalAlign=bottom;rounded=0;" edge="1" parent="NW10qsWNtvqKA9GrzfMX-202" target="NW10qsWNtvqKA9GrzfMX-83">
          <mxGeometry x="-0.8279" y="10" relative="1" as="geometry">
            <mxPoint x="3070" y="650" as="sourcePoint" />
            <mxPoint x="3220" y="650" as="targetPoint" />
            <mxPoint as="offset" />
          </mxGeometry>
        </mxCell>
        <mxCell id="9cCDUhdidDNCYwHO_KRY-110" value="has" style="edgeLabel;html=1;align=center;verticalAlign=middle;resizable=0;points=[];" vertex="1" connectable="0" parent="9cCDUhdidDNCYwHO_KRY-80">
          <mxGeometry x="-0.0086" y="1" relative="1" as="geometry">
            <mxPoint y="-1" as="offset" />
          </mxGeometry>
        </mxCell>
        <mxCell id="NW10qsWNtvqKA9GrzfMX-149" value="" style="group" parent="NW10qsWNtvqKA9GrzfMX-202" vertex="1" connectable="0">
          <mxGeometry x="1500" y="1181" width="630" height="720" as="geometry" />
        </mxCell>
        <mxCell id="NW10qsWNtvqKA9GrzfMX-122" value="io" style="shape=folder;fontStyle=1;spacingTop=-5;tabWidth=30;tabHeight=20;tabPosition=left;html=1;whiteSpace=wrap;align=left;verticalAlign=top;" parent="NW10qsWNtvqKA9GrzfMX-149" vertex="1">
          <mxGeometry width="630" height="720" as="geometry" />
        </mxCell>
        <mxCell id="NW10qsWNtvqKA9GrzfMX-141" value="InputData" style="swimlane;fontStyle=1;align=center;verticalAlign=top;childLayout=stackLayout;horizontal=1;startSize=26;horizontalStack=0;resizeParent=1;resizeParentMax=0;resizeLast=0;collapsible=1;marginBottom=0;whiteSpace=wrap;html=1;" parent="NW10qsWNtvqKA9GrzfMX-149" vertex="1">
          <mxGeometry x="20" y="40.57142857142857" width="350" height="658.9142857142857" as="geometry" />
        </mxCell>
        <mxCell id="NW10qsWNtvqKA9GrzfMX-142" value="&lt;div&gt;- participantInputData: List&amp;lt;Participant&amp;gt;&lt;/div&gt;&lt;div&gt;- pairInputData: List&amp;lt;Pair&amp;gt;&lt;/div&gt;&lt;div&gt;- participantSuccessorList: List&amp;lt;Participant&amp;gt;&lt;/div&gt;&lt;div&gt;- pairSuccessorList: List&amp;lt;Pair&amp;gt;&lt;/div&gt;&lt;div&gt;- eventLocation: Location&lt;/div&gt;&lt;div&gt;- participantDataFilePath: String&lt;/div&gt;&lt;div&gt;- eventLocationDataFilePath: String&lt;/div&gt;&lt;div&gt;&lt;u&gt;- participantsPathDebug: String {read only}&lt;/u&gt;&lt;/div&gt;&lt;div&gt;&lt;u&gt;- eventLocationPathDebug: String {read only}&lt;/u&gt;&lt;/div&gt;&lt;div&gt;- kitchenCountMap: Map&amp;lt;Kitchen, Integer&amp;gt;&lt;/div&gt;&lt;div&gt;&lt;u&gt;- inputData: InputData&lt;/u&gt;&lt;/div&gt;&lt;div&gt;- idCounter: int&lt;br&gt;&lt;/div&gt;" style="text;strokeColor=none;fillColor=none;align=left;verticalAlign=top;spacingLeft=4;spacingRight=4;overflow=hidden;rotatable=0;points=[[0,0.5],[1,0.5]];portConstraint=eastwest;whiteSpace=wrap;html=1;" parent="NW10qsWNtvqKA9GrzfMX-141" vertex="1">
          <mxGeometry y="26" width="350" height="186.62857142857143" as="geometry" />
        </mxCell>
        <mxCell id="NW10qsWNtvqKA9GrzfMX-143" value="" style="line;strokeWidth=1;fillColor=none;align=left;verticalAlign=middle;spacingTop=-1;spacingLeft=3;spacingRight=3;rotatable=0;labelPosition=right;points=[];portConstraint=eastwest;strokeColor=inherit;" parent="NW10qsWNtvqKA9GrzfMX-141" vertex="1">
          <mxGeometry y="212.62857142857143" width="350" height="8.114285714285714" as="geometry" />
        </mxCell>
        <mxCell id="NW10qsWNtvqKA9GrzfMX-144" value="&lt;div&gt;- InputData()&lt;br&gt;&lt;/div&gt;&lt;div&gt;+ init(String, String): void&lt;/div&gt;&lt;div&gt;+ initParticipants(String): void&lt;/div&gt;&lt;div&gt;+ initEventLocation(String): void&lt;/div&gt;&lt;div&gt;- initDebug(): void&lt;/div&gt;&lt;div&gt;&lt;u&gt;+ getInstance(): InputData&lt;/u&gt;&lt;/div&gt;&lt;div&gt;&lt;u&gt;+ getInstanceDebug(): InputData&lt;/u&gt;&lt;/div&gt;&lt;div&gt;+ saveLocation(): void&lt;/div&gt;&lt;div&gt;+ saveParticipants(): void&lt;/div&gt;&lt;div&gt;- getPair(Data): Pair&lt;/div&gt;&lt;div&gt;+ setDataFiles(String, String): void&lt;/div&gt;&lt;div&gt;- extractData(String[]): Data&lt;/div&gt;&lt;div&gt;- extractSecData(String[], String, Name, FoodType, byte, Gender, KitchenAvailability, int, double, double): Data&lt;/div&gt;&lt;div&gt;- handleParticipantWithKitchen(Participant): void&lt;/div&gt;&lt;div&gt;- handlePairWithKitchen(Pair): void&lt;/div&gt;&lt;div&gt;+ getEventLocation(): Location&lt;/div&gt;&lt;div&gt;+ getParticipantInputData: List&amp;lt;Participant&amp;gt;&lt;/div&gt;&lt;div&gt;+ getPairInputData(): List&amp;lt;Pair&amp;gt;&lt;/div&gt;&lt;div&gt;+ getParticipantSuccessorList(): List&amp;lt;Participant&amp;gt;&lt;/div&gt;&lt;div&gt;+ getPairSuccessorList(): List&amp;lt;Pair&amp;gt;&lt;/div&gt;&lt;div&gt;+ getParticipantDataFilePath(): String&lt;/div&gt;&lt;div&gt;+ getEventLocationDataFilePath(): String&lt;/div&gt;&lt;div&gt;+ toString(): String&lt;/div&gt;&lt;div&gt;+ getParticipants(): String&lt;/div&gt;&lt;div&gt;+ getPairs(): String&lt;/div&gt;&lt;div&gt;+ getParticipantSuccessors(): String&lt;/div&gt;&lt;div&gt;+ getPairSuccessors(): String&lt;/div&gt;&lt;div&gt;+ getKitchenCountMap(): Map&amp;lt;Kitchen, Integer&amp;gt;&lt;br&gt;&lt;/div&gt;" style="text;strokeColor=none;fillColor=none;align=left;verticalAlign=top;spacingLeft=4;spacingRight=4;overflow=hidden;rotatable=0;points=[[0,0.5],[1,0.5]];portConstraint=eastwest;whiteSpace=wrap;html=1;" parent="NW10qsWNtvqKA9GrzfMX-141" vertex="1">
          <mxGeometry y="220.74285714285713" width="350" height="438.1714285714286" as="geometry" />
        </mxCell>
        <mxCell id="9cCDUhdidDNCYwHO_KRY-64" value="has/calls" style="endArrow=open;html=1;endSize=12;startArrow=diamondThin;startSize=14;startFill=0;edgeStyle=orthogonalEdgeStyle;rounded=0;exitX=0.5;exitY=0;exitDx=0;exitDy=0;entryX=0.53;entryY=1.007;entryDx=0;entryDy=0;entryPerimeter=0;" edge="1" parent="NW10qsWNtvqKA9GrzfMX-141" source="NW10qsWNtvqKA9GrzfMX-57">
          <mxGeometry relative="1" as="geometry">
            <mxPoint x="-1269.9901104972378" y="965.3585714285715" as="sourcePoint" />
            <mxPoint x="194.79000000000042" y="658.9114857142855" as="targetPoint" />
            <Array as="points">
              <mxPoint x="-1280" y="698" />
              <mxPoint x="195" y="698" />
            </Array>
          </mxGeometry>
        </mxCell>
        <mxCell id="9cCDUhdidDNCYwHO_KRY-65" value="&lt;div&gt;1&lt;/div&gt;" style="edgeLabel;resizable=0;html=1;align=left;verticalAlign=top;" connectable="0" vertex="1" parent="9cCDUhdidDNCYwHO_KRY-64">
          <mxGeometry x="-1" relative="1" as="geometry">
            <mxPoint y="-57" as="offset" />
          </mxGeometry>
        </mxCell>
        <mxCell id="9cCDUhdidDNCYwHO_KRY-66" value="1" style="edgeLabel;resizable=0;html=1;align=right;verticalAlign=top;" connectable="0" vertex="1" parent="9cCDUhdidDNCYwHO_KRY-64">
          <mxGeometry x="1" relative="1" as="geometry">
            <mxPoint x="-5" y="19" as="offset" />
          </mxGeometry>
        </mxCell>
        <mxCell id="9cCDUhdidDNCYwHO_KRY-146" value="creates" style="endArrow=open;html=1;endSize=12;startArrow=diamondThin;startSize=14;startFill=0;edgeStyle=orthogonalEdgeStyle;rounded=0;entryX=0.429;entryY=1;entryDx=0;entryDy=0;entryPerimeter=0;" edge="1" parent="NW10qsWNtvqKA9GrzfMX-141" target="NW10qsWNtvqKA9GrzfMX-135">
          <mxGeometry relative="1" as="geometry">
            <mxPoint x="160" y="-1.5714285714285552" as="sourcePoint" />
            <mxPoint x="320" y="-1.5714285714285552" as="targetPoint" />
          </mxGeometry>
        </mxCell>
        <mxCell id="9cCDUhdidDNCYwHO_KRY-147" value="1" style="edgeLabel;resizable=0;html=1;align=left;verticalAlign=top;" connectable="0" vertex="1" parent="9cCDUhdidDNCYwHO_KRY-146">
          <mxGeometry x="-1" relative="1" as="geometry">
            <mxPoint y="-40" as="offset" />
          </mxGeometry>
        </mxCell>
        <mxCell id="9cCDUhdidDNCYwHO_KRY-148" value="0..n" style="edgeLabel;resizable=0;html=1;align=right;verticalAlign=top;" connectable="0" vertex="1" parent="9cCDUhdidDNCYwHO_KRY-146">
          <mxGeometry x="1" relative="1" as="geometry">
            <mxPoint x="-4" y="19" as="offset" />
          </mxGeometry>
        </mxCell>
        <mxCell id="NW10qsWNtvqKA9GrzfMX-145" value="OutputData" style="swimlane;fontStyle=1;align=center;verticalAlign=top;childLayout=stackLayout;horizontal=1;startSize=26;horizontalStack=0;resizeParent=1;resizeParentMax=0;resizeLast=0;collapsible=1;marginBottom=0;whiteSpace=wrap;html=1;" parent="NW10qsWNtvqKA9GrzfMX-149" vertex="1">
          <mxGeometry x="400" y="40.57" width="220" height="150.00285714285715" as="geometry" />
        </mxCell>
        <mxCell id="NW10qsWNtvqKA9GrzfMX-146" value="&lt;div&gt;- outputFilePath: String {read only}&lt;/div&gt;&lt;div&gt;- groupList: GroupList&lt;br&gt;&lt;/div&gt;" style="text;strokeColor=none;fillColor=none;align=left;verticalAlign=top;spacingLeft=4;spacingRight=4;overflow=hidden;rotatable=0;points=[[0,0.5],[1,0.5]];portConstraint=eastwest;whiteSpace=wrap;html=1;" parent="NW10qsWNtvqKA9GrzfMX-145" vertex="1">
          <mxGeometry y="26" width="220" height="44.628571428571426" as="geometry" />
        </mxCell>
        <mxCell id="NW10qsWNtvqKA9GrzfMX-147" value="" style="line;strokeWidth=1;fillColor=none;align=left;verticalAlign=middle;spacingTop=-1;spacingLeft=3;spacingRight=3;rotatable=0;labelPosition=right;points=[];portConstraint=eastwest;strokeColor=inherit;" parent="NW10qsWNtvqKA9GrzfMX-145" vertex="1">
          <mxGeometry y="70.62857142857143" width="220" height="8.114285714285714" as="geometry" />
        </mxCell>
        <mxCell id="NW10qsWNtvqKA9GrzfMX-148" value="&lt;div&gt;+ OutputData(String)&lt;/div&gt;&lt;div&gt;+ OutputData(String, GroupList)&lt;br&gt;&lt;/div&gt;&lt;div&gt;+ makePairOutputFile(String): void&lt;/div&gt;&lt;div&gt;+ makeGroupOutputFile(String): void&lt;/div&gt;&lt;div&gt;&lt;br&gt;&lt;/div&gt;" style="text;strokeColor=none;fillColor=none;align=left;verticalAlign=top;spacingLeft=4;spacingRight=4;overflow=hidden;rotatable=0;points=[[0,0.5],[1,0.5]];portConstraint=eastwest;whiteSpace=wrap;html=1;" parent="NW10qsWNtvqKA9GrzfMX-145" vertex="1">
          <mxGeometry y="78.74285714285715" width="220" height="71.26" as="geometry" />
        </mxCell>
        <mxCell id="NW10qsWNtvqKA9GrzfMX-179" value="&lt;div&gt;«enum»&lt;/div&gt;&lt;div&gt;Course&lt;br&gt;&lt;/div&gt;" style="swimlane;fontStyle=1;align=center;verticalAlign=top;childLayout=stackLayout;horizontal=1;startSize=40;horizontalStack=0;resizeParent=1;resizeParentMax=0;resizeLast=0;collapsible=1;marginBottom=0;whiteSpace=wrap;html=1;" parent="NW10qsWNtvqKA9GrzfMX-202" vertex="1">
          <mxGeometry x="2280" y="1411" width="290" height="160" as="geometry" />
        </mxCell>
        <mxCell id="NW10qsWNtvqKA9GrzfMX-180" value="&lt;div&gt;STARTER,&lt;/div&gt;&lt;div&gt;MAIN,&lt;/div&gt;&lt;div&gt;DESSERT&lt;br&gt;&lt;/div&gt;" style="text;strokeColor=none;fillColor=none;align=left;verticalAlign=top;spacingLeft=4;spacingRight=4;overflow=hidden;rotatable=0;points=[[0,0.5],[1,0.5]];portConstraint=eastwest;whiteSpace=wrap;html=1;" parent="NW10qsWNtvqKA9GrzfMX-179" vertex="1">
          <mxGeometry y="40" width="290" height="50" as="geometry" />
        </mxCell>
        <mxCell id="NW10qsWNtvqKA9GrzfMX-181" value="" style="line;strokeWidth=1;fillColor=none;align=left;verticalAlign=middle;spacingTop=-1;spacingLeft=3;spacingRight=3;rotatable=0;labelPosition=right;points=[];portConstraint=eastwest;strokeColor=inherit;" parent="NW10qsWNtvqKA9GrzfMX-179" vertex="1">
          <mxGeometry y="90" width="290" height="8" as="geometry" />
        </mxCell>
        <mxCell id="NW10qsWNtvqKA9GrzfMX-182" value="&lt;div&gt;+ getAsInt(): int&lt;/div&gt;&lt;div&gt;+ toString(): String&lt;/div&gt;&lt;div&gt;+ asObservable(): ObservableValue&amp;lt;String&amp;gt;&lt;br&gt;&lt;/div&gt;" style="text;strokeColor=none;fillColor=none;align=left;verticalAlign=top;spacingLeft=4;spacingRight=4;overflow=hidden;rotatable=0;points=[[0,0.5],[1,0.5]];portConstraint=eastwest;whiteSpace=wrap;html=1;" parent="NW10qsWNtvqKA9GrzfMX-179" vertex="1">
          <mxGeometry y="98" width="290" height="62" as="geometry" />
        </mxCell>
        <mxCell id="NW10qsWNtvqKA9GrzfMX-183" value="&lt;div&gt;«record»&lt;/div&gt;&lt;div&gt;Location&lt;br&gt;&lt;/div&gt;" style="swimlane;fontStyle=1;align=center;verticalAlign=top;childLayout=stackLayout;horizontal=1;startSize=39;horizontalStack=0;resizeParent=1;resizeParentMax=0;resizeLast=0;collapsible=1;marginBottom=0;whiteSpace=wrap;html=1;" parent="NW10qsWNtvqKA9GrzfMX-202" vertex="1">
          <mxGeometry x="2280" y="1199" width="265" height="160" as="geometry" />
        </mxCell>
        <mxCell id="NW10qsWNtvqKA9GrzfMX-184" value="&lt;div&gt;- longitude: double {read only}&lt;/div&gt;&lt;div&gt;- latitude: double {read only}&lt;br&gt;&lt;/div&gt;" style="text;strokeColor=none;fillColor=none;align=left;verticalAlign=top;spacingLeft=4;spacingRight=4;overflow=hidden;rotatable=0;points=[[0,0.5],[1,0.5]];portConstraint=eastwest;whiteSpace=wrap;html=1;" parent="NW10qsWNtvqKA9GrzfMX-183" vertex="1">
          <mxGeometry y="39" width="265" height="41" as="geometry" />
        </mxCell>
        <mxCell id="NW10qsWNtvqKA9GrzfMX-185" value="" style="line;strokeWidth=1;fillColor=none;align=left;verticalAlign=middle;spacingTop=-1;spacingLeft=3;spacingRight=3;rotatable=0;labelPosition=right;points=[];portConstraint=eastwest;strokeColor=inherit;" parent="NW10qsWNtvqKA9GrzfMX-183" vertex="1">
          <mxGeometry y="80" width="265" height="8" as="geometry" />
        </mxCell>
        <mxCell id="NW10qsWNtvqKA9GrzfMX-186" value="&lt;div&gt;+ getDistance(Location): double&lt;/div&gt;&lt;div&gt;+ asOutputString(): String&lt;/div&gt;&lt;div&gt;+ toString(): String&lt;/div&gt;&lt;div&gt;+ equals(Object): boolean&lt;/div&gt;&lt;div&gt;&lt;br&gt;&lt;/div&gt;" style="text;strokeColor=none;fillColor=none;align=left;verticalAlign=top;spacingLeft=4;spacingRight=4;overflow=hidden;rotatable=0;points=[[0,0.5],[1,0.5]];portConstraint=eastwest;whiteSpace=wrap;html=1;" parent="NW10qsWNtvqKA9GrzfMX-183" vertex="1">
          <mxGeometry y="88" width="265" height="72" as="geometry" />
        </mxCell>
        <mxCell id="NW10qsWNtvqKA9GrzfMX-188" value="- participants: Set&amp;lt;Participant&amp;gt; {read only}" style="text;strokeColor=none;fillColor=none;align=left;verticalAlign=top;spacingLeft=4;spacingRight=4;overflow=hidden;rotatable=0;points=[[0,0.5],[1,0.5]];portConstraint=eastwest;whiteSpace=wrap;html=1;container=0;" parent="NW10qsWNtvqKA9GrzfMX-202" vertex="1">
          <mxGeometry x="590" y="275" width="317" height="28" as="geometry" />
        </mxCell>
        <mxCell id="NW10qsWNtvqKA9GrzfMX-189" value="" style="line;strokeWidth=1;fillColor=none;align=left;verticalAlign=middle;spacingTop=-1;spacingLeft=3;spacingRight=3;rotatable=0;labelPosition=right;points=[];portConstraint=eastwest;strokeColor=inherit;container=0;" parent="NW10qsWNtvqKA9GrzfMX-202" vertex="1">
          <mxGeometry x="590" y="303" width="317" height="8" as="geometry" />
        </mxCell>
        <mxCell id="NW10qsWNtvqKA9GrzfMX-190" value="&lt;div&gt;&lt;i&gt;getIdentNumber(): IdentNumber&amp;lt;E&amp;gt;&lt;br&gt;&lt;/i&gt;&lt;/div&gt;&lt;div&gt;&lt;i&gt;evaluate(): double&lt;/i&gt;&lt;br&gt;&lt;/div&gt;&lt;div&gt;+ getParticipants(): List&amp;lt;Participant&amp;gt;&lt;/div&gt;&lt;div&gt;+ getParticipantCount(): int&lt;/div&gt;&lt;div&gt;+ containsParticipant(): boolean&lt;/div&gt;&lt;div&gt;+ containsAllParticipants(Collection&amp;lt;Participant&amp;gt;): boolean&lt;/div&gt;&lt;div&gt;+ containsAnyParticipant(Collection&amp;lt;Participant&amp;gt;): boolean&lt;/div&gt;&lt;div&gt;+ getParticipantArray(): Participant[]&lt;/div&gt;&lt;div&gt;+ getParticipantIterator(): Iterator&amp;lt;Participant&amp;gt;&lt;/div&gt;&lt;div&gt;+ getParticipant(int): Participant&lt;/div&gt;&lt;div&gt;+ getParticipantCollections(): List&amp;lt;E&amp;gt;&lt;/div&gt;&lt;div&gt;+ setList(List&amp;lt;E&amp;gt;): void&lt;/div&gt;&lt;div&gt;# nullCheck(E): void&lt;/div&gt;&lt;div&gt;# duplicateElementCheck(E): void&lt;/div&gt;&lt;div&gt;# dupliacteParticipantCheck(E): void&lt;/div&gt;&lt;div&gt;# check(E): void&lt;/div&gt;&lt;div&gt;+ add(E): boolean&lt;/div&gt;&lt;div&gt;+ remove(Object): boolean&lt;/div&gt;&lt;div&gt;+ clear(): void&lt;/div&gt;&lt;div&gt;+ addAll(Collection&amp;lt;? extends E&amp;gt;): boolean&lt;/div&gt;&lt;div&gt;+ addAll(int, Collection&amp;lt;? extends E&amp;gt;): boolean&lt;/div&gt;&lt;div&gt;+ removeAll(Collection&amp;lt;?&amp;gt;): boolean&lt;/div&gt;&lt;div&gt;+ retainAll(Collection&amp;lt;?&amp;gt;): boolean&lt;/div&gt;&lt;div&gt;+ set(int, E): E&lt;/div&gt;&lt;div&gt;+ add(int, E): void&lt;/div&gt;&lt;div&gt;+ remove(int): E&lt;/div&gt;&lt;div&gt;&lt;br&gt;&lt;/div&gt;" style="text;strokeColor=none;fillColor=none;align=left;verticalAlign=top;spacingLeft=4;spacingRight=4;overflow=hidden;rotatable=0;points=[[0,0.5],[1,0.5]];portConstraint=eastwest;whiteSpace=wrap;html=1;container=0;" parent="NW10qsWNtvqKA9GrzfMX-202" vertex="1">
          <mxGeometry x="590" y="311" width="317" height="400" as="geometry" />
        </mxCell>
        <mxCell id="NW10qsWNtvqKA9GrzfMX-193" value="" style="line;strokeWidth=1;fillColor=none;align=left;verticalAlign=middle;spacingTop=-1;spacingLeft=3;spacingRight=3;rotatable=0;labelPosition=right;points=[];portConstraint=eastwest;strokeColor=inherit;container=0;" parent="NW10qsWNtvqKA9GrzfMX-202" vertex="1">
          <mxGeometry x="140" y="335" width="400" height="8" as="geometry" />
        </mxCell>
        <mxCell id="NW10qsWNtvqKA9GrzfMX-196" value="&lt;div&gt;&lt;u&gt;- inputData: InputData {read only}&lt;/u&gt;&lt;/div&gt;&lt;div&gt;- pairList: PairList {read only}&lt;/div&gt;&lt;div&gt;- identNumber: IdentNumber&amp;lt;Group&amp;gt;&lt;/div&gt;&lt;div&gt;- successorPairs: List&amp;lt;Pair&amp;gt;&lt;/div&gt;&lt;div&gt;- weights: GroupWeights {read only}&lt;br&gt;&lt;/div&gt;" style="text;strokeColor=none;fillColor=none;align=left;verticalAlign=top;spacingLeft=4;spacingRight=4;overflow=hidden;rotatable=0;points=[[0,0.5],[1,0.5]];portConstraint=eastwest;whiteSpace=wrap;html=1;container=0;" parent="NW10qsWNtvqKA9GrzfMX-202" vertex="1">
          <mxGeometry x="960" y="251" width="400" height="114" as="geometry" />
        </mxCell>
        <mxCell id="NW10qsWNtvqKA9GrzfMX-197" value="" style="line;strokeWidth=1;fillColor=none;align=left;verticalAlign=middle;spacingTop=-1;spacingLeft=3;spacingRight=3;rotatable=0;labelPosition=right;points=[];portConstraint=eastwest;strokeColor=inherit;container=0;" parent="NW10qsWNtvqKA9GrzfMX-202" vertex="1">
          <mxGeometry x="960" y="365" width="400" height="8" as="geometry" />
        </mxCell>
        <mxCell id="NW10qsWNtvqKA9GrzfMX-198" value="&lt;div&gt;+ GroupList(GroupList)&lt;/div&gt;&lt;div&gt;+ GroupList(PairList, GroupWeights)&lt;/div&gt;&lt;div&gt;+ GroupList(List&amp;lt;Pair&amp;gt;, GoupWeights)&lt;/div&gt;&lt;div&gt;- deriveIdentNumber(): GroupIdentNumber&lt;/div&gt;&lt;div&gt;&lt;u&gt;- sortPairs(List&amp;lt;Pair&amp;gt;):List&amp;lt;Pair&amp;gt;&lt;/u&gt;&lt;/div&gt;&lt;div&gt;+ buildBestGroups(List&amp;lt;Pair&amp;gt;, GroupWeights): List&amp;lt;Group&amp;gt;&lt;/div&gt;&lt;div&gt;&lt;u&gt;- makeGroups(List&amp;lt;Pair&amp;gt;, List&amp;lt;Kitchen&amp;gt;, List&amp;lt;Kitchen&amp;gt;, List&amp;lt;Kitchen&amp;gt;): List&amp;lt;Group&amp;gt;&lt;/u&gt;&lt;/div&gt;&lt;div&gt;&lt;u&gt;- sortGroupCluster(List&amp;lt;Pair&amp;gt;): List&amp;lt;Pair&amp;gt;&lt;/u&gt;&lt;/div&gt;&lt;div&gt;&lt;u&gt;- findNearestPair(Pair, List&amp;lt;Pair&amp;gt;): int&lt;/u&gt;&lt;/div&gt;&lt;div&gt;&lt;u&gt;- removeDoubleKitchens(List&amp;lt;Pair&amp;gt;, List&amp;lt;Kitchen&amp;gt;, List&amp;lt;Kitchen&amp;gt;, List&amp;lt;Kitche&amp;gt;): List&amp;lt;Pair&amp;gt;&lt;/u&gt;&lt;/div&gt;&lt;div&gt;&lt;u&gt;- swapPositions(List&amp;lt;Pair&amp;gt;, List&amp;lt;Integer&amp;gt;, int): List&amp;lt;Pair&amp;gt;&lt;/u&gt;&lt;/div&gt;&lt;div&gt;&lt;u&gt;- findMeatPosition(List&amp;lt;Pair&amp;gt;): List&amp;lt;Integer&amp;gt;&lt;/u&gt;&lt;/div&gt;&lt;div&gt;&lt;u&gt;- calculateGroupScore(Pair, Pair, GroupWeights, List&amp;lt;Pair&amp;gt;): double&lt;/u&gt;&lt;/div&gt;&lt;div&gt;&lt;u&gt;- compareGroupAge(List&amp;lt;Pair&amp;gt;, Pair, GroupWeights): double&lt;/u&gt;&lt;/div&gt;&lt;div&gt;&lt;u&gt;-compareGroupFoodPreference(Pair, Pair, GroupWeights): double&lt;/u&gt;&lt;/div&gt;&lt;div&gt;&lt;u&gt;- compareGroupGender(List&amp;lt;Pair&amp;gt;, Pair, GroupWeights): double&lt;br&gt;&lt;/u&gt;&lt;/div&gt;&lt;div&gt;&lt;u&gt;- compareLocation(Pair, Pair, GroupWeights): double&lt;/u&gt;&lt;/div&gt;&lt;div&gt;&lt;u&gt;- testGroupComposition(Pair, List&amp;lt;Pair&amp;gt;): boolean&lt;/u&gt;&lt;/div&gt;&lt;div&gt;&lt;u&gt;- listCountFoodType(List&amp;lt;Pair&amp;gt;, FootType): int&lt;/u&gt;&lt;/div&gt;&lt;div&gt;+ getIdentNumber(): IdentNumber&amp;lt;Group&amp;gt;&lt;/div&gt;&lt;div&gt;&lt;i&gt;+ evaluate(): double&lt;/i&gt;&lt;/div&gt;&lt;div&gt;+ getGroups(): List&amp;lt;Group&amp;gt;&lt;/div&gt;&lt;div&gt;+ getSuccessorPairs(): List&amp;lt;Pair&amp;gt;&lt;/div&gt;&lt;div&gt;+ getPairList(): PairList&lt;/div&gt;&lt;div&gt;+ toString(): String&lt;/div&gt;&lt;div&gt;# check(Group): void&lt;/div&gt;&lt;div&gt;+ getSuccessors(): List&amp;lt;Participant&amp;gt;&lt;/div&gt;&lt;div&gt;+ getWeights(): Weights&lt;br&gt;&lt;/div&gt;" style="text;strokeColor=none;fillColor=none;align=left;verticalAlign=top;spacingLeft=4;spacingRight=4;overflow=hidden;rotatable=0;points=[[0,0.5],[1,0.5]];portConstraint=eastwest;whiteSpace=wrap;html=1;container=0;" parent="NW10qsWNtvqKA9GrzfMX-202" vertex="1">
          <mxGeometry x="960" y="373" width="400" height="477" as="geometry" />
        </mxCell>
        <mxCell id="NW10qsWNtvqKA9GrzfMX-165" value="" style="group" parent="NW10qsWNtvqKA9GrzfMX-202" vertex="1" connectable="0">
          <mxGeometry x="230" y="1140" width="880" height="700" as="geometry" />
        </mxCell>
        <mxCell id="NW10qsWNtvqKA9GrzfMX-124" value="identNumbers" style="shape=folder;fontStyle=1;spacingTop=-5;tabWidth=85;tabHeight=20;tabPosition=left;html=1;whiteSpace=wrap;align=left;verticalAlign=top;" parent="NW10qsWNtvqKA9GrzfMX-165" vertex="1">
          <mxGeometry y="-10.63" width="880" height="710.63" as="geometry" />
        </mxCell>
        <mxCell id="NW10qsWNtvqKA9GrzfMX-150" value="&lt;div&gt;«abstract»&lt;/div&gt;&lt;div&gt;IdentNumber&amp;lt;E extends ParticipantCollection&amp;gt;&lt;br&gt;&lt;/div&gt;" style="swimlane;fontStyle=1;align=center;verticalAlign=top;childLayout=stackLayout;horizontal=1;startSize=45;horizontalStack=0;resizeParent=1;resizeParentMax=0;resizeLast=0;collapsible=1;marginBottom=0;whiteSpace=wrap;html=1;" parent="NW10qsWNtvqKA9GrzfMX-165" vertex="1">
          <mxGeometry x="30" y="29.99901960784314" width="360" height="340.5882352941177" as="geometry" />
        </mxCell>
        <mxCell id="NW10qsWNtvqKA9GrzfMX-151" value="&lt;div&gt;# participantCollectionList: ParticipantCollectionList&amp;lt;E&amp;gt;&lt;/div&gt;&lt;div&gt;# numElems: int&lt;/div&gt;&lt;div&gt;# numSuccessors: int&lt;/div&gt;&lt;div&gt;# genderDiversity: double&lt;/div&gt;&lt;div&gt;# ageDifference: double&lt;/div&gt;&lt;div&gt;# preferenceDeviation: double&lt;/div&gt;" style="text;strokeColor=none;fillColor=none;align=left;verticalAlign=top;spacingLeft=4;spacingRight=4;overflow=hidden;rotatable=0;points=[[0,0.5],[1,0.5]];portConstraint=eastwest;whiteSpace=wrap;html=1;" parent="NW10qsWNtvqKA9GrzfMX-150" vertex="1">
          <mxGeometry y="45" width="360" height="124.80392156862746" as="geometry" />
        </mxCell>
        <mxCell id="NW10qsWNtvqKA9GrzfMX-152" value="" style="line;strokeWidth=1;fillColor=none;align=left;verticalAlign=middle;spacingTop=-1;spacingLeft=3;spacingRight=3;rotatable=0;labelPosition=right;points=[];portConstraint=eastwest;strokeColor=inherit;" parent="NW10qsWNtvqKA9GrzfMX-150" vertex="1">
          <mxGeometry y="169.80392156862746" width="360" height="10.509803921568627" as="geometry" />
        </mxCell>
        <mxCell id="NW10qsWNtvqKA9GrzfMX-153" value="&lt;div&gt;# IdentNumber(ParticipantCollectionList&amp;lt;E&amp;gt;)&lt;/div&gt;&lt;div&gt;- calcNumElems(ParticipantCollectionList&amp;lt;E&amp;gt;): int&lt;/div&gt;&lt;div&gt;- calcNumSuccessors(ParticipantCollectionList&amp;lt;E&amp;gt;): int&lt;/div&gt;&lt;div&gt;&lt;i&gt;# calcGenderDiversity(ParticipantCollectionList&amp;lt;E&amp;gt;): double&lt;/i&gt;&lt;/div&gt;&lt;div&gt;&lt;i&gt;# calcAgeDifference(ParticipantCollectionList&amp;lt;E&amp;gt;): double&lt;br&gt;&lt;/i&gt;&lt;/div&gt;&lt;div&gt;&lt;i&gt;# calcPreferenceDeviation(ParticipantCollectionList&amp;lt;E&amp;gt;): double&lt;/i&gt;&lt;/div&gt;&lt;div&gt;+ toString(): String&lt;/div&gt;&lt;div&gt;+ asList(): List&amp;lt;String&amp;gt;&lt;/div&gt;&lt;div&gt;&lt;br&gt;&lt;/div&gt;" style="text;strokeColor=none;fillColor=none;align=left;verticalAlign=top;spacingLeft=4;spacingRight=4;overflow=hidden;rotatable=0;points=[[0,0.5],[1,0.5]];portConstraint=eastwest;whiteSpace=wrap;html=1;" parent="NW10qsWNtvqKA9GrzfMX-150" vertex="1">
          <mxGeometry y="180.31372549019608" width="360" height="160.27450980392157" as="geometry" />
        </mxCell>
        <mxCell id="NW10qsWNtvqKA9GrzfMX-155" value="GroupIdentNumber" style="swimlane;fontStyle=1;align=center;verticalAlign=top;childLayout=stackLayout;horizontal=1;startSize=26;horizontalStack=0;resizeParent=1;resizeParentMax=0;resizeLast=0;collapsible=1;marginBottom=0;whiteSpace=wrap;html=1;" parent="NW10qsWNtvqKA9GrzfMX-165" vertex="1">
          <mxGeometry x="460" y="29.99901960784314" width="385" height="491.0588235294118" as="geometry" />
        </mxCell>
        <mxCell id="NW10qsWNtvqKA9GrzfMX-156" value="&lt;div&gt;- averagePathLength: double {read only}&lt;br&gt;&lt;/div&gt;&lt;div&gt;- totalPathLength: double&lt;/div&gt;&lt;div&gt;- pathLengthStdDev: double {read only}&lt;/div&gt;&lt;div&gt;- groupList: GroupList {read only}&lt;br&gt;&lt;/div&gt;" style="text;strokeColor=none;fillColor=none;align=left;verticalAlign=top;spacingLeft=4;spacingRight=4;overflow=hidden;rotatable=0;points=[[0,0.5],[1,0.5]];portConstraint=eastwest;whiteSpace=wrap;html=1;" parent="NW10qsWNtvqKA9GrzfMX-155" vertex="1">
          <mxGeometry y="26" width="385" height="97.2156862745098" as="geometry" />
        </mxCell>
        <mxCell id="NW10qsWNtvqKA9GrzfMX-157" value="" style="line;strokeWidth=1;fillColor=none;align=left;verticalAlign=middle;spacingTop=-1;spacingLeft=3;spacingRight=3;rotatable=0;labelPosition=right;points=[];portConstraint=eastwest;strokeColor=inherit;" parent="NW10qsWNtvqKA9GrzfMX-155" vertex="1">
          <mxGeometry y="123.2156862745098" width="385" height="10.509803921568627" as="geometry" />
        </mxCell>
        <mxCell id="NW10qsWNtvqKA9GrzfMX-158" value="&lt;div&gt;+ GroupIdentNumber(GroupIdentNumber)&lt;/div&gt;&lt;div&gt;+ GroupIdentNumber(GroupList)&lt;/div&gt;&lt;div&gt;# calcGenderDiversity(ParticipantCollectionList&amp;lt;Group&amp;gt;): double&lt;/div&gt;&lt;div&gt;# calcAgeDifference(ParticipantCollectionList&amp;lt;Group&amp;gt;): double&lt;/div&gt;&lt;div&gt;# calcPreferenceDeviation(ParticipantCollectionList&amp;lt;Group&amp;gt;): double&lt;br&gt;&lt;/div&gt;&lt;div&gt;- calcTotalPathLength(ParticipantColectionList&amp;lt;Group&amp;gt;): double&lt;br&gt;&lt;/div&gt;&lt;div&gt;- calcTotalDistanceForPair(Pair): double&lt;/div&gt;&lt;div&gt;- calcPathLengthStdDev(ParticipantCollectionList&amp;lt;Group&amp;gt;): double&lt;/div&gt;&lt;div&gt;- getGroupById(int): Group&lt;/div&gt;&lt;div&gt;- getAllPairs(ParticipantCollectionList&amp;lt;Group&amp;gt;): List&amp;lt;Pair&amp;gt;&lt;/div&gt;&lt;div&gt;- getTotalPairs(ParticipantCollectionList&amp;lt;Group&amp;gt;): int&lt;/div&gt;&lt;div&gt;- calculateGroupGenderDeviation(Group): double&lt;/div&gt;&lt;div&gt;- calculateGroupAgeDifference(Group): double&lt;/div&gt;&lt;div&gt;- calculateGroupPreferenceDeviation(Group): double&lt;/div&gt;&lt;div&gt;- getAveragePathLength(): double&lt;/div&gt;&lt;div&gt;- getTotalPathLength(): double&lt;/div&gt;&lt;div&gt;- getPathLengthStdDev(): double&lt;/div&gt;&lt;div&gt;+ toString(): String&lt;br&gt;&lt;/div&gt;" style="text;strokeColor=none;fillColor=none;align=left;verticalAlign=top;spacingLeft=4;spacingRight=4;overflow=hidden;rotatable=0;points=[[0,0.5],[1,0.5]];portConstraint=eastwest;whiteSpace=wrap;html=1;" parent="NW10qsWNtvqKA9GrzfMX-155" vertex="1">
          <mxGeometry y="133.72549019607843" width="385" height="357.33333333333337" as="geometry" />
        </mxCell>
        <mxCell id="NW10qsWNtvqKA9GrzfMX-160" value="PairIdentNumber" style="swimlane;fontStyle=1;align=center;verticalAlign=top;childLayout=stackLayout;horizontal=1;startSize=26;horizontalStack=0;resizeParent=1;resizeParentMax=0;resizeLast=0;collapsible=1;marginBottom=0;whiteSpace=wrap;html=1;" parent="NW10qsWNtvqKA9GrzfMX-165" vertex="1">
          <mxGeometry x="40" y="505.9989075630251" width="360" height="149.49019607843138" as="geometry" />
        </mxCell>
        <mxCell id="NW10qsWNtvqKA9GrzfMX-162" value="" style="line;strokeWidth=1;fillColor=none;align=left;verticalAlign=middle;spacingTop=-1;spacingLeft=3;spacingRight=3;rotatable=0;labelPosition=right;points=[];portConstraint=eastwest;strokeColor=inherit;" parent="NW10qsWNtvqKA9GrzfMX-160" vertex="1">
          <mxGeometry y="26" width="360" height="10.509803921568627" as="geometry" />
        </mxCell>
        <mxCell id="NW10qsWNtvqKA9GrzfMX-163" value="&lt;div&gt;+ PairIdentNumber(PairIdentNumber)&lt;/div&gt;&lt;div&gt;+ PairIdentNumber(PairList)&lt;/div&gt;&lt;div&gt;# calcGenderDiversity(ParticipantCollectionList&amp;lt;Pair&amp;gt;)_ double&lt;/div&gt;&lt;div&gt;# calcAgeDifference(ParticipantCollectionList&amp;lt;Pair&amp;gt;): double&lt;/div&gt;&lt;div&gt;# calcPreferenceDeviation(ParticipantCollectionList&amp;lt;Pair&amp;gt;): double&lt;/div&gt;&lt;div&gt;&lt;br&gt;&lt;/div&gt;" style="text;strokeColor=none;fillColor=none;align=left;verticalAlign=top;spacingLeft=4;spacingRight=4;overflow=hidden;rotatable=0;points=[[0,0.5],[1,0.5]];portConstraint=eastwest;whiteSpace=wrap;html=1;" parent="NW10qsWNtvqKA9GrzfMX-160" vertex="1">
          <mxGeometry y="36.509803921568626" width="360" height="112.98039215686275" as="geometry" />
        </mxCell>
        <mxCell id="9cCDUhdidDNCYwHO_KRY-24" value="" style="endArrow=block;dashed=1;endFill=0;endSize=12;html=1;rounded=0;exitX=0;exitY=-0.004;exitDx=0;exitDy=0;exitPerimeter=0;entryX=1.01;entryY=0.653;entryDx=0;entryDy=0;entryPerimeter=0;" edge="1" parent="NW10qsWNtvqKA9GrzfMX-165" source="NW10qsWNtvqKA9GrzfMX-158" target="NW10qsWNtvqKA9GrzfMX-151">
          <mxGeometry width="160" relative="1" as="geometry">
            <mxPoint x="360" y="392.80392156862746" as="sourcePoint" />
            <mxPoint x="520" y="392.80392156862746" as="targetPoint" />
          </mxGeometry>
        </mxCell>
        <mxCell id="9cCDUhdidDNCYwHO_KRY-26" value="&lt;div&gt;«bind»&lt;/div&gt;&lt;div&gt;E::Group&lt;br&gt;&lt;/div&gt;" style="text;align=center;fontStyle=1;verticalAlign=middle;spacingLeft=3;spacingRight=3;strokeColor=none;rotatable=0;points=[[0,0.5],[1,0.5]];portConstraint=eastwest;html=1;" vertex="1" parent="NW10qsWNtvqKA9GrzfMX-165">
          <mxGeometry x="380" y="89.99607843137257" width="80" height="34.15686274509804" as="geometry" />
        </mxCell>
        <mxCell id="9cCDUhdidDNCYwHO_KRY-190" value="&lt;div&gt;«bind»&lt;/div&gt;&lt;div&gt;E::Pair&lt;br&gt;&lt;/div&gt;" style="text;html=1;align=center;verticalAlign=middle;whiteSpace=wrap;rounded=0;" vertex="1" parent="NW10qsWNtvqKA9GrzfMX-165">
          <mxGeometry x="230" y="400" width="60" height="66" as="geometry" />
        </mxCell>
        <mxCell id="9cCDUhdidDNCYwHO_KRY-192" value="" style="endArrow=block;dashed=1;endFill=0;endSize=12;html=1;rounded=0;exitX=0.5;exitY=0;exitDx=0;exitDy=0;entryX=0.52;entryY=1.013;entryDx=0;entryDy=0;entryPerimeter=0;" edge="1" parent="NW10qsWNtvqKA9GrzfMX-165" source="NW10qsWNtvqKA9GrzfMX-160" target="NW10qsWNtvqKA9GrzfMX-153">
          <mxGeometry width="160" relative="1" as="geometry">
            <mxPoint x="210" y="500" as="sourcePoint" />
            <mxPoint x="370" y="500" as="targetPoint" />
          </mxGeometry>
        </mxCell>
        <mxCell id="NW10qsWNtvqKA9GrzfMX-178" value="" style="group" parent="NW10qsWNtvqKA9GrzfMX-202" vertex="1" connectable="0">
          <mxGeometry x="140" y="740" width="670" height="380" as="geometry" />
        </mxCell>
        <mxCell id="NW10qsWNtvqKA9GrzfMX-125" value="weight" style="shape=folder;fontStyle=1;spacingTop=-5;tabWidth=50;tabHeight=20;tabPosition=left;html=1;whiteSpace=wrap;align=left;verticalAlign=top;" parent="NW10qsWNtvqKA9GrzfMX-178" vertex="1">
          <mxGeometry width="670" height="380" as="geometry" />
        </mxCell>
        <mxCell id="NW10qsWNtvqKA9GrzfMX-166" value="&lt;div&gt;«abstract»&lt;/div&gt;&lt;div&gt;Weights&lt;br&gt;&lt;/div&gt;" style="swimlane;fontStyle=1;align=center;verticalAlign=top;childLayout=stackLayout;horizontal=1;startSize=40;horizontalStack=0;resizeParent=1;resizeParentMax=0;resizeLast=0;collapsible=1;marginBottom=0;whiteSpace=wrap;html=1;" parent="NW10qsWNtvqKA9GrzfMX-178" vertex="1">
          <mxGeometry x="30" y="50" width="290" height="210" as="geometry" />
        </mxCell>
        <mxCell id="NW10qsWNtvqKA9GrzfMX-167" value="&lt;div&gt;# ageDifferenceWeight: double&lt;/div&gt;&lt;div&gt;# genderDifferenceWeight: double&lt;/div&gt;&lt;div&gt;# foodPreferenceWeight: double&lt;br&gt;&lt;/div&gt;" style="text;strokeColor=none;fillColor=none;align=left;verticalAlign=top;spacingLeft=4;spacingRight=4;overflow=hidden;rotatable=0;points=[[0,0.5],[1,0.5]];portConstraint=eastwest;whiteSpace=wrap;html=1;" parent="NW10qsWNtvqKA9GrzfMX-166" vertex="1">
          <mxGeometry y="40" width="290" height="50" as="geometry" />
        </mxCell>
        <mxCell id="NW10qsWNtvqKA9GrzfMX-168" value="" style="line;strokeWidth=1;fillColor=none;align=left;verticalAlign=middle;spacingTop=-1;spacingLeft=3;spacingRight=3;rotatable=0;labelPosition=right;points=[];portConstraint=eastwest;strokeColor=inherit;" parent="NW10qsWNtvqKA9GrzfMX-166" vertex="1">
          <mxGeometry y="90" width="290" height="8" as="geometry" />
        </mxCell>
        <mxCell id="NW10qsWNtvqKA9GrzfMX-169" value="&lt;div&gt;+ Weights(double, double, double)&lt;/div&gt;&lt;div&gt;+ getAgeDifferenceWeight(): double&lt;/div&gt;&lt;div&gt;+ setAgeDifferenceWeight(double): void&lt;/div&gt;&lt;div&gt;+ getGenderDifferenceWeight(): double&lt;/div&gt;&lt;div&gt;+ setGenderDifferenceWeight(double): void&lt;/div&gt;&lt;div&gt;+ getFoodPreferenceWeight(): double&lt;/div&gt;&lt;div&gt;+ setFoodPreferenceWeight(double): void&lt;br&gt;&lt;/div&gt;" style="text;strokeColor=none;fillColor=none;align=left;verticalAlign=top;spacingLeft=4;spacingRight=4;overflow=hidden;rotatable=0;points=[[0,0.5],[1,0.5]];portConstraint=eastwest;whiteSpace=wrap;html=1;" parent="NW10qsWNtvqKA9GrzfMX-166" vertex="1">
          <mxGeometry y="98" width="290" height="112" as="geometry" />
        </mxCell>
        <mxCell id="NW10qsWNtvqKA9GrzfMX-170" value="GroupWeights" style="swimlane;fontStyle=1;align=center;verticalAlign=top;childLayout=stackLayout;horizontal=1;startSize=26;horizontalStack=0;resizeParent=1;resizeParentMax=0;resizeLast=0;collapsible=1;marginBottom=0;whiteSpace=wrap;html=1;" parent="NW10qsWNtvqKA9GrzfMX-178" vertex="1">
          <mxGeometry x="370" y="50" width="270" height="140" as="geometry" />
        </mxCell>
        <mxCell id="NW10qsWNtvqKA9GrzfMX-171" value="- distanceWeight: double" style="text;strokeColor=none;fillColor=none;align=left;verticalAlign=top;spacingLeft=4;spacingRight=4;overflow=hidden;rotatable=0;points=[[0,0.5],[1,0.5]];portConstraint=eastwest;whiteSpace=wrap;html=1;" parent="NW10qsWNtvqKA9GrzfMX-170" vertex="1">
          <mxGeometry y="26" width="270" height="24" as="geometry" />
        </mxCell>
        <mxCell id="NW10qsWNtvqKA9GrzfMX-172" value="" style="line;strokeWidth=1;fillColor=none;align=left;verticalAlign=middle;spacingTop=-1;spacingLeft=3;spacingRight=3;rotatable=0;labelPosition=right;points=[];portConstraint=eastwest;strokeColor=inherit;" parent="NW10qsWNtvqKA9GrzfMX-170" vertex="1">
          <mxGeometry y="50" width="270" height="8" as="geometry" />
        </mxCell>
        <mxCell id="NW10qsWNtvqKA9GrzfMX-173" value="&lt;div&gt;+ GroupWeights(double, double, double, double)&lt;/div&gt;&lt;div&gt;+ GroupWeights(GroupWeights)&lt;/div&gt;&lt;div&gt;+ getDistanceWeight(): double&lt;/div&gt;&lt;div&gt;+ setDistanceWeight(double): void&lt;br&gt;&lt;/div&gt;" style="text;strokeColor=none;fillColor=none;align=left;verticalAlign=top;spacingLeft=4;spacingRight=4;overflow=hidden;rotatable=0;points=[[0,0.5],[1,0.5]];portConstraint=eastwest;whiteSpace=wrap;html=1;" parent="NW10qsWNtvqKA9GrzfMX-170" vertex="1">
          <mxGeometry y="58" width="270" height="82" as="geometry" />
        </mxCell>
        <mxCell id="NW10qsWNtvqKA9GrzfMX-174" value="PairingWeights" style="swimlane;fontStyle=1;align=center;verticalAlign=top;childLayout=stackLayout;horizontal=1;startSize=26;horizontalStack=0;resizeParent=1;resizeParentMax=0;resizeLast=0;collapsible=1;marginBottom=0;whiteSpace=wrap;html=1;" parent="NW10qsWNtvqKA9GrzfMX-178" vertex="1">
          <mxGeometry x="30" y="300" width="240" height="60" as="geometry" />
        </mxCell>
        <mxCell id="NW10qsWNtvqKA9GrzfMX-176" value="" style="line;strokeWidth=1;fillColor=none;align=left;verticalAlign=middle;spacingTop=-1;spacingLeft=3;spacingRight=3;rotatable=0;labelPosition=right;points=[];portConstraint=eastwest;strokeColor=inherit;" parent="NW10qsWNtvqKA9GrzfMX-174" vertex="1">
          <mxGeometry y="26" width="240" height="8" as="geometry" />
        </mxCell>
        <mxCell id="NW10qsWNtvqKA9GrzfMX-177" value="+ PairingWeights(double, double, double)" style="text;strokeColor=none;fillColor=none;align=left;verticalAlign=top;spacingLeft=4;spacingRight=4;overflow=hidden;rotatable=0;points=[[0,0.5],[1,0.5]];portConstraint=eastwest;whiteSpace=wrap;html=1;" parent="NW10qsWNtvqKA9GrzfMX-174" vertex="1">
          <mxGeometry y="34" width="240" height="26" as="geometry" />
        </mxCell>
        <mxCell id="9cCDUhdidDNCYwHO_KRY-5" value="" style="endArrow=block;dashed=1;endFill=0;endSize=12;html=1;rounded=0;exitX=0.5;exitY=0;exitDx=0;exitDy=0;" edge="1" parent="NW10qsWNtvqKA9GrzfMX-178" source="NW10qsWNtvqKA9GrzfMX-174">
          <mxGeometry width="160" relative="1" as="geometry">
            <mxPoint x="320" y="189" as="sourcePoint" />
            <mxPoint x="150" y="262" as="targetPoint" />
          </mxGeometry>
        </mxCell>
        <mxCell id="9cCDUhdidDNCYwHO_KRY-6" value="" style="endArrow=block;dashed=1;endFill=0;endSize=12;html=1;rounded=0;exitX=0;exitY=0.003;exitDx=0;exitDy=0;exitPerimeter=0;entryX=1.005;entryY=0.365;entryDx=0;entryDy=0;entryPerimeter=0;" edge="1" parent="NW10qsWNtvqKA9GrzfMX-178" source="NW10qsWNtvqKA9GrzfMX-173" target="NW10qsWNtvqKA9GrzfMX-167">
          <mxGeometry width="160" relative="1" as="geometry">
            <mxPoint x="320" y="189" as="sourcePoint" />
            <mxPoint x="480" y="189" as="targetPoint" />
          </mxGeometry>
        </mxCell>
        <mxCell id="9cCDUhdidDNCYwHO_KRY-97" value="1" style="text;html=1;align=center;verticalAlign=middle;whiteSpace=wrap;rounded=0;" vertex="1" parent="NW10qsWNtvqKA9GrzfMX-178">
          <mxGeometry x="165" y="20" width="60" height="30" as="geometry" />
        </mxCell>
        <mxCell id="NW10qsWNtvqKA9GrzfMX-187" value="&lt;div&gt;«abstract»&lt;/div&gt;ParticipantCollectionList&amp;lt;E extends ParticipantCollection&amp;gt;" style="swimlane;fontStyle=1;align=center;verticalAlign=top;childLayout=stackLayout;horizontal=1;startSize=50;horizontalStack=0;resizeParent=1;resizeParentMax=0;resizeLast=0;collapsible=1;marginBottom=0;whiteSpace=wrap;html=1;container=0;" parent="NW10qsWNtvqKA9GrzfMX-202" vertex="1">
          <mxGeometry x="590" y="225" width="317" height="505" as="geometry" />
        </mxCell>
        <mxCell id="NW10qsWNtvqKA9GrzfMX-195" value="GroupList" style="swimlane;fontStyle=1;align=center;verticalAlign=top;childLayout=stackLayout;horizontal=1;startSize=26;horizontalStack=0;resizeParent=1;resizeParentMax=0;resizeLast=0;collapsible=1;marginBottom=0;whiteSpace=wrap;html=1;container=0;" parent="NW10qsWNtvqKA9GrzfMX-202" vertex="1">
          <mxGeometry x="960" y="225" width="400" height="615" as="geometry" />
        </mxCell>
        <mxCell id="9cCDUhdidDNCYwHO_KRY-1" value="" style="group" vertex="1" connectable="0" parent="NW10qsWNtvqKA9GrzfMX-202">
          <mxGeometry x="140" y="225" width="400" height="445" as="geometry" />
        </mxCell>
        <mxCell id="NW10qsWNtvqKA9GrzfMX-192" value="&lt;div&gt;- inputData: InputData {read only}&lt;/div&gt;&lt;div&gt;- identNumber: IdentNumber&amp;lt;Pair&amp;gt; {read only}&lt;/div&gt;&lt;div&gt;- successors: List&amp;lt;Participant&amp;gt;&lt;/div&gt;&lt;div&gt;- pairIdCounter: int&lt;/div&gt;&lt;div&gt;- pairingWeights123: PairingWeights {read only}&lt;br&gt;&lt;/div&gt;" style="text;strokeColor=none;fillColor=none;align=left;verticalAlign=top;spacingLeft=4;spacingRight=4;overflow=hidden;rotatable=0;points=[[0,0.5],[1,0.5]];portConstraint=eastwest;whiteSpace=wrap;html=1;container=0;" parent="9cCDUhdidDNCYwHO_KRY-1" vertex="1">
          <mxGeometry y="27.547619047619047" width="400" height="89.00000000000001" as="geometry" />
        </mxCell>
        <mxCell id="NW10qsWNtvqKA9GrzfMX-194" value="&lt;div&gt;+ PairList(PairList)&lt;/div&gt;&lt;div&gt;+ PairList(PairingWeights)&lt;/div&gt;&lt;div&gt;+ PairList(List&amp;lt;Pair&amp;gt;)&lt;/div&gt;&lt;div&gt;+ buildBestPairs(List&amp;lt;Participant&amp;gt;, PairingWeights): List&amp;lt;Pair&amp;gt;&lt;/div&gt;&lt;div&gt;&lt;u&gt;- calculatePairScore(Participant, Participant, PairingWeights): double&lt;/u&gt;&lt;/div&gt;&lt;div&gt;&lt;u&gt;- compareKitchen(Participant, Participant): double&lt;/u&gt;&lt;/div&gt;&lt;div&gt;&lt;u&gt;- compareGender(Participant, Participant, PairingWeights): double&lt;/u&gt;&lt;/div&gt;&lt;div&gt;&lt;u&gt;- compareFoodPreference(Participant, Participant, PairingWeights): double&lt;/u&gt;&lt;/div&gt;&lt;div&gt;&lt;u&gt;- compareAge(Participant, Participant, PairingWeights): double&lt;/u&gt;&lt;/div&gt;&lt;div&gt;&lt;u&gt;- sortParticipants(List&amp;lt;Participant&amp;gt;): List&amp;lt;Participant&amp;gt;&lt;/u&gt;&lt;/div&gt;&lt;div&gt;&lt;u&gt;- sortByFoodType(List&amp;lt;Participant&amp;gt;): List&amp;lt;Participant&amp;gt;&lt;/u&gt;&lt;/div&gt;&lt;div&gt;+ getSuccessor(): List&amp;lt;Participant&amp;gt;&lt;/div&gt;&lt;div&gt;+ getPairs(): List&amp;lt;Pair&amp;gt;&lt;/div&gt;&lt;div&gt;- deriveIdentNumber(): IdentNumber&amp;lt;Pair&amp;gt;&lt;/div&gt;&lt;div&gt;- getIdentNumber(): IdentNumber&amp;lt;Pair&amp;gt;&lt;/div&gt;&lt;div&gt;&lt;i&gt;+ evaluate(): double&lt;/i&gt;&lt;/div&gt;&lt;div&gt;+ toString(): String&lt;br&gt;&lt;/div&gt;&lt;div&gt;+ printFoodNumbers(): void&lt;/div&gt;&lt;div&gt;+getPairIdCounterAndIncrement(): int&lt;/div&gt;&lt;div&gt;+ getPairingWeights(): PairingWeights&lt;br&gt;&lt;/div&gt;" style="text;strokeColor=none;fillColor=none;align=left;verticalAlign=top;spacingLeft=4;spacingRight=4;overflow=hidden;rotatable=0;points=[[0,0.5],[1,0.5]];portConstraint=eastwest;whiteSpace=wrap;html=1;container=0;" parent="9cCDUhdidDNCYwHO_KRY-1" vertex="1">
          <mxGeometry y="125.02380952380953" width="400" height="319.97619047619054" as="geometry" />
        </mxCell>
        <mxCell id="NW10qsWNtvqKA9GrzfMX-191" value="PairList" style="swimlane;fontStyle=1;align=center;verticalAlign=top;childLayout=stackLayout;horizontal=1;startSize=26;horizontalStack=0;resizeParent=1;resizeParentMax=0;resizeLast=0;collapsible=1;marginBottom=0;whiteSpace=wrap;html=1;container=0;" parent="9cCDUhdidDNCYwHO_KRY-1" vertex="1">
          <mxGeometry width="400" height="445.00000000000006" as="geometry" />
        </mxCell>
        <mxCell id="9cCDUhdidDNCYwHO_KRY-166" value="creates" style="endArrow=open;html=1;endSize=12;startArrow=diamondThin;startSize=14;startFill=0;edgeStyle=orthogonalEdgeStyle;rounded=0;exitX=0.5;exitY=1;exitDx=0;exitDy=0;entryX=0.75;entryY=1;entryDx=0;entryDy=0;" edge="1" parent="9cCDUhdidDNCYwHO_KRY-1" source="NW10qsWNtvqKA9GrzfMX-191" target="NW10qsWNtvqKA9GrzfMX-191">
          <mxGeometry relative="1" as="geometry">
            <mxPoint x="140" y="455.2298850574713" as="sourcePoint" />
            <mxPoint x="200" y="445" as="targetPoint" />
            <Array as="points">
              <mxPoint x="200" y="485.91954022988506" />
              <mxPoint x="300" y="485.91954022988506" />
            </Array>
          </mxGeometry>
        </mxCell>
        <mxCell id="9cCDUhdidDNCYwHO_KRY-167" value="1" style="edgeLabel;resizable=0;html=1;align=left;verticalAlign=top;" connectable="0" vertex="1" parent="9cCDUhdidDNCYwHO_KRY-166">
          <mxGeometry x="-1" relative="1" as="geometry">
            <mxPoint x="10" y="10" as="offset" />
          </mxGeometry>
        </mxCell>
        <mxCell id="9cCDUhdidDNCYwHO_KRY-7" value="" style="endArrow=block;dashed=1;endFill=0;endSize=12;html=1;rounded=0;" edge="1" parent="NW10qsWNtvqKA9GrzfMX-202">
          <mxGeometry width="160" relative="1" as="geometry">
            <mxPoint x="542" y="308" as="sourcePoint" />
            <mxPoint x="590" y="308" as="targetPoint" />
          </mxGeometry>
        </mxCell>
        <mxCell id="9cCDUhdidDNCYwHO_KRY-8" value="" style="endArrow=block;dashed=1;endFill=0;endSize=12;html=1;rounded=0;exitX=0;exitY=0.5;exitDx=0;exitDy=0;" edge="1" parent="NW10qsWNtvqKA9GrzfMX-202" source="NW10qsWNtvqKA9GrzfMX-196">
          <mxGeometry width="160" relative="1" as="geometry">
            <mxPoint x="440" y="480" as="sourcePoint" />
            <mxPoint x="910" y="310" as="targetPoint" />
          </mxGeometry>
        </mxCell>
        <mxCell id="9cCDUhdidDNCYwHO_KRY-16" value="&lt;div&gt;«bind»&lt;/div&gt;&lt;div&gt;E::Pair&lt;br&gt;&lt;/div&gt;" style="text;html=1;align=center;verticalAlign=middle;whiteSpace=wrap;rounded=0;" vertex="1" parent="NW10qsWNtvqKA9GrzfMX-202">
          <mxGeometry x="535" y="273" width="60" height="30" as="geometry" />
        </mxCell>
        <mxCell id="9cCDUhdidDNCYwHO_KRY-17" value="&lt;div&gt;«bind»&lt;/div&gt;&lt;div&gt;E::Group&lt;br&gt;&lt;/div&gt;" style="text;html=1;align=center;verticalAlign=middle;whiteSpace=wrap;rounded=0;" vertex="1" parent="NW10qsWNtvqKA9GrzfMX-202">
          <mxGeometry x="907" y="273" width="60" height="30" as="geometry" />
        </mxCell>
        <mxCell id="9cCDUhdidDNCYwHO_KRY-68" value="Use" style="endArrow=open;endSize=12;dashed=1;html=1;rounded=0;exitX=0;exitY=0;exitDx=1300;exitDy=407.5;exitPerimeter=0;entryX=-0.002;entryY=0.421;entryDx=0;entryDy=0;entryPerimeter=0;" edge="1" parent="NW10qsWNtvqKA9GrzfMX-202" source="NW10qsWNtvqKA9GrzfMX-123" target="NW10qsWNtvqKA9GrzfMX-121">
          <mxGeometry width="160" relative="1" as="geometry">
            <mxPoint x="1410" y="500" as="sourcePoint" />
            <mxPoint x="1570" y="500" as="targetPoint" />
          </mxGeometry>
        </mxCell>
        <mxCell id="9cCDUhdidDNCYwHO_KRY-69" value="Use" style="endArrow=open;endSize=12;dashed=1;html=1;rounded=0;exitX=0;exitY=0;exitDx=0;exitDy=195;exitPerimeter=0;entryX=1.002;entryY=0.713;entryDx=0;entryDy=0;entryPerimeter=0;" edge="1" parent="NW10qsWNtvqKA9GrzfMX-202" source="NW10qsWNtvqKA9GrzfMX-122" target="NW10qsWNtvqKA9GrzfMX-123">
          <mxGeometry width="160" relative="1" as="geometry">
            <mxPoint x="1460" y="1390" as="sourcePoint" />
            <mxPoint x="1620" y="1390" as="targetPoint" />
          </mxGeometry>
        </mxCell>
        <mxCell id="9cCDUhdidDNCYwHO_KRY-70" value="Use" style="endArrow=open;endSize=12;dashed=1;html=1;rounded=0;entryX=0.279;entryY=1.001;entryDx=0;entryDy=0;entryPerimeter=0;exitX=0;exitY=0;exitDx=330;exitDy=20;exitPerimeter=0;" edge="1" parent="NW10qsWNtvqKA9GrzfMX-202" source="NW10qsWNtvqKA9GrzfMX-122" target="NW10qsWNtvqKA9GrzfMX-121">
          <mxGeometry width="160" relative="1" as="geometry">
            <mxPoint x="1790" y="1180" as="sourcePoint" />
            <mxPoint x="1950" y="1180" as="targetPoint" />
          </mxGeometry>
        </mxCell>
        <mxCell id="9cCDUhdidDNCYwHO_KRY-73" value="" style="endArrow=open;html=1;endSize=12;startArrow=diamondThin;startSize=14;startFill=1;edgeStyle=orthogonalEdgeStyle;align=left;verticalAlign=bottom;rounded=0;exitX=0.456;exitY=0.998;exitDx=0;exitDy=0;exitPerimeter=0;entryX=0;entryY=0.5;entryDx=0;entryDy=0;" edge="1" parent="NW10qsWNtvqKA9GrzfMX-202" source="NW10qsWNtvqKA9GrzfMX-131" target="NW10qsWNtvqKA9GrzfMX-180">
          <mxGeometry x="-0.9552" y="-23" relative="1" as="geometry">
            <mxPoint x="2120" y="760" as="sourcePoint" />
            <mxPoint x="2280" y="760" as="targetPoint" />
            <Array as="points">
              <mxPoint x="2096" y="1050" />
              <mxPoint x="2190" y="1050" />
              <mxPoint x="2190" y="1476" />
            </Array>
            <mxPoint as="offset" />
          </mxGeometry>
        </mxCell>
        <mxCell id="9cCDUhdidDNCYwHO_KRY-108" value="has" style="edgeLabel;html=1;align=center;verticalAlign=middle;resizable=0;points=[];" vertex="1" connectable="0" parent="9cCDUhdidDNCYwHO_KRY-73">
          <mxGeometry x="-0.5198" y="3" relative="1" as="geometry">
            <mxPoint y="-1" as="offset" />
          </mxGeometry>
        </mxCell>
        <mxCell id="9cCDUhdidDNCYwHO_KRY-78" value="1" style="text;html=1;align=center;verticalAlign=middle;whiteSpace=wrap;rounded=0;" vertex="1" parent="NW10qsWNtvqKA9GrzfMX-202">
          <mxGeometry x="2720" y="781" width="60" height="30" as="geometry" />
        </mxCell>
        <mxCell id="9cCDUhdidDNCYwHO_KRY-79" value="1" style="text;html=1;align=center;verticalAlign=middle;whiteSpace=wrap;rounded=0;" vertex="1" parent="NW10qsWNtvqKA9GrzfMX-202">
          <mxGeometry x="2200" y="1440" width="60" height="30" as="geometry" />
        </mxCell>
        <mxCell id="9cCDUhdidDNCYwHO_KRY-96" value="" style="endArrow=open;html=1;endSize=12;startArrow=diamondThin;startSize=14;startFill=1;edgeStyle=orthogonalEdgeStyle;align=left;verticalAlign=bottom;rounded=0;entryX=0.5;entryY=0;entryDx=0;entryDy=0;" edge="1" parent="NW10qsWNtvqKA9GrzfMX-202" target="NW10qsWNtvqKA9GrzfMX-166">
          <mxGeometry x="-0.8314" y="-10" relative="1" as="geometry">
            <mxPoint x="660" y="730" as="sourcePoint" />
            <mxPoint x="900" y="700" as="targetPoint" />
            <Array as="points">
              <mxPoint x="660" y="740" />
              <mxPoint x="315" y="740" />
            </Array>
            <mxPoint x="10" y="10" as="offset" />
          </mxGeometry>
        </mxCell>
        <mxCell id="9cCDUhdidDNCYwHO_KRY-103" value="has" style="edgeLabel;html=1;align=center;verticalAlign=middle;resizable=0;points=[];" vertex="1" connectable="0" parent="9cCDUhdidDNCYwHO_KRY-96">
          <mxGeometry x="-0.3521" y="4" relative="1" as="geometry">
            <mxPoint as="offset" />
          </mxGeometry>
        </mxCell>
        <mxCell id="9cCDUhdidDNCYwHO_KRY-100" value="has" style="endArrow=open;html=1;endSize=12;startArrow=diamondThin;startSize=14;startFill=0;edgeStyle=orthogonalEdgeStyle;rounded=0;exitX=0.5;exitY=1;exitDx=0;exitDy=0;entryX=0.5;entryY=0;entryDx=0;entryDy=0;" edge="1" parent="NW10qsWNtvqKA9GrzfMX-202" source="NW10qsWNtvqKA9GrzfMX-187" target="NW10qsWNtvqKA9GrzfMX-150">
          <mxGeometry relative="1" as="geometry">
            <mxPoint x="770" y="910" as="sourcePoint" />
            <mxPoint x="930" y="910" as="targetPoint" />
            <Array as="points">
              <mxPoint x="749" y="760" />
              <mxPoint x="860" y="760" />
              <mxPoint x="860" y="1140" />
              <mxPoint x="440" y="1140" />
            </Array>
          </mxGeometry>
        </mxCell>
        <mxCell id="9cCDUhdidDNCYwHO_KRY-101" value="&lt;div&gt;1&lt;br&gt;&lt;/div&gt;" style="edgeLabel;resizable=0;html=1;align=left;verticalAlign=top;" connectable="0" vertex="1" parent="9cCDUhdidDNCYwHO_KRY-100">
          <mxGeometry x="-1" relative="1" as="geometry">
            <mxPoint x="12" y="10" as="offset" />
          </mxGeometry>
        </mxCell>
        <mxCell id="9cCDUhdidDNCYwHO_KRY-102" value="1" style="edgeLabel;resizable=0;html=1;align=right;verticalAlign=top;" connectable="0" vertex="1" parent="9cCDUhdidDNCYwHO_KRY-100">
          <mxGeometry x="1" relative="1" as="geometry">
            <mxPoint x="15" y="-61" as="offset" />
          </mxGeometry>
        </mxCell>
        <mxCell id="9cCDUhdidDNCYwHO_KRY-105" value="1" style="endArrow=open;html=1;endSize=12;startArrow=diamondThin;startSize=14;startFill=1;edgeStyle=orthogonalEdgeStyle;align=left;verticalAlign=bottom;rounded=0;exitX=1;exitY=0.5;exitDx=0;exitDy=0;entryX=0;entryY=0.5;entryDx=0;entryDy=0;" edge="1" parent="NW10qsWNtvqKA9GrzfMX-202" source="NW10qsWNtvqKA9GrzfMX-144" target="NW10qsWNtvqKA9GrzfMX-186">
          <mxGeometry x="-0.9198" y="21" relative="1" as="geometry">
            <mxPoint x="1860" y="1520" as="sourcePoint" />
            <mxPoint x="2020" y="1520" as="targetPoint" />
            <Array as="points">
              <mxPoint x="2150" y="1661" />
              <mxPoint x="2150" y="1323" />
            </Array>
            <mxPoint x="-1" as="offset" />
          </mxGeometry>
        </mxCell>
        <mxCell id="9cCDUhdidDNCYwHO_KRY-107" value="has" style="edgeLabel;html=1;align=center;verticalAlign=middle;resizable=0;points=[];" vertex="1" connectable="0" parent="9cCDUhdidDNCYwHO_KRY-105">
          <mxGeometry x="0.1583" relative="1" as="geometry">
            <mxPoint as="offset" />
          </mxGeometry>
        </mxCell>
        <mxCell id="9cCDUhdidDNCYwHO_KRY-106" value="1" style="text;html=1;align=center;verticalAlign=middle;whiteSpace=wrap;rounded=0;" vertex="1" parent="NW10qsWNtvqKA9GrzfMX-202">
          <mxGeometry x="2220" y="1288" width="60" height="30" as="geometry" />
        </mxCell>
        <mxCell id="9cCDUhdidDNCYwHO_KRY-116" value="1" style="text;html=1;align=center;verticalAlign=middle;whiteSpace=wrap;rounded=0;" vertex="1" parent="NW10qsWNtvqKA9GrzfMX-202">
          <mxGeometry x="2590" y="1231" width="60" height="30" as="geometry" />
        </mxCell>
        <mxCell id="9cCDUhdidDNCYwHO_KRY-136" value="0..n" style="text;html=1;align=center;verticalAlign=middle;whiteSpace=wrap;rounded=0;" vertex="1" parent="NW10qsWNtvqKA9GrzfMX-202">
          <mxGeometry x="1650" y="175" width="60" height="30" as="geometry" />
        </mxCell>
        <mxCell id="9cCDUhdidDNCYwHO_KRY-141" value="1" style="endArrow=open;html=1;endSize=12;startArrow=diamondThin;startSize=14;startFill=1;edgeStyle=orthogonalEdgeStyle;align=left;verticalAlign=bottom;rounded=0;exitX=0.75;exitY=0;exitDx=0;exitDy=0;entryX=0.5;entryY=0;entryDx=0;entryDy=0;" edge="1" parent="NW10qsWNtvqKA9GrzfMX-202" source="NW10qsWNtvqKA9GrzfMX-187" target="NW10qsWNtvqKA9GrzfMX-128">
          <mxGeometry x="-0.8098" y="10" relative="1" as="geometry">
            <mxPoint x="780" y="220" as="sourcePoint" />
            <mxPoint x="940" y="220" as="targetPoint" />
            <Array as="points">
              <mxPoint x="828" y="100" />
              <mxPoint x="2110" y="100" />
            </Array>
            <mxPoint as="offset" />
          </mxGeometry>
        </mxCell>
        <mxCell id="9cCDUhdidDNCYwHO_KRY-161" value="has" style="edgeLabel;html=1;align=center;verticalAlign=middle;resizable=0;points=[];" vertex="1" connectable="0" parent="9cCDUhdidDNCYwHO_KRY-141">
          <mxGeometry x="0.3071" y="-3" relative="1" as="geometry">
            <mxPoint as="offset" />
          </mxGeometry>
        </mxCell>
        <mxCell id="9cCDUhdidDNCYwHO_KRY-152" value="creates" style="endArrow=open;html=1;endSize=12;startArrow=diamondThin;startSize=14;startFill=0;edgeStyle=orthogonalEdgeStyle;rounded=0;exitX=0.636;exitY=0;exitDx=0;exitDy=0;exitPerimeter=0;entryX=0;entryY=0.5;entryDx=0;entryDy=0;" edge="1" parent="NW10qsWNtvqKA9GrzfMX-202" source="NW10qsWNtvqKA9GrzfMX-141" target="NW10qsWNtvqKA9GrzfMX-107">
          <mxGeometry relative="1" as="geometry">
            <mxPoint x="1740" y="1220" as="sourcePoint" />
            <mxPoint x="1900" y="1220" as="targetPoint" />
            <Array as="points">
              <mxPoint x="1743" y="1140" />
              <mxPoint x="2700" y="1140" />
              <mxPoint x="2700" y="484" />
            </Array>
          </mxGeometry>
        </mxCell>
        <mxCell id="9cCDUhdidDNCYwHO_KRY-153" value="1" style="edgeLabel;resizable=0;html=1;align=left;verticalAlign=top;" connectable="0" vertex="1" parent="9cCDUhdidDNCYwHO_KRY-152">
          <mxGeometry x="-1" relative="1" as="geometry">
            <mxPoint x="7" y="-42" as="offset" />
          </mxGeometry>
        </mxCell>
        <mxCell id="9cCDUhdidDNCYwHO_KRY-154" value="0..n" style="edgeLabel;resizable=0;html=1;align=right;verticalAlign=top;" connectable="0" vertex="1" parent="9cCDUhdidDNCYwHO_KRY-152">
          <mxGeometry x="1" relative="1" as="geometry">
            <mxPoint x="-21" y="6" as="offset" />
          </mxGeometry>
        </mxCell>
        <mxCell id="9cCDUhdidDNCYwHO_KRY-158" value="1" style="endArrow=open;html=1;endSize=12;startArrow=diamondThin;startSize=14;startFill=1;edgeStyle=orthogonalEdgeStyle;align=left;verticalAlign=bottom;rounded=0;exitX=0.5;exitY=0;exitDx=0;exitDy=0;" edge="1" parent="NW10qsWNtvqKA9GrzfMX-202" source="NW10qsWNtvqKA9GrzfMX-191" target="NW10qsWNtvqKA9GrzfMX-132">
          <mxGeometry x="-0.9935" y="-20" relative="1" as="geometry">
            <mxPoint x="340" y="220" as="sourcePoint" />
            <mxPoint x="500" y="220" as="targetPoint" />
            <Array as="points">
              <mxPoint x="340" y="160" />
              <mxPoint x="1727" y="160" />
            </Array>
            <mxPoint as="offset" />
          </mxGeometry>
        </mxCell>
        <mxCell id="9cCDUhdidDNCYwHO_KRY-160" value="creates" style="edgeLabel;html=1;align=center;verticalAlign=middle;resizable=0;points=[];" vertex="1" connectable="0" parent="9cCDUhdidDNCYwHO_KRY-158">
          <mxGeometry x="-0.583" y="2" relative="1" as="geometry">
            <mxPoint as="offset" />
          </mxGeometry>
        </mxCell>
        <mxCell id="9cCDUhdidDNCYwHO_KRY-159" value="1" style="endArrow=open;html=1;endSize=12;startArrow=diamondThin;startSize=14;startFill=0;edgeStyle=orthogonalEdgeStyle;align=left;verticalAlign=bottom;rounded=0;exitX=0.5;exitY=0;exitDx=0;exitDy=0;entryX=0.5;entryY=0;entryDx=0;entryDy=0;" edge="1" parent="NW10qsWNtvqKA9GrzfMX-202" source="NW10qsWNtvqKA9GrzfMX-195" target="NW10qsWNtvqKA9GrzfMX-136">
          <mxGeometry x="-0.9821" y="-30" relative="1" as="geometry">
            <mxPoint x="1160" y="220" as="sourcePoint" />
            <mxPoint x="1320" y="220" as="targetPoint" />
            <Array as="points">
              <mxPoint x="1160" y="60" />
              <mxPoint x="2488" y="60" />
            </Array>
            <mxPoint as="offset" />
          </mxGeometry>
        </mxCell>
        <mxCell id="9cCDUhdidDNCYwHO_KRY-162" value="creates" style="edgeLabel;html=1;align=center;verticalAlign=middle;resizable=0;points=[];" vertex="1" connectable="0" parent="9cCDUhdidDNCYwHO_KRY-159">
          <mxGeometry x="-0.0145" y="4" relative="1" as="geometry">
            <mxPoint as="offset" />
          </mxGeometry>
        </mxCell>
        <mxCell id="9cCDUhdidDNCYwHO_KRY-163" value="creates" style="endArrow=open;html=1;endSize=12;startArrow=diamondThin;startSize=14;startFill=0;edgeStyle=orthogonalEdgeStyle;rounded=0;exitX=0.25;exitY=1;exitDx=0;exitDy=0;entryX=0.5;entryY=1;entryDx=0;entryDy=0;" edge="1" parent="NW10qsWNtvqKA9GrzfMX-202" source="NW10qsWNtvqKA9GrzfMX-195" target="NW10qsWNtvqKA9GrzfMX-195">
          <mxGeometry relative="1" as="geometry">
            <mxPoint x="1130" y="810" as="sourcePoint" />
            <mxPoint x="1290" y="810" as="targetPoint" />
            <Array as="points">
              <mxPoint x="1060" y="860" />
              <mxPoint x="1160" y="860" />
            </Array>
          </mxGeometry>
        </mxCell>
        <mxCell id="9cCDUhdidDNCYwHO_KRY-164" value="1" style="edgeLabel;resizable=0;html=1;align=left;verticalAlign=top;" connectable="0" vertex="1" parent="9cCDUhdidDNCYwHO_KRY-163">
          <mxGeometry x="-1" relative="1" as="geometry">
            <mxPoint x="10" y="9" as="offset" />
          </mxGeometry>
        </mxCell>
        <mxCell id="NW10qsWNtvqKA9GrzfMX-61" value="" style="group" parent="WIyWlLk6GJQsqaUBKTNV-1" vertex="1" connectable="0">
          <mxGeometry x="-4575.51" y="1390" width="1285.52" height="1040" as="geometry" />
        </mxCell>
        <mxCell id="NW10qsWNtvqKA9GrzfMX-23" value="FXMLControllers" style="shape=folder;fontStyle=1;spacingTop=-5;tabWidth=100;tabHeight=20;tabPosition=left;html=1;whiteSpace=wrap;align=left;verticalAlign=top;" parent="NW10qsWNtvqKA9GrzfMX-61" vertex="1">
          <mxGeometry width="1285.52" height="1040" as="geometry" />
        </mxCell>
        <mxCell id="NW10qsWNtvqKA9GrzfMX-33" value="GroupListComparisonController" style="swimlane;fontStyle=1;align=center;verticalAlign=top;childLayout=stackLayout;horizontal=1;startSize=26;horizontalStack=0;resizeParent=1;resizeParentMax=0;resizeLast=0;collapsible=1;marginBottom=0;whiteSpace=wrap;html=1;" parent="NW10qsWNtvqKA9GrzfMX-61" vertex="1">
          <mxGeometry x="459.5480944881889" y="478.40000000000003" width="435.25480314960623" height="342.16" as="geometry" />
        </mxCell>
        <mxCell id="NW10qsWNtvqKA9GrzfMX-34" value="&lt;div&gt;&lt;u&gt;- languageController: LanguageController {read only}&lt;br&gt;&lt;/u&gt;&lt;/div&gt;&lt;div&gt;- groupListOne: GroupList&lt;/div&gt;&lt;div&gt;- groupListTwo: GroupList&lt;/div&gt;&lt;div&gt;- pairList: PairList&lt;/div&gt;&lt;div&gt;- identNumberOne: IdentNumber&lt;/div&gt;&lt;div&gt;- identNumberTwo: IdentNumber&lt;/div&gt;" style="text;strokeColor=none;fillColor=none;align=left;verticalAlign=top;spacingLeft=4;spacingRight=4;overflow=hidden;rotatable=0;points=[[0,0.5],[1,0.5]];portConstraint=eastwest;whiteSpace=wrap;html=1;" parent="NW10qsWNtvqKA9GrzfMX-33" vertex="1">
          <mxGeometry y="26" width="435.25480314960623" height="97.76" as="geometry" />
        </mxCell>
        <mxCell id="NW10qsWNtvqKA9GrzfMX-35" value="" style="line;strokeWidth=1;fillColor=none;align=left;verticalAlign=middle;spacingTop=-1;spacingLeft=3;spacingRight=3;rotatable=0;labelPosition=right;points=[];portConstraint=eastwest;strokeColor=inherit;" parent="NW10qsWNtvqKA9GrzfMX-33" vertex="1">
          <mxGeometry y="123.76" width="435.25480314960623" height="8.32" as="geometry" />
        </mxCell>
        <mxCell id="NW10qsWNtvqKA9GrzfMX-36" value="&lt;div&gt;- initialize(): void&lt;/div&gt;&lt;div&gt;- bindAllComponents(): void&lt;/div&gt;&lt;div&gt;+ init(Window, PairList): void&lt;/div&gt;&lt;div&gt;- getGroupList1(): GroupList&lt;/div&gt;&lt;div&gt;- getGroupList2(): GroupList&lt;/div&gt;&lt;div&gt;~ editWeightsList1(ActionEvent): void&lt;/div&gt;&lt;div&gt;~ editWeightsList2(ActionEvent): void&lt;/div&gt;&lt;div&gt;- writeGroupDataToTab(TableView&amp;lt;Group&amp;gt;, GroupList, ListView&amp;lt;String&amp;gt;): void&lt;br&gt;&lt;/div&gt;&lt;div&gt;- writeIdentNumbersToTab(ListView&amp;lt;String&amp;gt;, GroupList): void&lt;/div&gt;&lt;div&gt;- setupGroupListValueFactories(TableColumn&amp;lt;Group, Integer&amp;gt;, TableColumn&amp;lt;Group, Integer&amp;gt;, TableColumn&amp;lt;Group, Integer&amp;gt;, TableColumn&amp;lt;Group, Integer&amp;gt;, TableColumn&amp;lt;Group, String&amp;gt;, TableColumn&amp;lt;Group, String&amp;gt;, TableColumn&amp;lt;Group, Integer&amp;gt;): void&lt;br&gt;&lt;/div&gt;" style="text;strokeColor=none;fillColor=none;align=left;verticalAlign=top;spacingLeft=4;spacingRight=4;overflow=hidden;rotatable=0;points=[[0,0.5],[1,0.5]];portConstraint=eastwest;whiteSpace=wrap;html=1;" parent="NW10qsWNtvqKA9GrzfMX-33" vertex="1">
          <mxGeometry y="132.08" width="435.25480314960623" height="210.08" as="geometry" />
        </mxCell>
        <mxCell id="NW10qsWNtvqKA9GrzfMX-37" value="GroupWeightsController" style="swimlane;fontStyle=1;align=center;verticalAlign=top;childLayout=stackLayout;horizontal=1;startSize=26;horizontalStack=0;resizeParent=1;resizeParentMax=0;resizeLast=0;collapsible=1;marginBottom=0;whiteSpace=wrap;html=1;" parent="NW10qsWNtvqKA9GrzfMX-61" vertex="1">
          <mxGeometry x="931.2428346456692" y="665.6" width="303.66614173228345" height="134.16" as="geometry" />
        </mxCell>
        <mxCell id="NW10qsWNtvqKA9GrzfMX-38" value="&lt;div&gt;&lt;u&gt;- languageController: LanguageController {read only}&lt;br&gt;&lt;/u&gt;&lt;/div&gt;" style="text;strokeColor=none;fillColor=none;align=left;verticalAlign=top;spacingLeft=4;spacingRight=4;overflow=hidden;rotatable=0;points=[[0,0.5],[1,0.5]];portConstraint=eastwest;whiteSpace=wrap;html=1;" parent="NW10qsWNtvqKA9GrzfMX-37" vertex="1">
          <mxGeometry y="26" width="303.66614173228345" height="24.96" as="geometry" />
        </mxCell>
        <mxCell id="NW10qsWNtvqKA9GrzfMX-39" value="" style="line;strokeWidth=1;fillColor=none;align=left;verticalAlign=middle;spacingTop=-1;spacingLeft=3;spacingRight=3;rotatable=0;labelPosition=right;points=[];portConstraint=eastwest;strokeColor=inherit;" parent="NW10qsWNtvqKA9GrzfMX-37" vertex="1">
          <mxGeometry y="50.96" width="303.66614173228345" height="8.32" as="geometry" />
        </mxCell>
        <mxCell id="NW10qsWNtvqKA9GrzfMX-40" value="&lt;div&gt;- initialize(): void&lt;/div&gt;&lt;div&gt;- bindAllComponents(): void&lt;br&gt;&lt;/div&gt;&lt;div&gt;+ init(Window): void&lt;/div&gt;- getGroupWeights(): GroupWeights" style="text;strokeColor=none;fillColor=none;align=left;verticalAlign=top;spacingLeft=4;spacingRight=4;overflow=hidden;rotatable=0;points=[[0,0.5],[1,0.5]];portConstraint=eastwest;whiteSpace=wrap;html=1;" parent="NW10qsWNtvqKA9GrzfMX-37" vertex="1">
          <mxGeometry y="59.28" width="303.66614173228345" height="74.88" as="geometry" />
        </mxCell>
        <mxCell id="NW10qsWNtvqKA9GrzfMX-41" value="PairingWeightsController" style="swimlane;fontStyle=1;align=center;verticalAlign=top;childLayout=stackLayout;horizontal=1;startSize=26;horizontalStack=0;resizeParent=1;resizeParentMax=0;resizeLast=0;collapsible=1;marginBottom=0;whiteSpace=wrap;html=1;" parent="NW10qsWNtvqKA9GrzfMX-61" vertex="1">
          <mxGeometry x="931.2428346456692" y="478.40000000000003" width="303.66614173228345" height="134.16" as="geometry" />
        </mxCell>
        <mxCell id="NW10qsWNtvqKA9GrzfMX-42" value="&lt;div&gt;&lt;u&gt;- languageController: LanguageController {rad only}&lt;br&gt;&lt;/u&gt;&lt;/div&gt;" style="text;strokeColor=none;fillColor=none;align=left;verticalAlign=top;spacingLeft=4;spacingRight=4;overflow=hidden;rotatable=0;points=[[0,0.5],[1,0.5]];portConstraint=eastwest;whiteSpace=wrap;html=1;" parent="NW10qsWNtvqKA9GrzfMX-41" vertex="1">
          <mxGeometry y="26" width="303.66614173228345" height="27.04" as="geometry" />
        </mxCell>
        <mxCell id="NW10qsWNtvqKA9GrzfMX-43" value="" style="line;strokeWidth=1;fillColor=none;align=left;verticalAlign=middle;spacingTop=-1;spacingLeft=3;spacingRight=3;rotatable=0;labelPosition=right;points=[];portConstraint=eastwest;strokeColor=inherit;" parent="NW10qsWNtvqKA9GrzfMX-41" vertex="1">
          <mxGeometry y="53.04" width="303.66614173228345" height="8.32" as="geometry" />
        </mxCell>
        <mxCell id="NW10qsWNtvqKA9GrzfMX-44" value="&lt;div&gt;- initialize(): void&lt;/div&gt;&lt;div&gt;- bindAllComponents(): void&lt;br&gt;&lt;/div&gt;&lt;div&gt;+ init(Window): void&lt;/div&gt;- getPairingWeights(): PairingWeights" style="text;strokeColor=none;fillColor=none;align=left;verticalAlign=top;spacingLeft=4;spacingRight=4;overflow=hidden;rotatable=0;points=[[0,0.5],[1,0.5]];portConstraint=eastwest;whiteSpace=wrap;html=1;" parent="NW10qsWNtvqKA9GrzfMX-41" vertex="1">
          <mxGeometry y="61.36" width="303.66614173228345" height="72.8" as="geometry" />
        </mxCell>
        <mxCell id="NW10qsWNtvqKA9GrzfMX-45" value="PairListComparisonController" style="swimlane;fontStyle=1;align=center;verticalAlign=top;childLayout=stackLayout;horizontal=1;startSize=26;horizontalStack=0;resizeParent=1;resizeParentMax=0;resizeLast=0;collapsible=1;marginBottom=0;whiteSpace=wrap;html=1;" parent="NW10qsWNtvqKA9GrzfMX-61" vertex="1">
          <mxGeometry x="459.5480944881889" y="41.6" width="394.76598425196846" height="394.16" as="geometry" />
        </mxCell>
        <mxCell id="NW10qsWNtvqKA9GrzfMX-46" value="&lt;div&gt;&lt;u&gt;- languageController: LanguageController {read only}&lt;br&gt;&lt;/u&gt;&lt;/div&gt;&lt;div&gt;&lt;u&gt;- pairList1: PairList&lt;/u&gt;&lt;/div&gt;&lt;div&gt;- pairList2: PairList&lt;/div&gt;&lt;div&gt;- pairIdentNumber1: IdentNumber&lt;/div&gt;&lt;div&gt;- pairIdentNumber2: IdentNumber&lt;br&gt;&lt;/div&gt;" style="text;strokeColor=none;fillColor=none;align=left;verticalAlign=top;spacingLeft=4;spacingRight=4;overflow=hidden;rotatable=0;points=[[0,0.5],[1,0.5]];portConstraint=eastwest;whiteSpace=wrap;html=1;" parent="NW10qsWNtvqKA9GrzfMX-45" vertex="1">
          <mxGeometry y="26" width="394.76598425196846" height="87.36" as="geometry" />
        </mxCell>
        <mxCell id="NW10qsWNtvqKA9GrzfMX-47" value="" style="line;strokeWidth=1;fillColor=none;align=left;verticalAlign=middle;spacingTop=-1;spacingLeft=3;spacingRight=3;rotatable=0;labelPosition=right;points=[];portConstraint=eastwest;strokeColor=inherit;" parent="NW10qsWNtvqKA9GrzfMX-45" vertex="1">
          <mxGeometry y="113.36" width="394.76598425196846" height="8.32" as="geometry" />
        </mxCell>
        <mxCell id="NW10qsWNtvqKA9GrzfMX-48" value="&lt;div&gt;- initialize(): void&lt;/div&gt;&lt;div&gt;- bindAllComponents(): void&lt;/div&gt;&lt;div&gt;+ init(Window, PairList): void&lt;/div&gt;&lt;div&gt;- getPairList1(): GroupList&lt;/div&gt;&lt;div&gt;- getPairList2(): GroupList&lt;/div&gt;&lt;div&gt;~ editWeightsList1(ActionEvent): void&lt;/div&gt;&lt;div&gt;~ editWeightsList2(ActionEvent): void&lt;/div&gt;&lt;div&gt;- writePairDataToTab(TableView&amp;lt;Group&amp;gt;, GroupList, ListView&amp;lt;String&amp;gt;): void&lt;br&gt;&lt;/div&gt;&lt;div&gt;- writeIdentNumbersToTab(ListView&amp;lt;String&amp;gt;, GroupList): void&lt;/div&gt;&lt;div&gt;- setupValueFactories(TableColumn&amp;lt;Pair, Integer&amp;gt;, &lt;br&gt;TableColumn&amp;lt;Pair, String&amp;gt;, TableColumn&amp;lt;Pair, String&amp;gt;, &lt;br&gt;TableColumn&amp;lt;Pair, String&amp;gt;, TableColumn&amp;lt;Pair, String&amp;gt;, &lt;br&gt;TableColumn&amp;lt;Pair, String&amp;gt;, TableColumn&amp;lt;Pair, String&amp;gt;, TableColumn&amp;lt;Pair, Boolean&amp;gt;): void&lt;/div&gt;&lt;div&gt;+ setInitialList1(PairList): void&lt;/div&gt;&lt;div&gt;+ setInitialList2(PairList): void&lt;br&gt;&lt;/div&gt;" style="text;strokeColor=none;fillColor=none;align=left;verticalAlign=top;spacingLeft=4;spacingRight=4;overflow=hidden;rotatable=0;points=[[0,0.5],[1,0.5]];portConstraint=eastwest;whiteSpace=wrap;html=1;" parent="NW10qsWNtvqKA9GrzfMX-45" vertex="1">
          <mxGeometry y="121.68" width="394.76598425196846" height="272.48" as="geometry" />
        </mxCell>
        <mxCell id="NW10qsWNtvqKA9GrzfMX-49" value="PairsFromGroupController" style="swimlane;fontStyle=1;align=center;verticalAlign=top;childLayout=stackLayout;horizontal=1;startSize=26;horizontalStack=0;resizeParent=1;resizeParentMax=0;resizeLast=0;collapsible=1;marginBottom=0;whiteSpace=wrap;html=1;" parent="NW10qsWNtvqKA9GrzfMX-61" vertex="1">
          <mxGeometry x="459.5480944881889" y="852.8000000000001" width="299.6172598425197" height="165.36" as="geometry" />
        </mxCell>
        <mxCell id="NW10qsWNtvqKA9GrzfMX-50" value="&lt;div&gt;&lt;u&gt;- languageController: LanguageController {read only}&lt;br&gt;&lt;/u&gt;&lt;/div&gt;&lt;div&gt;- pairs: Pair[]&lt;u&gt;&lt;br&gt;&lt;/u&gt;&lt;/div&gt;&lt;div&gt;&lt;u&gt;&lt;br&gt;&lt;/u&gt;&lt;/div&gt;" style="text;strokeColor=none;fillColor=none;align=left;verticalAlign=top;spacingLeft=4;spacingRight=4;overflow=hidden;rotatable=0;points=[[0,0.5],[1,0.5]];portConstraint=eastwest;whiteSpace=wrap;html=1;" parent="NW10qsWNtvqKA9GrzfMX-49" vertex="1">
          <mxGeometry y="26" width="299.6172598425197" height="45.760000000000005" as="geometry" />
        </mxCell>
        <mxCell id="NW10qsWNtvqKA9GrzfMX-51" value="" style="line;strokeWidth=1;fillColor=none;align=left;verticalAlign=middle;spacingTop=-1;spacingLeft=3;spacingRight=3;rotatable=0;labelPosition=right;points=[];portConstraint=eastwest;strokeColor=inherit;" parent="NW10qsWNtvqKA9GrzfMX-49" vertex="1">
          <mxGeometry y="71.76" width="299.6172598425197" height="8.32" as="geometry" />
        </mxCell>
        <mxCell id="NW10qsWNtvqKA9GrzfMX-52" value="&lt;div&gt;- initialize(): void&lt;/div&gt;&lt;div&gt;- bindAllComponents(): void&lt;/div&gt;&lt;div&gt;+ init(Window, PairList): void&lt;/div&gt;&lt;div&gt;# writePairDataToTab(): void&lt;/div&gt;&lt;div&gt;# setupPairListValueFactories(): void&lt;br&gt;&lt;/div&gt;" style="text;strokeColor=none;fillColor=none;align=left;verticalAlign=top;spacingLeft=4;spacingRight=4;overflow=hidden;rotatable=0;points=[[0,0.5],[1,0.5]];portConstraint=eastwest;whiteSpace=wrap;html=1;" parent="NW10qsWNtvqKA9GrzfMX-49" vertex="1">
          <mxGeometry y="80.08000000000001" width="299.6172598425197" height="85.28" as="geometry" />
        </mxCell>
        <mxCell id="NW10qsWNtvqKA9GrzfMX-53" value="UnsubscriberController" style="swimlane;fontStyle=1;align=center;verticalAlign=top;childLayout=stackLayout;horizontal=1;startSize=26;horizontalStack=0;resizeParent=1;resizeParentMax=0;resizeLast=0;collapsible=1;marginBottom=0;whiteSpace=wrap;html=1;" parent="NW10qsWNtvqKA9GrzfMX-61" vertex="1">
          <mxGeometry x="931.2428346456692" y="104" width="344.15496062992133" height="258.96000000000004" as="geometry" />
        </mxCell>
        <mxCell id="NW10qsWNtvqKA9GrzfMX-54" value="&lt;div&gt;&lt;u&gt;- languageController: LanguageController {read only}&lt;br&gt;&lt;/u&gt;&lt;/div&gt;&lt;div&gt;- participant: Participant&lt;/div&gt;&lt;div&gt;- pairLIst: PairList&lt;br&gt;&lt;/div&gt;&lt;div&gt;- groupList: GroupList&lt;br&gt;&lt;/div&gt;" style="text;strokeColor=none;fillColor=none;align=left;verticalAlign=top;spacingLeft=4;spacingRight=4;overflow=hidden;rotatable=0;points=[[0,0.5],[1,0.5]];portConstraint=eastwest;whiteSpace=wrap;html=1;" parent="NW10qsWNtvqKA9GrzfMX-53" vertex="1">
          <mxGeometry y="26" width="344.15496062992133" height="66.56" as="geometry" />
        </mxCell>
        <mxCell id="NW10qsWNtvqKA9GrzfMX-55" value="" style="line;strokeWidth=1;fillColor=none;align=left;verticalAlign=middle;spacingTop=-1;spacingLeft=3;spacingRight=3;rotatable=0;labelPosition=right;points=[];portConstraint=eastwest;strokeColor=inherit;" parent="NW10qsWNtvqKA9GrzfMX-53" vertex="1">
          <mxGeometry y="92.56" width="344.15496062992133" height="8.32" as="geometry" />
        </mxCell>
        <mxCell id="NW10qsWNtvqKA9GrzfMX-56" value="&lt;div&gt;- initialize(): void&lt;/div&gt;&lt;div&gt;- bindAllComponents(): void&lt;/div&gt;&lt;div&gt;+ initData(Participant, PairList, GroupList, Windows): void&lt;br&gt;&lt;/div&gt;&lt;div&gt;- getSuccessorList(): List&amp;lt;Participant&amp;gt;&lt;/div&gt;&lt;div&gt;~ handleLogOut(ActionEvent): void&lt;/div&gt;&lt;div&gt;~ handleSubstitution(ActionEvent): void&lt;/div&gt;&lt;div&gt;~ handleLogOutAsPair(ActionEvent): void&lt;/div&gt;&lt;div&gt;- replaceParticipant(Participant, Participant): void&lt;/div&gt;&lt;div&gt;- closeWindow(): void&lt;/div&gt;&lt;div&gt;- getPairList(): PairList&lt;br&gt;&lt;/div&gt;" style="text;strokeColor=none;fillColor=none;align=left;verticalAlign=top;spacingLeft=4;spacingRight=4;overflow=hidden;rotatable=0;points=[[0,0.5],[1,0.5]];portConstraint=eastwest;whiteSpace=wrap;html=1;" parent="NW10qsWNtvqKA9GrzfMX-53" vertex="1">
          <mxGeometry y="100.88" width="344.15496062992133" height="158.08" as="geometry" />
        </mxCell>
        <mxCell id="NW10qsWNtvqKA9GrzfMX-57" value="MainController" style="swimlane;fontStyle=1;align=center;verticalAlign=top;childLayout=stackLayout;horizontal=1;startSize=26;horizontalStack=0;resizeParent=1;resizeParentMax=0;resizeLast=0;collapsible=1;marginBottom=0;whiteSpace=wrap;html=1;" parent="NW10qsWNtvqKA9GrzfMX-61" vertex="1">
          <mxGeometry x="27.32995275590551" y="41.6" width="397.8026456692913" height="986.96" as="geometry" />
        </mxCell>
        <mxCell id="NW10qsWNtvqKA9GrzfMX-58" value="&lt;div&gt;&lt;u&gt;- inputData: InputData {read only}&lt;br&gt;&lt;/u&gt;&lt;/div&gt;&lt;div&gt;&lt;u&gt;- languageController: LanguageController {read only}&lt;br&gt;&lt;/u&gt;&lt;/div&gt;&lt;div&gt;- pairList: PairList&lt;/div&gt;&lt;div&gt;- groupList: GroupList&lt;/div&gt;&lt;div&gt;- pairIdentNumber: IdentNumber&lt;/div&gt;&lt;div&gt;- groupIdentNumber: IdentNumber&lt;/div&gt;&lt;div&gt;- pairingWeights: PairingWeights&lt;/div&gt;&lt;div&gt;- groupWeights: GroupWeights&lt;/div&gt;&lt;div&gt;- participantListPath: String&lt;/div&gt;&lt;div&gt;- locationPath: String&lt;/div&gt;&lt;div&gt;&lt;u&gt;- state: State&lt;/u&gt;&lt;br&gt;&lt;/div&gt;" style="text;strokeColor=none;fillColor=none;align=left;verticalAlign=top;spacingLeft=4;spacingRight=4;overflow=hidden;rotatable=0;points=[[0,0.5],[1,0.5]];portConstraint=eastwest;whiteSpace=wrap;html=1;" parent="NW10qsWNtvqKA9GrzfMX-57" vertex="1">
          <mxGeometry y="26" width="397.8026456692913" height="170.56" as="geometry" />
        </mxCell>
        <mxCell id="NW10qsWNtvqKA9GrzfMX-59" value="" style="line;strokeWidth=1;fillColor=none;align=left;verticalAlign=middle;spacingTop=-1;spacingLeft=3;spacingRight=3;rotatable=0;labelPosition=right;points=[];portConstraint=eastwest;strokeColor=inherit;" parent="NW10qsWNtvqKA9GrzfMX-57" vertex="1">
          <mxGeometry y="196.56" width="397.8026456692913" height="8.32" as="geometry" />
        </mxCell>
        <mxCell id="NW10qsWNtvqKA9GrzfMX-60" value="&lt;div&gt;+ initialize(): void&lt;/div&gt;&lt;div&gt;- bindAllComponents(): void&lt;/div&gt;&lt;div&gt;&lt;u&gt;# addListenersToTable&amp;lt;E&amp;gt;(TableView&amp;lt;E&amp;gt;): void&lt;/u&gt;&lt;/div&gt;&lt;div&gt;&lt;u&gt;# makeTableNotReorderable&amp;lt;E&amp;gt;(TableView&amp;lt;E&amp;gt;): void&lt;/u&gt;&lt;/div&gt;&lt;div&gt;&lt;u&gt;# adjustColumnWidths&amp;lt;E&amp;gt;(TableView&amp;lt;E&amp;gt;): void&lt;/u&gt;&lt;/div&gt;&lt;div&gt;- getClickedColumn(MouseEvent, TableView&amp;lt;?&amp;gt;): TableColumn&amp;lt;?, ?&amp;gt;&lt;/div&gt;&lt;div&gt;- changeSplitPairButtonActivity(): void&lt;/div&gt;&lt;div&gt;- changeDoPairSuccessorsButtonActivity(): void&lt;/div&gt;&lt;div&gt;- changeSplitGroupButtonActivity(): void&lt;/div&gt;&lt;div&gt;- changeCreatePairButtonActivity(): void&lt;/div&gt;&lt;div&gt;- changeCreateGroupButtonActivity(): void&lt;/div&gt;&lt;div&gt;- changeSplitSuccessorButtonActivity(): void&lt;/div&gt;&lt;div&gt;~ openFileChooserPartList(ActionEvent): void&lt;/div&gt;&lt;div&gt;~ openFileChooserCancelationsList(ActionEvent): void&lt;/div&gt;&lt;div&gt;~ changeLanguageToGerman(ActionEvent): void&lt;/div&gt;&lt;div&gt;~ changeLanguageToEnglish(ActionEvent): void&lt;/div&gt;&lt;div&gt;~ savePairList(ActionEvent): void&lt;/div&gt;&lt;div&gt;~ saveGroupList(ActionEvent): void&lt;/div&gt;&lt;div&gt;~ saveParticipantSuccessors(ActionEvent): void&lt;/div&gt;&lt;div&gt;~ savePairSuccessors(ActionEven): void&lt;/div&gt;&lt;div&gt;~ openFileChooserPartLoc(ActionEvent): void&lt;/div&gt;&lt;div&gt;~ executePairAlgo(ActionEvent): void&lt;/div&gt;&lt;div&gt;~ executeGroupAlgorithm(ActionEvent): void&lt;br&gt;&lt;/div&gt;&lt;div&gt;~ splitPair(ActionEvent): void&lt;/div&gt;&lt;div&gt;~ createPair(ActionEvent): void&lt;/div&gt;&lt;div&gt;~ splitGroup(ActionEvent): void&lt;br&gt;&lt;/div&gt;&lt;div&gt;~ createGroup(ActionEvent): void&lt;/div&gt;&lt;div&gt;~ splitPairSuccessor(ActionEvent): void&lt;/div&gt;&lt;div&gt;&lt;u&gt;- removePair(Pair, PairList, GroupList): void&lt;/u&gt;&lt;/div&gt;&lt;div&gt;&lt;u&gt;+ removeGroupCluster(List&amp;lt;Group&amp;gt;, GroupList): void&lt;/u&gt;&lt;/div&gt;&lt;div&gt;&lt;u&gt;+ getGroupCluster(Group): List&amp;lt;Group&amp;gt;&lt;/u&gt;&lt;/div&gt;&lt;div&gt;# writePairDataToTab(): void&lt;br&gt;&lt;/div&gt;&lt;div&gt;# writeGroupDataToTab(): void&lt;/div&gt;&lt;div&gt;# setupPairListValueFactories(): void&lt;/div&gt;&lt;div&gt;# setupGroupListValueFactories(): void&lt;/div&gt;&lt;div&gt;# setupParticipantSuccessorsValueFactories(): void&lt;/div&gt;&lt;div&gt;# setupPairSuccessorsValueFactories(): void&lt;/div&gt;&lt;div&gt;- writePairListIdentNumbersToTab(): void&lt;/div&gt;&lt;div&gt;- writeGroupListIdentNumbersToTab(): void&lt;/div&gt;&lt;div&gt;- writePairListSuccessorToTab(): void&lt;/div&gt;&lt;div&gt;- writeGroupListSuccessorsToTab(): void&lt;/div&gt;&lt;div&gt;~ comparePairList(ActionEvent): void&lt;/div&gt;&lt;div&gt;~ compareGroupList(ActionEvent): void&lt;/div&gt;&lt;div&gt;- showUnsubscriberDialog(Participant): void&lt;/div&gt;&lt;div&gt;- replaceGroupData(): void&lt;/div&gt;&lt;div&gt;- updatePairTable(): void&lt;/div&gt;&lt;div&gt;- updateGroupTable(): void&lt;/div&gt;&lt;div&gt;+ updateTables(): void&lt;/div&gt;&lt;div&gt;- updateState(): void&lt;/div&gt;&lt;div&gt;~ doPairSuccessorsMethod(ActionEvent): void&lt;/div&gt;&lt;div&gt;~ goBackState(ActionEvent): void&lt;br&gt;&lt;/div&gt;" style="text;strokeColor=none;fillColor=none;align=left;verticalAlign=top;spacingLeft=4;spacingRight=4;overflow=hidden;rotatable=0;points=[[0,0.5],[1,0.5]];portConstraint=eastwest;whiteSpace=wrap;html=1;" parent="NW10qsWNtvqKA9GrzfMX-57" vertex="1">
          <mxGeometry y="204.88" width="397.8026456692913" height="782.08" as="geometry" />
        </mxCell>
        <mxCell id="9cCDUhdidDNCYwHO_KRY-176" value="" style="endArrow=open;endFill=1;endSize=12;html=1;rounded=0;entryX=0.25;entryY=1;entryDx=0;entryDy=0;" edge="1" parent="NW10qsWNtvqKA9GrzfMX-57" target="NW10qsWNtvqKA9GrzfMX-191">
          <mxGeometry width="160" relative="1" as="geometry">
            <mxPoint x="108.18004724409457" y="-1.599999999999909" as="sourcePoint" />
            <mxPoint x="268.18004724409457" y="-1.599999999999909" as="targetPoint" />
            <Array as="points">
              <mxPoint x="108.18004724409457" y="-361.5999999999999" />
              <mxPoint x="108.18004724409457" y="-661.5999999999999" />
              <mxPoint x="78.18004724409457" y="-661.5999999999999" />
              <mxPoint x="78.18004724409457" y="-1471.6" />
              <mxPoint x="198.18004724409457" y="-1471.6" />
            </Array>
          </mxGeometry>
        </mxCell>
        <mxCell id="9cCDUhdidDNCYwHO_KRY-178" value="calls" style="edgeLabel;html=1;align=center;verticalAlign=middle;resizable=0;points=[];" vertex="1" connectable="0" parent="9cCDUhdidDNCYwHO_KRY-176">
          <mxGeometry x="-0.8657" y="-3" relative="1" as="geometry">
            <mxPoint y="1" as="offset" />
          </mxGeometry>
        </mxCell>
        <mxCell id="9cCDUhdidDNCYwHO_KRY-39" value="&lt;div&gt;«bind»&lt;/div&gt;&lt;div&gt;R::PairList&lt;br&gt;&lt;/div&gt;" style="text;html=1;align=center;verticalAlign=middle;whiteSpace=wrap;rounded=0;" vertex="1" parent="NW10qsWNtvqKA9GrzfMX-61">
          <mxGeometry x="816.5106275221956" y="863.2" width="75.49005801723254" height="31.200000000000003" as="geometry" />
        </mxCell>
        <mxCell id="9cCDUhdidDNCYwHO_KRY-44" value="&lt;div&gt;«bind»&lt;/div&gt;&lt;div&gt;R::PairList&lt;br&gt;&lt;/div&gt;" style="text;html=1;align=center;verticalAlign=middle;whiteSpace=wrap;rounded=0;" vertex="1" parent="NW10qsWNtvqKA9GrzfMX-61">
          <mxGeometry x="915.5119158284756" y="946.4" width="60.000046112517595" height="31.200000000000003" as="geometry" />
        </mxCell>
        <mxCell id="9cCDUhdidDNCYwHO_KRY-171" value="" style="endArrow=open;endFill=1;endSize=12;html=1;rounded=0;entryX=0.791;entryY=0.997;entryDx=0;entryDy=0;entryPerimeter=0;" edge="1" parent="NW10qsWNtvqKA9GrzfMX-61" target="NW10qsWNtvqKA9GrzfMX-36">
          <mxGeometry width="160" relative="1" as="geometry">
            <mxPoint x="585.5100000000002" y="1070" as="sourcePoint" />
            <mxPoint x="745.5100000000002" y="1070" as="targetPoint" />
            <Array as="points">
              <mxPoint x="803.5100000000002" y="1070" />
            </Array>
          </mxGeometry>
        </mxCell>
        <mxCell id="9cCDUhdidDNCYwHO_KRY-175" value="" style="endArrow=open;endFill=1;endSize=12;html=1;rounded=0;entryX=1;entryY=0.5;entryDx=0;entryDy=0;" edge="1" parent="NW10qsWNtvqKA9GrzfMX-61" target="NW10qsWNtvqKA9GrzfMX-48">
          <mxGeometry width="160" relative="1" as="geometry">
            <mxPoint x="1135.5100000000002" y="400" as="sourcePoint" />
            <mxPoint x="1085.5100000000002" y="370" as="targetPoint" />
            <Array as="points">
              <mxPoint x="905.5100000000002" y="400" />
              <mxPoint x="905.5100000000002" y="300" />
            </Array>
          </mxGeometry>
        </mxCell>
        <mxCell id="9cCDUhdidDNCYwHO_KRY-181" value="calls/creates" style="endArrow=open;html=1;endSize=12;startArrow=diamondThin;startSize=14;startFill=0;edgeStyle=orthogonalEdgeStyle;rounded=0;exitX=0.25;exitY=1;exitDx=0;exitDy=0;exitPerimeter=0;entryX=0.427;entryY=1.005;entryDx=0;entryDy=0;entryPerimeter=0;" edge="1" parent="NW10qsWNtvqKA9GrzfMX-61" source="NW10qsWNtvqKA9GrzfMX-23" target="NW10qsWNtvqKA9GrzfMX-52">
          <mxGeometry relative="1" as="geometry">
            <mxPoint x="335.5100000000002" y="1020" as="sourcePoint" />
            <mxPoint x="495.5100000000002" y="1020" as="targetPoint" />
            <Array as="points">
              <mxPoint x="321" y="1070" />
              <mxPoint x="588" y="1070" />
            </Array>
          </mxGeometry>
        </mxCell>
        <mxCell id="9cCDUhdidDNCYwHO_KRY-182" value="1" style="edgeLabel;resizable=0;html=1;align=left;verticalAlign=top;" connectable="0" vertex="1" parent="9cCDUhdidDNCYwHO_KRY-181">
          <mxGeometry x="-1" relative="1" as="geometry">
            <mxPoint x="14" as="offset" />
          </mxGeometry>
        </mxCell>
        <mxCell id="9cCDUhdidDNCYwHO_KRY-183" value="1" style="edgeLabel;resizable=0;html=1;align=right;verticalAlign=top;" connectable="0" vertex="1" parent="9cCDUhdidDNCYwHO_KRY-181">
          <mxGeometry x="1" relative="1" as="geometry">
            <mxPoint x="-12" y="21" as="offset" />
          </mxGeometry>
        </mxCell>
        <mxCell id="9cCDUhdidDNCYwHO_KRY-184" value="1" style="text;html=1;align=center;verticalAlign=middle;whiteSpace=wrap;rounded=0;" vertex="1" parent="NW10qsWNtvqKA9GrzfMX-61">
          <mxGeometry x="755.5100000000002" y="834" width="60" height="30" as="geometry" />
        </mxCell>
        <mxCell id="9cCDUhdidDNCYwHO_KRY-185" value="1" style="text;html=1;align=center;verticalAlign=middle;whiteSpace=wrap;rounded=0;" vertex="1" parent="NW10qsWNtvqKA9GrzfMX-61">
          <mxGeometry x="1105.5100000000002" y="823" width="60" height="30" as="geometry" />
        </mxCell>
        <mxCell id="9cCDUhdidDNCYwHO_KRY-186" value="1" style="text;html=1;align=center;verticalAlign=middle;whiteSpace=wrap;rounded=0;" vertex="1" parent="NW10qsWNtvqKA9GrzfMX-61">
          <mxGeometry x="1105.5100000000002" y="623" width="60" height="30" as="geometry" />
        </mxCell>
        <mxCell id="9cCDUhdidDNCYwHO_KRY-187" value="1" style="text;html=1;align=center;verticalAlign=middle;whiteSpace=wrap;rounded=0;" vertex="1" parent="NW10qsWNtvqKA9GrzfMX-61">
          <mxGeometry x="1150.5100000000002" y="370" width="60" height="30" as="geometry" />
        </mxCell>
        <mxCell id="9cCDUhdidDNCYwHO_KRY-189" value="1" style="text;html=1;align=center;verticalAlign=middle;whiteSpace=wrap;rounded=0;" vertex="1" parent="NW10qsWNtvqKA9GrzfMX-61">
          <mxGeometry x="865.5100000000002" y="269" width="60" height="30" as="geometry" />
        </mxCell>
        <mxCell id="NW10qsWNtvqKA9GrzfMX-21" value="" style="group" parent="WIyWlLk6GJQsqaUBKTNV-1" vertex="1" connectable="0">
          <mxGeometry x="-2560" y="1670" width="480" height="460" as="geometry" />
        </mxCell>
        <mxCell id="NW10qsWNtvqKA9GrzfMX-1" value="&lt;div&gt;view&lt;/div&gt;" style="shape=folder;fontStyle=1;spacingTop=-5;tabWidth=30;tabHeight=20;tabPosition=left;html=1;whiteSpace=wrap;verticalAlign=top;align=left;" parent="NW10qsWNtvqKA9GrzfMX-21" vertex="1">
          <mxGeometry width="480" height="460" as="geometry" />
        </mxCell>
        <mxCell id="NW10qsWNtvqKA9GrzfMX-16" value="" style="group" parent="NW10qsWNtvqKA9GrzfMX-21" vertex="1" connectable="0">
          <mxGeometry x="16" y="130" width="350" height="315" as="geometry" />
        </mxCell>
        <mxCell id="NW10qsWNtvqKA9GrzfMX-6" value="&lt;div&gt;fxml&lt;/div&gt;" style="shape=folder;fontStyle=1;spacingTop=-5;tabWidth=35;tabHeight=20;tabPosition=left;html=1;whiteSpace=wrap;align=left;verticalAlign=top;" parent="NW10qsWNtvqKA9GrzfMX-16" vertex="1">
          <mxGeometry width="350" height="315" as="geometry" />
        </mxCell>
        <mxCell id="NW10qsWNtvqKA9GrzfMX-9" value="«artefact»&lt;br&gt;&lt;div&gt;&lt;b&gt;comparePairList.fxml&lt;/b&gt;&lt;/div&gt;" style="html=1;whiteSpace=wrap;" parent="NW10qsWNtvqKA9GrzfMX-16" vertex="1">
          <mxGeometry x="180" y="105" width="140" height="50" as="geometry" />
        </mxCell>
        <mxCell id="NW10qsWNtvqKA9GrzfMX-10" value="«artefact»&lt;br&gt;&lt;div&gt;&lt;b&gt;unsubscriber.fxml&lt;/b&gt;&lt;/div&gt;" style="html=1;whiteSpace=wrap;" parent="NW10qsWNtvqKA9GrzfMX-16" vertex="1">
          <mxGeometry x="180" y="245" width="110" height="50" as="geometry" />
        </mxCell>
        <mxCell id="NW10qsWNtvqKA9GrzfMX-11" value="«artefact»&lt;br&gt;&lt;div&gt;&lt;b&gt;pairsFromGroup.fxml&lt;/b&gt;&lt;/div&gt;" style="html=1;whiteSpace=wrap;" parent="NW10qsWNtvqKA9GrzfMX-16" vertex="1">
          <mxGeometry x="20" y="245" width="140" height="50" as="geometry" />
        </mxCell>
        <mxCell id="NW10qsWNtvqKA9GrzfMX-12" value="«artefact»&lt;br&gt;&lt;div&gt;&lt;b&gt;pairingWeights.fxml&lt;/b&gt;&lt;/div&gt;" style="html=1;whiteSpace=wrap;" parent="NW10qsWNtvqKA9GrzfMX-16" vertex="1">
          <mxGeometry x="20" y="105" width="130" height="50" as="geometry" />
        </mxCell>
        <mxCell id="NW10qsWNtvqKA9GrzfMX-13" value="&lt;div&gt;«artefact»&lt;/div&gt;&lt;div&gt;&lt;b&gt;groupWeights.fxml&lt;/b&gt;&lt;/div&gt;" style="html=1;whiteSpace=wrap;" parent="NW10qsWNtvqKA9GrzfMX-16" vertex="1">
          <mxGeometry x="20" y="175" width="110" height="50" as="geometry" />
        </mxCell>
        <mxCell id="NW10qsWNtvqKA9GrzfMX-14" value="«artefact»&lt;br&gt;&lt;div&gt;&lt;b&gt;source.fxml&lt;/b&gt;&lt;/div&gt;" style="html=1;whiteSpace=wrap;" parent="NW10qsWNtvqKA9GrzfMX-16" vertex="1">
          <mxGeometry x="20" y="35" width="110" height="50" as="geometry" />
        </mxCell>
        <mxCell id="NW10qsWNtvqKA9GrzfMX-15" value="«artefact»&lt;br&gt;&lt;div&gt;&lt;b&gt;compareGroupList.fxml&lt;/b&gt;&lt;/div&gt;" style="html=1;whiteSpace=wrap;" parent="NW10qsWNtvqKA9GrzfMX-16" vertex="1">
          <mxGeometry x="180" y="175" width="150" height="50" as="geometry" />
        </mxCell>
        <mxCell id="NW10qsWNtvqKA9GrzfMX-17" value="MainFrame" style="swimlane;fontStyle=1;align=center;verticalAlign=top;childLayout=stackLayout;horizontal=1;startSize=26;horizontalStack=0;resizeParent=1;resizeParentMax=0;resizeLast=0;collapsible=1;marginBottom=0;whiteSpace=wrap;html=1;" parent="NW10qsWNtvqKA9GrzfMX-21" vertex="1">
          <mxGeometry x="126" y="40" width="160" height="80" as="geometry" />
        </mxCell>
        <mxCell id="NW10qsWNtvqKA9GrzfMX-19" value="" style="line;strokeWidth=1;fillColor=none;align=left;verticalAlign=middle;spacingTop=-1;spacingLeft=3;spacingRight=3;rotatable=0;labelPosition=right;points=[];portConstraint=eastwest;strokeColor=inherit;" parent="NW10qsWNtvqKA9GrzfMX-17" vertex="1">
          <mxGeometry y="26" width="160" height="8" as="geometry" />
        </mxCell>
        <mxCell id="NW10qsWNtvqKA9GrzfMX-20" value="&lt;div&gt;+ start(Stage): void&lt;/div&gt;&lt;div&gt;+ main(): void&lt;br&gt;&lt;/div&gt;" style="text;strokeColor=none;fillColor=none;align=left;verticalAlign=top;spacingLeft=4;spacingRight=4;overflow=hidden;rotatable=0;points=[[0,0.5],[1,0.5]];portConstraint=eastwest;whiteSpace=wrap;html=1;" parent="NW10qsWNtvqKA9GrzfMX-17" vertex="1">
          <mxGeometry y="34" width="160" height="46" as="geometry" />
        </mxCell>
        <mxCell id="9cCDUhdidDNCYwHO_KRY-9" value="java.util.ArrayList&amp;lt;E&amp;gt;" style="swimlane;fontStyle=1;align=center;verticalAlign=top;childLayout=stackLayout;horizontal=1;startSize=26;horizontalStack=0;resizeParent=1;resizeParentMax=0;resizeLast=0;collapsible=1;marginBottom=0;whiteSpace=wrap;html=1;" vertex="1" parent="WIyWlLk6GJQsqaUBKTNV-1">
          <mxGeometry x="-3940" y="-930" width="160" height="86" as="geometry" />
        </mxCell>
        <mxCell id="9cCDUhdidDNCYwHO_KRY-10" value="..." style="text;strokeColor=none;fillColor=none;align=left;verticalAlign=top;spacingLeft=4;spacingRight=4;overflow=hidden;rotatable=0;points=[[0,0.5],[1,0.5]];portConstraint=eastwest;whiteSpace=wrap;html=1;" vertex="1" parent="9cCDUhdidDNCYwHO_KRY-9">
          <mxGeometry y="26" width="160" height="26" as="geometry" />
        </mxCell>
        <mxCell id="9cCDUhdidDNCYwHO_KRY-11" value="" style="line;strokeWidth=1;fillColor=none;align=left;verticalAlign=middle;spacingTop=-1;spacingLeft=3;spacingRight=3;rotatable=0;labelPosition=right;points=[];portConstraint=eastwest;strokeColor=inherit;" vertex="1" parent="9cCDUhdidDNCYwHO_KRY-9">
          <mxGeometry y="52" width="160" height="8" as="geometry" />
        </mxCell>
        <mxCell id="9cCDUhdidDNCYwHO_KRY-12" value="..." style="text;strokeColor=none;fillColor=none;align=left;verticalAlign=top;spacingLeft=4;spacingRight=4;overflow=hidden;rotatable=0;points=[[0,0.5],[1,0.5]];portConstraint=eastwest;whiteSpace=wrap;html=1;" vertex="1" parent="9cCDUhdidDNCYwHO_KRY-9">
          <mxGeometry y="60" width="160" height="26" as="geometry" />
        </mxCell>
        <mxCell id="9cCDUhdidDNCYwHO_KRY-13" value="" style="endArrow=block;dashed=1;endFill=0;endSize=12;html=1;rounded=0;exitX=0.5;exitY=0;exitDx=0;exitDy=0;entryX=0.581;entryY=1.145;entryDx=0;entryDy=0;entryPerimeter=0;" edge="1" parent="WIyWlLk6GJQsqaUBKTNV-1" source="NW10qsWNtvqKA9GrzfMX-187" target="9cCDUhdidDNCYwHO_KRY-12">
          <mxGeometry width="160" relative="1" as="geometry">
            <mxPoint x="-4010" y="-620" as="sourcePoint" />
            <mxPoint x="-3850" y="-620" as="targetPoint" />
          </mxGeometry>
        </mxCell>
        <mxCell id="9cCDUhdidDNCYwHO_KRY-27" value="javafx.scene.control.Dialog&amp;lt;R&amp;gt;" style="swimlane;fontStyle=1;align=center;verticalAlign=top;childLayout=stackLayout;horizontal=1;startSize=26;horizontalStack=0;resizeParent=1;resizeParentMax=0;resizeLast=0;collapsible=1;marginBottom=0;whiteSpace=wrap;html=1;" vertex="1" parent="WIyWlLk6GJQsqaUBKTNV-1">
          <mxGeometry x="-3810" y="2550" width="190" height="86" as="geometry" />
        </mxCell>
        <mxCell id="9cCDUhdidDNCYwHO_KRY-28" value="..." style="text;strokeColor=none;fillColor=none;align=left;verticalAlign=top;spacingLeft=4;spacingRight=4;overflow=hidden;rotatable=0;points=[[0,0.5],[1,0.5]];portConstraint=eastwest;whiteSpace=wrap;html=1;" vertex="1" parent="9cCDUhdidDNCYwHO_KRY-27">
          <mxGeometry y="26" width="190" height="26" as="geometry" />
        </mxCell>
        <mxCell id="9cCDUhdidDNCYwHO_KRY-29" value="" style="line;strokeWidth=1;fillColor=none;align=left;verticalAlign=middle;spacingTop=-1;spacingLeft=3;spacingRight=3;rotatable=0;labelPosition=right;points=[];portConstraint=eastwest;strokeColor=inherit;" vertex="1" parent="9cCDUhdidDNCYwHO_KRY-27">
          <mxGeometry y="52" width="190" height="8" as="geometry" />
        </mxCell>
        <mxCell id="9cCDUhdidDNCYwHO_KRY-30" value="..." style="text;strokeColor=none;fillColor=none;align=left;verticalAlign=top;spacingLeft=4;spacingRight=4;overflow=hidden;rotatable=0;points=[[0,0.5],[1,0.5]];portConstraint=eastwest;whiteSpace=wrap;html=1;" vertex="1" parent="9cCDUhdidDNCYwHO_KRY-27">
          <mxGeometry y="60" width="190" height="26" as="geometry" />
        </mxCell>
        <mxCell id="9cCDUhdidDNCYwHO_KRY-31" value="" style="endArrow=block;dashed=1;endFill=0;endSize=12;html=1;rounded=0;exitX=0.599;exitY=1.048;exitDx=0;exitDy=0;exitPerimeter=0;entryX=0;entryY=0.5;entryDx=0;entryDy=0;" edge="1" parent="WIyWlLk6GJQsqaUBKTNV-1" source="NW10qsWNtvqKA9GrzfMX-52" target="9cCDUhdidDNCYwHO_KRY-28">
          <mxGeometry width="160" relative="1" as="geometry">
            <mxPoint x="-3770" y="2450" as="sourcePoint" />
            <mxPoint x="-3610" y="2450" as="targetPoint" />
            <Array as="points">
              <mxPoint x="-3940" y="2589" />
            </Array>
          </mxGeometry>
        </mxCell>
        <mxCell id="9cCDUhdidDNCYwHO_KRY-32" value="&lt;div&gt;«bind»&lt;/div&gt;&lt;div&gt;R::Object&lt;br&gt;&lt;/div&gt;" style="text;align=center;fontStyle=1;verticalAlign=middle;spacingLeft=3;spacingRight=3;strokeColor=none;rotatable=0;points=[[0,0.5],[1,0.5]];portConstraint=eastwest;html=1;" vertex="1" parent="WIyWlLk6GJQsqaUBKTNV-1">
          <mxGeometry x="-3950" y="2551" width="80" height="26" as="geometry" />
        </mxCell>
        <mxCell id="9cCDUhdidDNCYwHO_KRY-33" value="" style="endArrow=block;dashed=1;endFill=0;endSize=12;html=1;rounded=0;exitX=0.466;exitY=1.041;exitDx=0;exitDy=0;exitPerimeter=0;entryX=1;entryY=0.5;entryDx=0;entryDy=0;" edge="1" parent="WIyWlLk6GJQsqaUBKTNV-1" source="NW10qsWNtvqKA9GrzfMX-40" target="9cCDUhdidDNCYwHO_KRY-28">
          <mxGeometry width="160" relative="1" as="geometry">
            <mxPoint x="-3580" y="2260" as="sourcePoint" />
            <mxPoint x="-3420" y="2260" as="targetPoint" />
            <Array as="points">
              <mxPoint x="-3503" y="2589" />
            </Array>
          </mxGeometry>
        </mxCell>
        <mxCell id="9cCDUhdidDNCYwHO_KRY-34" value="&lt;div&gt;«bind»&lt;/div&gt;&lt;div&gt;R::GroupWeights&lt;br&gt;&lt;/div&gt;" style="text;align=center;fontStyle=1;verticalAlign=middle;spacingLeft=3;spacingRight=3;strokeColor=none;rotatable=0;points=[[0,0.5],[1,0.5]];portConstraint=eastwest;html=1;" vertex="1" parent="WIyWlLk6GJQsqaUBKTNV-1">
          <mxGeometry x="-3620" y="2550" width="110" height="26" as="geometry" />
        </mxCell>
        <mxCell id="9cCDUhdidDNCYwHO_KRY-35" value="" style="endArrow=block;dashed=1;endFill=0;endSize=12;html=1;rounded=0;exitX=1.017;exitY=-0.058;exitDx=0;exitDy=0;exitPerimeter=0;entryX=1;entryY=0.5;entryDx=0;entryDy=0;" edge="1" parent="WIyWlLk6GJQsqaUBKTNV-1" source="NW10qsWNtvqKA9GrzfMX-44" target="9cCDUhdidDNCYwHO_KRY-30">
          <mxGeometry width="160" relative="1" as="geometry">
            <mxPoint x="-3340" y="2520" as="sourcePoint" />
            <mxPoint x="-3260" y="2580" as="targetPoint" />
            <Array as="points">
              <mxPoint x="-3310" y="1926" />
              <mxPoint x="-3310" y="2623" />
            </Array>
          </mxGeometry>
        </mxCell>
        <mxCell id="9cCDUhdidDNCYwHO_KRY-36" value="&lt;div&gt;«bind»&lt;/div&gt;&lt;div&gt;R::PairingWeights&lt;br&gt;&lt;/div&gt;" style="text;align=center;fontStyle=1;verticalAlign=middle;spacingLeft=3;spacingRight=3;strokeColor=none;rotatable=0;points=[[0,0.5],[1,0.5]];portConstraint=eastwest;html=1;" vertex="1" parent="WIyWlLk6GJQsqaUBKTNV-1">
          <mxGeometry x="-3450" y="2590" width="110" height="26" as="geometry" />
        </mxCell>
        <mxCell id="9cCDUhdidDNCYwHO_KRY-38" value="" style="endArrow=block;dashed=1;endFill=0;endSize=12;html=1;rounded=0;entryX=0.25;entryY=0;entryDx=0;entryDy=0;" edge="1" parent="WIyWlLk6GJQsqaUBKTNV-1" target="9cCDUhdidDNCYwHO_KRY-27">
          <mxGeometry width="160" relative="1" as="geometry">
            <mxPoint x="-3763" y="2203" as="sourcePoint" />
            <mxPoint x="-3540" y="2300" as="targetPoint" />
          </mxGeometry>
        </mxCell>
        <mxCell id="9cCDUhdidDNCYwHO_KRY-40" value="" style="endArrow=block;dashed=1;endFill=0;endSize=12;html=1;rounded=0;" edge="1" parent="WIyWlLk6GJQsqaUBKTNV-1">
          <mxGeometry width="160" relative="1" as="geometry">
            <mxPoint x="-3580" y="2090" as="sourcePoint" />
            <mxPoint x="-3420" y="2090" as="targetPoint" />
          </mxGeometry>
        </mxCell>
        <mxCell id="9cCDUhdidDNCYwHO_KRY-41" value="" style="endArrow=block;dashed=1;endFill=0;endSize=12;html=1;rounded=0;exitX=0.473;exitY=1.014;exitDx=0;exitDy=0;exitPerimeter=0;entryX=0;entryY=0.5;entryDx=0;entryDy=0;" edge="1" parent="WIyWlLk6GJQsqaUBKTNV-1" source="NW10qsWNtvqKA9GrzfMX-48" target="9cCDUhdidDNCYwHO_KRY-30">
          <mxGeometry width="160" relative="1" as="geometry">
            <mxPoint x="-3680" y="1840" as="sourcePoint" />
            <mxPoint x="-3520" y="1840" as="targetPoint" />
            <Array as="points">
              <mxPoint x="-3929" y="1850" />
              <mxPoint x="-4130" y="1850" />
              <mxPoint x="-4130" y="2620" />
            </Array>
          </mxGeometry>
        </mxCell>
        <mxCell id="9cCDUhdidDNCYwHO_KRY-42" value="&lt;div&gt;«bind»&lt;/div&gt;&lt;div&gt;R::PairList&lt;br&gt;&lt;/div&gt;" style="text;html=1;align=center;verticalAlign=middle;whiteSpace=wrap;rounded=0;" vertex="1" parent="WIyWlLk6GJQsqaUBKTNV-1">
          <mxGeometry x="-4115" y="2587" width="60" height="30" as="geometry" />
        </mxCell>
        <mxCell id="9cCDUhdidDNCYwHO_KRY-43" value="" style="endArrow=block;dashed=1;endFill=0;endSize=12;html=1;rounded=0;exitX=0.463;exitY=1.012;exitDx=0;exitDy=0;exitPerimeter=0;entryX=0.75;entryY=0;entryDx=0;entryDy=0;" edge="1" parent="WIyWlLk6GJQsqaUBKTNV-1" source="NW10qsWNtvqKA9GrzfMX-56" target="9cCDUhdidDNCYwHO_KRY-27">
          <mxGeometry width="160" relative="1" as="geometry">
            <mxPoint x="-3580" y="1820" as="sourcePoint" />
            <mxPoint x="-3420" y="1820" as="targetPoint" />
            <Array as="points">
              <mxPoint x="-3485" y="1820" />
              <mxPoint x="-3667" y="1820" />
            </Array>
          </mxGeometry>
        </mxCell>
        <mxCell id="9cCDUhdidDNCYwHO_KRY-50" value="has/calls" style="endArrow=open;html=1;endSize=12;startArrow=diamondThin;startSize=14;startFill=0;edgeStyle=orthogonalEdgeStyle;rounded=0;exitX=0.647;exitY=-0.002;exitDx=0;exitDy=0;exitPerimeter=0;" edge="1" parent="WIyWlLk6GJQsqaUBKTNV-1" source="NW10qsWNtvqKA9GrzfMX-57" target="NW10qsWNtvqKA9GrzfMX-114">
          <mxGeometry relative="1" as="geometry">
            <mxPoint x="-1700" y="1010" as="sourcePoint" />
            <mxPoint x="-1540" y="1010" as="targetPoint" />
            <Array as="points">
              <mxPoint x="-4291" y="1320" />
              <mxPoint x="-1644" y="1320" />
            </Array>
          </mxGeometry>
        </mxCell>
        <mxCell id="9cCDUhdidDNCYwHO_KRY-51" value="&lt;div&gt;1&lt;/div&gt;&lt;div&gt;&lt;br&gt;&lt;/div&gt;" style="edgeLabel;resizable=0;html=1;align=left;verticalAlign=top;" connectable="0" vertex="1" parent="9cCDUhdidDNCYwHO_KRY-50">
          <mxGeometry x="-1" relative="1" as="geometry">
            <mxPoint x="11" y="-60" as="offset" />
          </mxGeometry>
        </mxCell>
        <mxCell id="9cCDUhdidDNCYwHO_KRY-52" value="1" style="edgeLabel;resizable=0;html=1;align=right;verticalAlign=top;" connectable="0" vertex="1" parent="9cCDUhdidDNCYwHO_KRY-50">
          <mxGeometry x="1" relative="1" as="geometry">
            <mxPoint x="-10" y="24" as="offset" />
          </mxGeometry>
        </mxCell>
        <mxCell id="9cCDUhdidDNCYwHO_KRY-54" value="Use" style="endArrow=open;endSize=12;dashed=1;html=1;rounded=0;exitX=0;exitY=0;exitDx=1285.5190120246991;exitDy=755;exitPerimeter=0;entryX=0;entryY=0;entryDx=0;entryDy=93.75;entryPerimeter=0;" edge="1" parent="WIyWlLk6GJQsqaUBKTNV-1" source="NW10qsWNtvqKA9GrzfMX-23" target="NW10qsWNtvqKA9GrzfMX-6">
          <mxGeometry width="160" relative="1" as="geometry">
            <mxPoint x="-3300" y="1990" as="sourcePoint" />
            <mxPoint x="-3140" y="1990" as="targetPoint" />
            <Array as="points">
              <mxPoint x="-2750" y="2150" />
              <mxPoint x="-2750" y="1894" />
            </Array>
          </mxGeometry>
        </mxCell>
        <mxCell id="9cCDUhdidDNCYwHO_KRY-55" value="1" style="endArrow=open;html=1;endSize=12;startArrow=diamondThin;startSize=14;startFill=0;edgeStyle=orthogonalEdgeStyle;align=left;verticalAlign=bottom;rounded=0;exitX=1;exitY=0.25;exitDx=0;exitDy=0;entryX=0.556;entryY=1.004;entryDx=0;entryDy=0;entryPerimeter=0;" edge="1" parent="WIyWlLk6GJQsqaUBKTNV-1" source="NW10qsWNtvqKA9GrzfMX-17" target="NW10qsWNtvqKA9GrzfMX-60">
          <mxGeometry x="-1" y="3" relative="1" as="geometry">
            <mxPoint x="-2290" y="1740" as="sourcePoint" />
            <mxPoint x="-2130" y="1740" as="targetPoint" />
            <Array as="points">
              <mxPoint x="-2030" y="1730" />
              <mxPoint x="-2030" y="2680" />
              <mxPoint x="-4327" y="2680" />
            </Array>
          </mxGeometry>
        </mxCell>
        <mxCell id="9cCDUhdidDNCYwHO_KRY-56" value="&lt;div&gt;calls/creates&lt;/div&gt;" style="text;html=1;align=center;verticalAlign=middle;whiteSpace=wrap;rounded=0;" vertex="1" parent="WIyWlLk6GJQsqaUBKTNV-1">
          <mxGeometry x="-4310" y="2650" width="80" height="30" as="geometry" />
        </mxCell>
        <mxCell id="NW10qsWNtvqKA9GrzfMX-29" value="LanguageController" style="swimlane;fontStyle=1;align=center;verticalAlign=top;childLayout=stackLayout;horizontal=1;startSize=26;horizontalStack=0;resizeParent=1;resizeParentMax=0;resizeLast=0;collapsible=1;marginBottom=0;whiteSpace=wrap;html=1;" parent="WIyWlLk6GJQsqaUBKTNV-1" vertex="1">
          <mxGeometry x="-3259.625027624309" y="1430" width="390" height="450" as="geometry" />
        </mxCell>
        <mxCell id="NW10qsWNtvqKA9GrzfMX-30" value="&lt;div&gt;&lt;u&gt;- instance: LanguageController&lt;/u&gt;&lt;/div&gt;&lt;div&gt;&lt;u&gt;- language: ObservableProperty&amp;lt;Locale&amp;gt; {read only}&lt;/u&gt;&lt;/div&gt;&lt;div&gt;- german: ResourceBundle {read only}&lt;/div&gt;&lt;div&gt;- english: ResourceBundle {read only}&lt;br&gt;&lt;/div&gt;" style="text;strokeColor=none;fillColor=none;align=left;verticalAlign=top;spacingLeft=4;spacingRight=4;overflow=hidden;rotatable=0;points=[[0,0.5],[1,0.5]];portConstraint=eastwest;whiteSpace=wrap;html=1;" parent="NW10qsWNtvqKA9GrzfMX-29" vertex="1">
          <mxGeometry y="26" width="390" height="64" as="geometry" />
        </mxCell>
        <mxCell id="NW10qsWNtvqKA9GrzfMX-31" value="" style="line;strokeWidth=1;fillColor=none;align=left;verticalAlign=middle;spacingTop=-1;spacingLeft=3;spacingRight=3;rotatable=0;labelPosition=right;points=[];portConstraint=eastwest;strokeColor=inherit;" parent="NW10qsWNtvqKA9GrzfMX-29" vertex="1">
          <mxGeometry y="90" width="390" height="8" as="geometry" />
        </mxCell>
        <mxCell id="NW10qsWNtvqKA9GrzfMX-32" value="&lt;div&gt;- LanguageController()&lt;br&gt;&lt;/div&gt;&lt;div&gt;&lt;u&gt;+ getInstance(): LanguageController&lt;/u&gt;&lt;/div&gt;&lt;div&gt;+ getLanguageProperty(): ObjectProperty&amp;lt;Locale&amp;gt;&lt;br&gt;&lt;/div&gt;&lt;div&gt;+ getLanguage(): Locale&lt;br&gt;&lt;/div&gt;&lt;div&gt;+ setLanguage(Locale): void&lt;/div&gt;&lt;div&gt;&lt;u&gt;+ getSupportedLanguages(): List&amp;lt;Locale&amp;gt;&lt;/u&gt;&lt;/div&gt;&lt;div&gt;&lt;u&gt;+ getDefault(): Locale&lt;/u&gt;&lt;/div&gt;&lt;div&gt;- getResourceBundleForCurrentLanguage(): ResourceBundle&lt;/div&gt;&lt;div&gt;- getResourceBundleForLanguage(Locale): ResourceBundle&lt;/div&gt;&lt;div&gt;+ getText(String): String&lt;/div&gt;&lt;div&gt;- getTextInternal(String, Object[]): Collable&amp;lt;String&amp;gt;&lt;/div&gt;&lt;div&gt;- getStringBinding(String): StringBinding&lt;/div&gt;&lt;div&gt;+ attachListener(ChangeListener&amp;lt;? super Locale&amp;gt;): void&lt;/div&gt;&lt;div&gt;+ bindComponent&amp;lt;E&amp;gt;(E, String): void&lt;/div&gt;&lt;div&gt;- bindLabeled&amp;lt;E extends Labeled&amp;gt;(E, String): void&lt;/div&gt;&lt;div&gt;- bindTab&amp;lt;E extends Tab&amp;gt;(E, String): void&lt;br&gt;&lt;/div&gt;&lt;div&gt;- bindMenuItem&amp;lt;E extends MenuItem&amp;gt;(E, String): void&lt;/div&gt;&lt;div&gt;- bindTableColumn&amp;lt;E extends TableColumnBase&amp;lt;?, ?&amp;gt;&amp;gt;(E, String): void&lt;/div&gt;&lt;div&gt;- bindTableDefaultText&amp;lt;E extends TableView&amp;lt;?&amp;gt;&amp;gt;(E, String): void&lt;/div&gt;&lt;div&gt;- bindTextField&amp;lt;E extends TextInputControl&amp;gt;(E, String): void&lt;/div&gt;&lt;div&gt;- bindText&amp;lt;E extends Text&amp;gt;(E, String): void&lt;/div&gt;&lt;div&gt;- bindDialog&amp;lt;E extends Dialog&amp;lt;?&amp;gt;&amp;gt;(E, String): void&lt;/div&gt;&lt;div&gt;- bindDialogPaneHeaderText&amp;lt;E extends DialogPane&amp;gt;(E, String):void&lt;br&gt;&lt;/div&gt;&lt;div&gt;- bindStage&amp;lt;E extends Stage&amp;gt;(E, String): void&lt;br&gt;&lt;/div&gt;" style="text;strokeColor=none;fillColor=none;align=left;verticalAlign=top;spacingLeft=4;spacingRight=4;overflow=hidden;rotatable=0;points=[[0,0.5],[1,0.5]];portConstraint=eastwest;whiteSpace=wrap;html=1;" parent="NW10qsWNtvqKA9GrzfMX-29" vertex="1">
          <mxGeometry y="98" width="390" height="352" as="geometry" />
        </mxCell>
        <mxCell id="9cCDUhdidDNCYwHO_KRY-53" value="Use" style="endArrow=open;endSize=12;dashed=1;html=1;rounded=0;entryX=0.047;entryY=0.999;entryDx=0;entryDy=0;entryPerimeter=0;" edge="1" parent="WIyWlLk6GJQsqaUBKTNV-1" target="NW10qsWNtvqKA9GrzfMX-5">
          <mxGeometry width="160" relative="1" as="geometry">
            <mxPoint x="-4410" y="1370" as="sourcePoint" />
            <mxPoint x="-4250" y="1370" as="targetPoint" />
          </mxGeometry>
        </mxCell>
        <mxCell id="9cCDUhdidDNCYwHO_KRY-61" value="&lt;div&gt;has/calls&lt;/div&gt;" style="endArrow=open;html=1;endSize=12;startArrow=diamondThin;startSize=14;startFill=0;edgeStyle=orthogonalEdgeStyle;rounded=0;exitX=0.75;exitY=0;exitDx=0;exitDy=0;entryX=0.5;entryY=0;entryDx=0;entryDy=0;" edge="1" parent="WIyWlLk6GJQsqaUBKTNV-1" source="NW10qsWNtvqKA9GrzfMX-57" target="NW10qsWNtvqKA9GrzfMX-29">
          <mxGeometry relative="1" as="geometry">
            <mxPoint x="-4220" y="1450" as="sourcePoint" />
            <mxPoint x="-4060" y="1450" as="targetPoint" />
            <Array as="points">
              <mxPoint x="-4250" y="1390" />
              <mxPoint x="-3065" y="1390" />
            </Array>
          </mxGeometry>
        </mxCell>
        <mxCell id="9cCDUhdidDNCYwHO_KRY-62" value="&lt;div&gt;1&lt;/div&gt;" style="edgeLabel;resizable=0;html=1;align=left;verticalAlign=top;" connectable="0" vertex="1" parent="9cCDUhdidDNCYwHO_KRY-61">
          <mxGeometry x="-1" relative="1" as="geometry">
            <mxPoint x="10" y="-42" as="offset" />
          </mxGeometry>
        </mxCell>
        <mxCell id="9cCDUhdidDNCYwHO_KRY-63" value="1" style="edgeLabel;resizable=0;html=1;align=right;verticalAlign=top;" connectable="0" vertex="1" parent="9cCDUhdidDNCYwHO_KRY-61">
          <mxGeometry x="1" relative="1" as="geometry">
            <mxPoint x="-5" y="-40" as="offset" />
          </mxGeometry>
        </mxCell>
        <mxCell id="9cCDUhdidDNCYwHO_KRY-172" value="" style="endArrow=open;endFill=1;endSize=12;html=1;rounded=0;entryX=0.739;entryY=1.049;entryDx=0;entryDy=0;entryPerimeter=0;" edge="1" parent="WIyWlLk6GJQsqaUBKTNV-1" target="NW10qsWNtvqKA9GrzfMX-40">
          <mxGeometry width="160" relative="1" as="geometry">
            <mxPoint x="-3790" y="2460" as="sourcePoint" />
            <mxPoint x="-3630" y="2460" as="targetPoint" />
            <Array as="points">
              <mxPoint x="-3420" y="2460" />
            </Array>
          </mxGeometry>
        </mxCell>
        <mxCell id="9cCDUhdidDNCYwHO_KRY-173" value="" style="endArrow=open;endFill=1;endSize=12;html=1;rounded=0;entryX=0.529;entryY=1.02;entryDx=0;entryDy=0;entryPerimeter=0;" edge="1" parent="WIyWlLk6GJQsqaUBKTNV-1" target="NW10qsWNtvqKA9GrzfMX-44">
          <mxGeometry width="160" relative="1" as="geometry">
            <mxPoint x="-3440" y="2460" as="sourcePoint" />
            <mxPoint x="-3280" y="2460" as="targetPoint" />
            <Array as="points">
              <mxPoint x="-3330" y="2460" />
              <mxPoint x="-3330" y="2040" />
              <mxPoint x="-3484" y="2040" />
            </Array>
          </mxGeometry>
        </mxCell>
        <mxCell id="9cCDUhdidDNCYwHO_KRY-174" value="" style="endArrow=open;endFill=1;endSize=12;html=1;rounded=0;entryX=0.59;entryY=1.01;entryDx=0;entryDy=0;entryPerimeter=0;" edge="1" parent="WIyWlLk6GJQsqaUBKTNV-1" target="NW10qsWNtvqKA9GrzfMX-56">
          <mxGeometry width="160" relative="1" as="geometry">
            <mxPoint x="-3330" y="2040" as="sourcePoint" />
            <mxPoint x="-3180" y="2040" as="targetPoint" />
            <Array as="points">
              <mxPoint x="-3330" y="1790" />
              <mxPoint x="-3441" y="1790" />
            </Array>
          </mxGeometry>
        </mxCell>
        <mxCell id="9cCDUhdidDNCYwHO_KRY-179" value="" style="endArrow=open;endFill=1;endSize=12;html=1;rounded=0;exitX=0.416;exitY=0;exitDx=0;exitDy=0;exitPerimeter=0;entryX=0.75;entryY=1;entryDx=0;entryDy=0;" edge="1" parent="WIyWlLk6GJQsqaUBKTNV-1" source="NW10qsWNtvqKA9GrzfMX-57" target="NW10qsWNtvqKA9GrzfMX-195">
          <mxGeometry width="160" relative="1" as="geometry">
            <mxPoint x="-4380" y="1430" as="sourcePoint" />
            <mxPoint x="-4220" y="1430" as="targetPoint" />
            <Array as="points">
              <mxPoint x="-4383" y="1140" />
              <mxPoint x="-3850" y="1140" />
              <mxPoint x="-3320" y="1140" />
            </Array>
          </mxGeometry>
        </mxCell>
        <mxCell id="9cCDUhdidDNCYwHO_KRY-180" value="calls" style="edgeLabel;html=1;align=center;verticalAlign=middle;resizable=0;points=[];" vertex="1" connectable="0" parent="9cCDUhdidDNCYwHO_KRY-179">
          <mxGeometry x="-0.9159" y="-1" relative="1" as="geometry">
            <mxPoint y="-1" as="offset" />
          </mxGeometry>
        </mxCell>
      </root>
    </mxGraphModel>
  </diagram>
</mxfile>
